<svg width="16" height="16" viewBox="0 0 16 16" fill="none" xmlns="http://www.w3.org/2000/svg">
<path fill-rule="evenodd" clip-rule="evenodd" d="M2 8C2 12.8392 3.16084 14 8 14C12.8392 14 14 12.8392 14 8C14 3.16084 12.8392 2 8 2C3.16084 2 2 3.16084 2 8ZM6.18293 5.12512L4.16937 9.45277H4.16976C4.07859 9.66315 4 9.93486 4 10.1698C4 11.2455 4.79733 12 5.93457 12C6.30612 12 6.61552 11.9076 6.92944 11.8138L6.93192 11.813L6.93358 11.8125C7.25842 11.7153 7.58887 11.6164 8 11.6164C8.41598 11.6164 8.73847 11.7145 9.05685 11.8113L9.05904 11.8119L9.06165 11.8127C9.37199 11.9069 9.67905 12 10.0654 12C11.2027 12 12 11.2455 12 10.1701C12 9.93486 11.9218 9.66315 11.8302 9.45277L9.81708 5.12512C9.47716 4.39586 8.82366 4 8 4C7.17634 4 6.52284 4.39586 6.18293 5.12512ZM6.01277 10.133L7.99961 5.87967V5.87929L9.96051 10.133C9.39857 9.87316 8.69241 9.74939 7.99961 9.74939C7.28087 9.74939 6.60104 9.87316 6.01277 10.133Z" fill="#7C7CFF"/>
</svg>
