<svg width="16" height="16" viewBox="0 0 16 16" fill="none" xmlns="http://www.w3.org/2000/svg">
<path d="M14 4.20402L10.1256 10.5H14V4.20402Z" fill="#CC6BEE"/>
<path d="M13.4885 3.12721L10.619 7.79005L7.7709 3H13C13.1774 3 13.344 3.0462 13.4885 3.12721Z" fill="#CC6BEE"/>
<path d="M6.60748 3H6.5L4.8125 6H8.39126L6.60748 3Z" fill="#CC6BEE"/>
<path d="M4.25 7H5.97288L2.04235 13.2888C2.0148 13.1974 2 13.1004 2 13V11L4.25 7Z" fill="#CC6BEE"/>
<path d="M2.79082 13.9781C2.85828 13.9924 2.92826 14 3 14H7.72445L5.46282 9.70289L2.79082 13.9781Z" fill="#CC6BEE"/>
<path d="M8.8545 14H13C13.5523 14 14 13.5523 14 13V11.5H7.53871L8.8545 14Z" fill="#CC6BEE"/>
<path d="M7.01239 10.5L6.07627 8.72137L7.15212 7H8.98586L10.0273 8.75157L8.95137 10.5H7.01239Z" fill="#CC6BEE"/>
</svg>
