<svg width="16" height="16" viewBox="0 0 16 16" fill="none" xmlns="http://www.w3.org/2000/svg">
<path d="M3.6324 8.09796L2 11V13C2 13.5523 2.44772 14 3 14H6.46538L3.6324 8.09796Z" fill="#FF9350"/>
<path d="M7.57461 14L4.23091 7.03394L4.98132 5.69987L8.96538 14H7.57461Z" fill="#FF9350"/>
<path d="M10.0746 14H11.4654L6.33024 3.30179L5.57983 4.63586L10.0746 14Z" fill="#FF9350"/>
<path d="M7.29462 3L12.5746 14H13C13.3175 14 13.6004 13.852 13.7836 13.6213L8.68538 3H7.29462Z" fill="#FF9350"/>
<path d="M9.79462 3L14 11.7612V4C14 3.44772 13.5523 3 13 3H9.79462Z" fill="#FF9350"/>
</svg>
