<svg width="16" height="16" viewBox="0 0 16 16" fill="none" xmlns="http://www.w3.org/2000/svg">
<path fill-rule="evenodd" clip-rule="evenodd" d="M6.02882 6.39309C6.87731 5.10311 8.33844 4.25 10 4.25C12.6234 4.25 14.75 6.37665 14.75 9C14.75 11.6234 12.6234 13.75 10 13.75H5C2.92893 13.75 1.25 12.0711 1.25 10C1.25 7.92893 2.92893 6.25 5 6.25C5.35618 6.25 5.70146 6.29985 6.02882 6.39309ZM10 5.75C8.69122 5.75 7.56158 6.52363 7.04635 7.64178L6.71923 8.35172L6.02342 7.99551C5.71724 7.83877 5.37008 7.75 5 7.75C3.75736 7.75 2.75 8.75736 2.75 10C2.75 11.2426 3.75736 12.25 5 12.25H10C11.7949 12.25 13.25 10.7949 13.25 9C13.25 7.20507 11.7949 5.75 10 5.75Z" fill="#909090" fill-opacity="0.9"/>
</svg>
