<svg id="Calque_1" data-name="Calque 1" xmlns="http://www.w3.org/2000/svg" xmlns:xlink="http://www.w3.org/1999/xlink" viewBox="0 0 16 16"><defs><style>.cls-1{mask:url(#mask);}.cls-2{fill:#78bc37;}.cls-3{filter:url(#luminosity-noclip);}</style><filter id="luminosity-noclip" x="1.5" y="3" width="13.05" height="10" filterUnits="userSpaceOnUse" color-interpolation-filters="sRGB"><feFlood flood-color="#fff" result="bg"/><feBlend in="SourceGraphic" in2="bg"/></filter><mask id="mask" x="1.5" y="3" width="13.05" height="10" maskUnits="userSpaceOnUse"><g class="cls-3"><rect x="8" y="4" width="2" height="2"/><rect x="6" y="6" width="2" height="2"/><rect x="8" y="8" width="2" height="2"/><rect x="6" y="10" width="2" height="2"/></g></mask></defs><g class="cls-1"><path class="cls-2" d="M13.5,13H2.55A1,1,0,0,1,1.5,12V4.05a1,1,0,0,1,1-1h4.3a1,1,0,0,1,.94.58l.42.84A1,1,0,0,0,9.15,5H13.5a1,1,0,0,1,1.05,1V12A1,1,0,0,1,13.5,13Z"/></g></svg>