<svg width="16" height="16" viewBox="0 0 16 16" fill="none" xmlns="http://www.w3.org/2000/svg">
<path fill-rule="evenodd" clip-rule="evenodd" d="M9.68818 4.29738C9.78136 4.41773 9.82888 4.58012 9.92391 4.9049L12 12C11.2324 11.5857 10.398 11.287 9.51794 11.1258L8.16619 6.37355C8.14408 6.29579 8.07542 6.24245 7.99748 6.24245C7.91933 6.24245 7.85056 6.29607 7.82861 6.37409L6.49324 11.1234C5.60913 11.2838 4.77087 11.5832 4 11.9989L6.08628 4.90325C6.1816 4.57903 6.22927 4.41692 6.32246 4.2968C6.40472 4.19075 6.51173 4.10839 6.63327 4.05757C6.77094 4 6.93389 4 7.2598 4H8.74991C9.07624 4 9.2394 4 9.37721 4.05769C9.49885 4.10862 9.60592 4.19115 9.68818 4.29738Z" fill="#FF5D01"/>
<rect x="2.5" y="2.5" width="11" height="11" rx="1.5" stroke="#FF5D01"/>
</svg>
