<svg width="16" height="16" viewBox="0 0 16 16" fill="none" xmlns="http://www.w3.org/2000/svg">
<path fill-rule="evenodd" clip-rule="evenodd" d="M10.1102 2.33456C10.2267 2.46994 10.2861 2.65263 10.4049 3.01801L13 11C12.0405 10.534 10.9974 10.1978 9.89742 10.0165L8.20774 4.67024C8.1801 4.58276 8.09427 4.52276 7.99685 4.52276C7.89917 4.52276 7.8132 4.58308 7.78577 4.67086L6.11655 10.0138C5.01141 10.1943 3.96359 10.5311 3 10.9988L5.60784 3.01616C5.727 2.65141 5.78659 2.46904 5.90307 2.3339C6.0059 2.2146 6.13966 2.12194 6.29159 2.06477C6.46368 2 6.66736 2 7.07475 2H8.93739C9.3453 2 9.54926 2 9.72151 2.0649C9.87356 2.1222 10.0074 2.21504 10.1102 2.33456Z" fill="#828A96"/>
<path fill-rule="evenodd" clip-rule="evenodd" d="M10.894 11.236C10.3764 11.5605 9.34331 11.7819 8.15336 11.7819C6.69283 11.7819 5.4687 11.4484 5.14386 11C5.02774 11.257 5.0017 11.5511 5.0017 11.739C5.0017 11.739 4.92518 12.6617 5.80026 13.3034C5.80026 12.9702 6.16863 12.7001 6.623 12.7001C7.40183 12.7001 7.40096 13.1984 7.40024 13.6026C7.40022 13.6147 7.40021 13.6268 7.40021 13.6387C7.40021 14.2523 7.91159 14.7783 8.63886 15C8.53023 14.8362 8.4693 14.6522 8.4693 14.4577C8.4693 13.8725 8.93781 13.6546 9.48231 13.4014C9.91554 13.1999 10.3969 12.976 10.7286 12.5269C10.9017 12.2926 11 12.0242 11 11.739C11 11.5636 10.9628 11.3946 10.894 11.236Z" fill="#FF5D01"/>
</svg>
