<svg width="16" height="16" viewBox="0 0 16 16" fill="none" xmlns="http://www.w3.org/2000/svg">
<path fill-rule="evenodd" clip-rule="evenodd" d="M12 12.4722C13.2275 11.3736 14 9.777 14 8C14 6.223 13.2275 4.62643 12 3.52779V5L8.5 6.5V2.02054C8.33513 2.00694 8.16838 2 8 2C7.83162 2 7.66487 2.00694 7.5 2.02054V6.5L4 5V3.52779C2.7725 4.62643 2 6.223 2 8C2 9.777 2.7725 11.3736 4 12.4722V9L7.5 7.5V8.90909L5.6823 13.536C6.39537 13.8349 7.1784 14 8 14C8.8216 14 9.60463 13.8349 10.3177 13.536L8.5 8.90909V7.5L12 9V12.4722ZM4 6L6 7L4 8V6ZM10 7L12 6V8L10 7Z" fill="#51C2C0"/>
<circle cx="8" cy="8" r="5.5" stroke="#51C2C0"/>
</svg>
