<svg width="16" height="16" viewBox="0 0 16 16" fill="none" xmlns="http://www.w3.org/2000/svg">
<path fill-rule="evenodd" clip-rule="evenodd" d="M11.1053 2.16891C10.9101 1.97371 10.5936 1.97364 10.3983 2.16875L7.99856 4.56629L5.60117 2.16891C5.40591 1.97365 5.08933 1.97365 4.89407 2.16891L2.14755 4.91542C2.13652 4.9262 2.126 4.93747 2.11604 4.94918C2.03658 5.04234 1.99685 5.15777 1.99684 5.27321V5.27324V7.97346C1.99684 8.10599 2.04946 8.2331 2.14313 8.32685L4.8939 11.0802L4.89532 11.0816L7.6364 13.8226C7.68355 13.8722 7.74122 13.9124 7.80694 13.9396C7.99372 14.017 8.20875 13.9743 8.35178 13.8314L11.1051 11.0807L11.1132 11.0723L13.8562 8.32685C13.9499 8.2331 14.0025 8.10599 14.0025 7.97346V5.27554C14.0025 5.27473 14.0025 5.27393 14.0025 5.27312C14.0025 5.25653 14.0016 5.23993 14 5.2234C13.9901 5.12384 13.9504 5.02668 13.8809 4.94639C13.8717 4.93576 13.8621 4.92551 13.852 4.91566L11.1053 2.16891ZM12.7955 5.27338L10.7515 3.22941L8.70567 5.2734L10.7515 7.31925L12.7955 5.27338ZM11.2517 8.23352L13.0025 6.48113V7.76649L11.2517 9.51888V8.23352ZM10.0444 8.02636L7.99856 5.9805L5.95457 8.02637L7.99857 10.0703L10.0444 8.02636ZM5.24762 3.22957L7.29144 5.27339L5.24763 7.31909L3.2038 5.27338L5.24762 3.22957ZM4.74762 8.23351L2.99684 6.48113V7.76649L4.74762 9.51888V8.23351ZM5.74762 9.23363V10.5197L7.4984 12.2704V10.9844L5.74762 9.23363ZM8.49839 12.2714V10.9847L10.2517 9.23301V10.5197L8.49839 12.2714Z" fill="#8A9AAA"/>
</svg>
