<svg width="16" height="16" viewBox="0 0 16 16" fill="none" xmlns="http://www.w3.org/2000/svg">
<path d="M7.99828 11.0283V13.9727L4.99886 10.9732V8.0289L7.99828 11.0283Z" fill="#009923"/>
<path d="M7.99828 11.0283L11.0005 8.0289V10.9732L7.99828 13.9727V11.0283Z" fill="#006C00"/>
<path d="M4.99885 8.02891V10.9733L1.99943 7.97107V5.02673L4.99885 8.02891Z" fill="#54B859"/>
<path d="M13.9999 5.02673V7.97107L11.0005 10.9733V8.02891L13.9999 5.02673Z" fill="#54B859"/>
<path d="M7.99828 11.0283L4.99886 8.02891L7.99828 5.02673L11.0005 8.02891L7.99828 11.0283Z" fill="#54B859"/>
<path d="M4.99885 8.02895L1.99943 5.02677L4.99885 2.02734L7.99828 5.02677L4.99885 8.02895Z" fill="#95DC94"/>
<path d="M11.0005 8.02895L7.99828 5.02677L11.0005 2.02734L13.9999 5.02677L11.0005 8.02895Z" fill="#95DC94"/>
</svg>
