<svg width="16" height="16" viewBox="0 0 16 16" fill="none" xmlns="http://www.w3.org/2000/svg">
<path d="M12 7.5C12.6512 6.95141 13.016 6.37935 13 5.5C12.9636 3.5052 11.5 2.00418 9 2.00418H3.00506V4.5H9C9.5 4.5 10 5.03989 10 5.5C10 6 9.5 6.5 9 6.5C8.55054 6.53304 8.3193 6.49426 7.86653 6.50087L3 6.5V14L5.5 14.0009C5.5 13.5 5.5 9.50819 5.5 8.99999H9.5C10.0689 8.97479 11 9 11 10C11 11 10.1761 11.482 9.5 11.5C9.12324 11.5066 8.37676 11.5 8 11.5C8 12 7.99423 13.6751 8 14C8.88452 14 9.14819 14.0299 9.5 14C11 14 13 13.5 13.5 11.5C14 9.50001 13 7.99999 12 7.5Z" fill="#F7B911"/>
</svg>
