<svg id="Calque_1" data-name="Calque 1" xmlns="http://www.w3.org/2000/svg" xmlns:xlink="http://www.w3.org/1999/xlink" viewBox="0 0 16 16"><defs><style>.cls-1{filter:url(#luminosity-noclip);}.cls-2{fill:#e22d61;}.cls-3{mask:url(#mask);}</style><filter id="luminosity-noclip" x="3.5" y="5.5" width="9" height="6" filterUnits="userSpaceOnUse" color-interpolation-filters="sRGB"><feFlood flood-color="#fff" result="bg"/><feBlend in="SourceGraphic" in2="bg"/></filter><mask id="mask" x="3.5" y="5.5" width="9" height="6" maskUnits="userSpaceOnUse"><polygon class="cls-1" points="8 10.5 8 7.5 11.5 7.5 8 10.5"/></mask></defs><path class="cls-2" d="M12.5,14h-9A1.55,1.55,0,0,1,2,12.5v-9A1.55,1.55,0,0,1,3.5,2l9,0A1.55,1.55,0,0,1,14.05,3.5v9A1.55,1.55,0,0,1,12.5,14ZM12.5,3l-9,0A.55.55,0,0,0,3,3.54v9A.55.55,0,0,0,3.5,13h9a.55.55,0,0,0,.55-.54v-9A.55.55,0,0,0,12.5,3Z"/><g class="cls-3"><polygon class="cls-2" points="5.5 5.5 10.5 5.5 12.5 7.5 8 11.5 3.5 7.5 5.5 5.5"/></g></svg>