<svg width="16" height="16" viewBox="0 0 16 16" fill="none" xmlns="http://www.w3.org/2000/svg">
<path d="M12.85 4.52L8.71 2.13C8.50629 2.01239 8.27522 1.95047 8.04 1.95047C7.80478 1.95047 7.5737 2.01239 7.37 2.13L3.23 4.52C3.02715 4.63594 2.85842 4.80328 2.7408 5.00516C2.62318 5.20705 2.56082 5.43635 2.56 5.67V10.45C2.56108 10.6849 2.62346 10.9155 2.74097 11.119C2.85847 11.3224 3.02704 11.4917 3.23 11.61L7.37 14C7.5737 14.1176 7.80478 14.1795 8.04 14.1795C8.27522 14.1795 8.50629 14.1176 8.71 14L12.85 11.61C13.053 11.4917 13.2215 11.3224 13.339 11.119C13.4565 10.9155 13.5189 10.6849 13.52 10.45V5.67C13.5192 5.43635 13.4568 5.20705 13.3392 5.00516C13.2216 4.80328 13.0528 4.63594 12.85 4.52ZM8 10C8.52957 9.99777 9.03665 9.78559 9.41 9.41L10.83 10.83C10.2704 11.389 9.55767 11.7695 8.78187 11.9235C8.00607 12.0774 7.20203 11.998 6.47138 11.6951C5.74074 11.3922 5.11629 10.8795 4.67696 10.2218C4.23763 9.56412 4.00314 8.79094 4.00314 8C4.00314 7.20906 4.23763 6.43588 4.67696 5.77818C5.11629 5.12048 5.74074 4.60779 6.47138 4.30491C7.20203 4.00203 8.00607 3.92255 8.78187 4.07653C9.55767 4.23051 10.2704 4.61103 10.83 5.17L9.41 6.59C9.03665 6.21441 8.52957 6.00223 8 6C7.46956 6 6.96086 6.21071 6.58578 6.58579C6.21071 6.96086 6 7.46957 6 8C6 8.53043 6.21071 9.03914 6.58578 9.41421C6.96086 9.78929 7.46956 10 8 10Z" fill="#6A83FF"/>
</svg>
