<svg width="16" height="16" viewBox="0 0 16 16" fill="none" xmlns="http://www.w3.org/2000/svg">
<path d="M5 13.5V10L8 11.5V15L5 13.5Z" fill="#909090" fill-opacity="0.9"/>
<path d="M1 11V7.5L4 9V12.5L1 11Z" fill="#909090" fill-opacity="0.9"/>
<path d="M5 9V5.5L8 7V10.5L5 9Z" fill="#909090" fill-opacity="0.9"/>
<path d="M11 13.5V10L8 11.5V15L11 13.5Z" fill="#909090" fill-opacity="0.9"/>
<path d="M15 10.8333V7.5L12 9.16667V12.5L15 10.8333Z" fill="#909090" fill-opacity="0.9"/>
<path d="M11 9V5.5L8 7V10.5L11 9Z" fill="#909090" fill-opacity="0.9"/>
<path d="M15 6.83333V3.5L12 5.16667V8.5L15 6.83333Z" fill="#909090" fill-opacity="0.9"/>
<path d="M8 6L5 4.5L8 3L11 4.5L8 6Z" fill="#909090" fill-opacity="0.9"/>
<path d="M12 4L9 2.5L12 1L15 2.5L12 4Z" fill="#909090" fill-opacity="0.9"/>
<path d="M4 8L1 6.5L4 5V7V8Z" fill="#909090" fill-opacity="0.9"/>
</svg>
