<svg width="16" height="16" viewBox="0 0 16 16" fill="none" xmlns="http://www.w3.org/2000/svg">
<path d="M5.5 3C5.5 2.5 6 1.5 6.5 1.5C6.5 1.88539 6.69803 2.13875 6.99233 2.3449C7.10787 2.02017 7.38684 1.70439 8 1.5C7.68928 2.12144 7.82911 2.54979 8.0595 2.90503C8.78915 3.27698 9.5 3.78307 9.5 5H7C6 5 6 6 6 6H8C8.09292 6 8.19405 5.99855 8.30199 5.997C9.90274 5.97406 13 5.92968 13 10.2736C13 13 11.8123 14 9.5 14H4C4 14 3.99999 12 6 12H10C10.5 12 11.5 12 11.5149 11H7.5C7.5 10 8.37543 10 8.5 10C9.5 10 9.5 9 8.5 9C5.49999 9 5.23077 9.86125 5 11H4V7.37557C4 3.31839 5.5 3 5.5 3Z" fill="#33A06F"/>
</svg>
