<svg width="16" height="16" viewBox="0 0 16 16" fill="none" xmlns="http://www.w3.org/2000/svg">
<path d="M6.20823 11.0866C6.28686 11.0322 6.38674 11.0185 6.47712 11.0498L13.3143 13.4165C13.6341 13.5272 13.5546 14 13.2162 14H2.96038C2.66627 14 2.5478 13.6208 2.78962 13.4533L6.20823 11.0866Z" fill="#71D168"/>
<path d="M9.74878 10.7109C9.65564 10.6695 9.58989 10.5836 9.5742 10.4829L8.36773 2.73768C8.31578 2.40416 8.76893 2.25224 8.92851 2.54968L14.0076 12.016C14.1427 12.2678 13.8825 12.5481 13.6214 12.432L9.74878 10.7109Z" fill="#ED6161"/>
<path d="M7.97702 7.80101C7.98632 7.90334 7.94261 8.00331 7.86116 8.06596L2.2119 12.4116C1.95213 12.6114 1.60591 12.3095 1.76851 12.0249L6.98322 2.89919C7.12881 2.6444 7.51589 2.72862 7.54246 3.02087L7.97702 7.80101Z" fill="#6895D8"/>
</svg>
