<svg width="16" height="16" viewBox="0 0 16 16" fill="none" xmlns="http://www.w3.org/2000/svg">
<mask id="mask0_1270_147" style="mask-type:alpha" maskUnits="userSpaceOnUse" x="2" y="2" width="12" height="12">
<path d="M4.20001 12.1499L2.20014 10.6499C2.13779 10.6036 2.08719 10.5433 2.05244 10.4738C2.01768 10.4043 1.99975 10.3276 2.00008 10.25V5.74996C1.99975 5.67228 2.01768 5.59561 2.05244 5.52614C2.08719 5.45667 2.13779 5.39634 2.20014 5.35002L4.20001 3.85002C4.14629 3.90047 4.10569 3.96326 4.08174 4.03296C4.05779 4.10266 4.05121 4.17715 4.06257 4.24996V11.7499C4.05121 11.8228 4.05779 11.8972 4.08174 11.967C4.10569 12.0367 4.14629 12.0994 4.20001 12.1499Z" fill="#8A9AAA"/>
<path d="M13.7775 4.08255C13.6951 4.02842 13.5986 3.99973 13.5 4.00005C13.4361 3.99953 13.3727 4.01162 13.3136 4.03563C13.2543 4.05963 13.2005 4.09507 13.155 4.13992L13.1201 4.17498L9.13009 7.99997L6.9225 10.1174L4.88006 12.0749L4.84501 12.11C4.79957 12.1549 4.74569 12.1904 4.68649 12.2144C4.62728 12.2385 4.5639 12.2506 4.5 12.25C4.39183 12.2498 4.28662 12.2147 4.20001 12.1499L2.20013 10.6499C2.30174 10.7262 2.42861 10.761 2.55492 10.747C2.68124 10.7331 2.79748 10.6715 2.88001 10.5749L5.10001 7.99753L6.9225 5.88254L10.1151 2.17492C10.1614 2.12001 10.2192 2.07591 10.2844 2.04569C10.3496 2.01547 10.4206 1.99987 10.4925 1.99999C10.5911 1.99967 10.6876 2.02836 10.77 2.08249L13.7775 4.08255Z" fill="#8A9AAA"/>
<path d="M13.7775 11.9174L10.7775 13.9174C10.6754 13.9841 10.5528 14.0117 10.432 13.9952C10.3113 13.9786 10.2005 13.9191 10.1201 13.8275L6.9225 10.1175L5.10001 7.99755L2.88001 5.42242C2.79675 5.32677 2.68039 5.26614 2.55428 5.25271C2.42818 5.23929 2.30167 5.27407 2.20013 5.35006L4.20001 3.85006C4.28662 3.78526 4.39183 3.75014 4.5 3.74993C4.5639 3.74939 4.62728 3.76149 4.68649 3.78552C4.74569 3.80956 4.79957 3.84506 4.84501 3.88999L4.88006 3.92505L6.9225 5.88256L9.13009 7.99999L13.1201 11.825L13.155 11.86C13.2005 11.9049 13.2543 11.9403 13.3136 11.9643C13.3727 11.9883 13.4361 12.0004 13.5 11.9999C13.5986 12.0002 13.6951 11.9715 13.7775 11.9174Z" fill="#8A9AAA"/>
<path d="M14.0001 4.49991V11.5C14.0001 11.5825 13.9799 11.6638 13.941 11.7366C13.9022 11.8094 13.846 11.8715 13.7775 11.9174L10.7775 13.9174C10.8461 13.8715 10.9022 13.8094 10.9411 13.7365C10.9798 13.6637 11.0001 13.5824 11 13.4999V2.50003C10.9989 2.41689 10.9774 2.3353 10.9373 2.26248C10.8971 2.18965 10.8397 2.12783 10.77 2.08247L13.7775 4.08253C13.8458 4.12862 13.9019 4.19076 13.9407 4.26352C13.9795 4.33629 13.9999 4.41744 14.0001 4.49991Z" fill="#8A9AAA"/>
</mask>
<g mask="url(#mask0_1270_147)">
<path d="M4.20001 12.1499L2.20014 10.6499C2.13779 10.6036 2.08719 10.5432 2.05244 10.4738C2.01768 10.4043 1.99975 10.3276 2.00008 10.25V5.74996C1.99975 5.67228 2.01768 5.59561 2.05244 5.52614C2.08719 5.45667 2.13779 5.39634 2.20014 5.35002L4.20001 3.85002C4.14629 3.90047 4.10569 3.96326 4.08174 4.03296C4.05779 4.10266 4.05121 4.17715 4.06257 4.24996V11.75C4.05121 11.8228 4.05779 11.8973 4.08174 11.967C4.10569 12.0367 4.14629 12.0994 4.20001 12.1499Z" fill="#909090" fill-opacity="0.9"/>
<g filter="url(#filter0_dd_1270_147)">
<path d="M13.7774 4.08255C13.6951 4.02842 13.5986 3.99973 13.5 4.00005C13.4361 3.99953 13.3727 4.01162 13.3135 4.03563C13.2543 4.05963 13.2005 4.09507 13.155 4.13992L13.1201 4.17498L10.9949 6.21254L9.1301 7.99997L6.92247 10.1174L4.88003 12.0749L4.84498 12.11C4.79954 12.1549 4.74566 12.1904 4.68646 12.2144C4.62724 12.2385 4.56387 12.2506 4.49997 12.25C4.3918 12.2498 4.28659 12.2147 4.19998 12.1499L2.2001 10.6499C2.3017 10.7262 2.42858 10.761 2.55489 10.747C2.68121 10.7331 2.79745 10.6715 2.87998 10.5749L4.0001 9.27499L5.09997 7.99754L6.92247 5.88254L10.115 2.17492C10.1614 2.12001 10.2192 2.07591 10.2844 2.04569C10.3496 2.01547 10.4206 1.99987 10.4924 1.99999C10.591 1.99967 10.6875 2.02836 10.77 2.08249L13.7774 4.08255Z" fill="#909090" fill-opacity="0.9"/>
</g>
<g filter="url(#filter1_dd_1270_147)">
<path d="M13.7774 11.9174L10.7774 13.9175C10.6754 13.9841 10.5528 14.0117 10.432 13.9952C10.3112 13.9786 10.2005 13.9191 10.1201 13.8275L6.92247 10.1175L5.09997 7.99756L4.0001 6.72256L2.87998 5.42244C2.79672 5.32677 2.68036 5.26615 2.55425 5.25272C2.42815 5.2393 2.30164 5.27408 2.2001 5.35006L4.19998 3.85006C4.28659 3.78527 4.3918 3.75015 4.49997 3.74994C4.56387 3.7494 4.62724 3.7615 4.68646 3.78554C4.74566 3.80957 4.79954 3.84507 4.84498 3.89L4.88003 3.92506L6.92247 5.88256L9.1301 7.99999L10.9976 9.79007L13.1201 11.825L13.155 11.8601C13.2005 11.9049 13.2543 11.9403 13.3135 11.9643C13.3727 11.9883 13.4361 12.0004 13.5 11.9999C13.5986 12.0002 13.6951 11.9715 13.7774 11.9174Z" fill="#909090" fill-opacity="0.9"/>
</g>
<g filter="url(#filter2_dd_1270_147)">
<path d="M14.0001 4.4999V11.5C14.0001 11.5826 13.9799 11.6638 13.941 11.7366C13.9022 11.8094 13.846 11.8715 13.7775 11.9174L10.7775 13.9174C10.8461 13.8715 10.9022 13.8094 10.941 13.7365C10.9798 13.6637 11.0001 13.5824 11 13.4999V2.50003C10.9989 2.4169 10.9774 2.3353 10.9373 2.26248C10.8971 2.18965 10.8397 2.12783 10.77 2.08247L13.7775 4.08253C13.8458 4.12862 13.9019 4.19076 13.9407 4.26353C13.9795 4.33628 13.9999 4.41745 14.0001 4.4999Z" fill="#909090" fill-opacity="0.9"/>
</g>
</g>
<defs>
<filter id="filter0_dd_1270_147" x="-2.98086" y="-1.88574" width="21.9392" height="20.612" filterUnits="userSpaceOnUse" color-interpolation-filters="sRGB">
<feFlood flood-opacity="0" result="BackgroundImageFix"/>
<feColorMatrix in="SourceAlpha" type="matrix" values="0 0 0 0 0 0 0 0 0 0 0 0 0 0 0 0 0 0 127 0" result="hardAlpha"/>
<feOffset dy="0.246095"/>
<feGaussianBlur stdDeviation="0.246095"/>
<feColorMatrix type="matrix" values="0 0 0 0 0 0 0 0 0 0 0 0 0 0 0 0 0 0 0.24 0"/>
<feBlend mode="normal" in2="BackgroundImageFix" result="effect1_dropShadow_1270_147"/>
<feColorMatrix in="SourceAlpha" type="matrix" values="0 0 0 0 0 0 0 0 0 0 0 0 0 0 0 0 0 0 127 0" result="hardAlpha"/>
<feOffset dy="1.29524"/>
<feGaussianBlur stdDeviation="2.59048"/>
<feColorMatrix type="matrix" values="0 0 0 0 0 0 0 0 0 0 0 0 0 0 0 0 0 0 0.22 0"/>
<feBlend mode="normal" in2="effect1_dropShadow_1270_147" result="effect2_dropShadow_1270_147"/>
<feBlend mode="normal" in="SourceGraphic" in2="effect2_dropShadow_1270_147" result="shape"/>
</filter>
<filter id="filter1_dd_1270_147" x="-2.98086" y="-0.135796" width="21.9392" height="20.6118" filterUnits="userSpaceOnUse" color-interpolation-filters="sRGB">
<feFlood flood-opacity="0" result="BackgroundImageFix"/>
<feColorMatrix in="SourceAlpha" type="matrix" values="0 0 0 0 0 0 0 0 0 0 0 0 0 0 0 0 0 0 127 0" result="hardAlpha"/>
<feOffset dy="0.246095"/>
<feGaussianBlur stdDeviation="0.246095"/>
<feColorMatrix type="matrix" values="0 0 0 0 0 0 0 0 0 0 0 0 0 0 0 0 0 0 0.24 0"/>
<feBlend mode="normal" in2="BackgroundImageFix" result="effect1_dropShadow_1270_147"/>
<feColorMatrix in="SourceAlpha" type="matrix" values="0 0 0 0 0 0 0 0 0 0 0 0 0 0 0 0 0 0 127 0" result="hardAlpha"/>
<feOffset dy="1.29524"/>
<feGaussianBlur stdDeviation="2.59048"/>
<feColorMatrix type="matrix" values="0 0 0 0 0 0 0 0 0 0 0 0 0 0 0 0 0 0 0.22 0"/>
<feBlend mode="normal" in2="effect1_dropShadow_1270_147" result="effect2_dropShadow_1270_147"/>
<feBlend mode="normal" in="SourceGraphic" in2="effect2_dropShadow_1270_147" result="shape"/>
</filter>
<filter id="filter2_dd_1270_147" x="-4.77289" y="-13.4604" width="34.3158" height="42.9207" filterUnits="userSpaceOnUse" color-interpolation-filters="sRGB">
<feFlood flood-opacity="0" result="BackgroundImageFix"/>
<feColorMatrix in="SourceAlpha" type="matrix" values="0 0 0 0 0 0 0 0 0 0 0 0 0 0 0 0 0 0 127 0" result="hardAlpha"/>
<feOffset/>
<feGaussianBlur stdDeviation="0.129524"/>
<feColorMatrix type="matrix" values="0 0 0 0 0 0 0 0 0 0 0 0 0 0 0 0 0 0 0.24 0"/>
<feBlend mode="normal" in2="BackgroundImageFix" result="effect1_dropShadow_1270_147"/>
<feColorMatrix in="SourceAlpha" type="matrix" values="0 0 0 0 0 0 0 0 0 0 0 0 0 0 0 0 0 0 127 0" result="hardAlpha"/>
<feOffset/>
<feGaussianBlur stdDeviation="7.77143"/>
<feColorMatrix type="matrix" values="0 0 0 0 0 0 0 0 0 0 0 0 0 0 0 0 0 0 0.3 0"/>
<feBlend mode="normal" in2="effect1_dropShadow_1270_147" result="effect2_dropShadow_1270_147"/>
<feBlend mode="normal" in="SourceGraphic" in2="effect2_dropShadow_1270_147" result="shape"/>
</filter>
</defs>
</svg>
