<svg id="Calque_1" data-name="Calque 1" xmlns="http://www.w3.org/2000/svg" xmlns:xlink="http://www.w3.org/1999/xlink" viewBox="0 0 16 16"><defs><style>.cls-1{filter:url(#luminosity-noclip);}.cls-2{mask:url(#mask);}.cls-3{fill:#d68012;}</style><filter id="luminosity-noclip" x="2" y="2" width="12" height="12" filterUnits="userSpaceOnUse" color-interpolation-filters="sRGB"><feFlood flood-color="#fff" result="bg"/><feBlend in="SourceGraphic" in2="bg"/></filter><mask id="mask" x="2" y="2" width="12" height="12" maskUnits="userSpaceOnUse"><circle class="cls-1" cx="8" cy="8" r="3.5"/></mask></defs><g class="cls-2"><path class="cls-3" d="M13.91,9,12,9.66l.89,1.79a5.88,5.88,0,0,1-1.45,1.45L9.66,12,9,13.91a5.94,5.94,0,0,1-2.06,0L6.34,12l-1.79.89A5.88,5.88,0,0,1,3.1,11.45L4,9.66,2.09,9A5.94,5.94,0,0,1,2.09,7L4,6.34,3.1,4.55a4.94,4.94,0,0,1,.66-.79,4.94,4.94,0,0,1,.79-.66L6.34,4,7,2.09A5.94,5.94,0,0,1,9,2.09L9.66,4l1.79-.89a4.94,4.94,0,0,1,.79.66,4.94,4.94,0,0,1,.66.79L12,6.34l1.9.63a5.94,5.94,0,0,1,0,2.06Z"/></g><circle class="cls-3" cx="8" cy="8" r="2"/></svg>