<svg id="Calque_1" data-name="Calque 1" xmlns="http://www.w3.org/2000/svg" xmlns:xlink="http://www.w3.org/1999/xlink" viewBox="0 0 16 16"><defs><style>.cls-1{mask:url(#mask);}.cls-2{fill:#29aed2;}.cls-3{filter:url(#luminosity-noclip);}</style><filter id="luminosity-noclip" x="2.56" y="1.95" width="10.95" height="12.23" filterUnits="userSpaceOnUse" color-interpolation-filters="sRGB"><feFlood flood-color="#fff" result="bg"/><feBlend in="SourceGraphic" in2="bg"/></filter><mask id="mask" x="2.56" y="1.95" width="10.95" height="12.23" maskUnits="userSpaceOnUse"><g class="cls-3"><polygon points="12 8.8 10.03 8.8 8.8 8.8 8.8 9.97 8.8 11.94 10.03 11.94 10.03 9.97 12 9.97 12 8.8"/><polygon points="9.94 7.97 9.94 6.5 9.94 6.47 8.8 6.47 7.97 6.47 7.97 4.5 6.47 4.5 6.47 6.47 4.5 6.47 4.5 7.97 6.47 7.97 6.47 8.8 6.47 9.94 6.56 9.94 7.97 9.94 7.97 8.8 7.97 8.47 7.97 7.97 8.53 7.97 8.8 7.97 9.94 7.97"/></g></mask></defs><g class="cls-1"><path class="cls-2" d="M8.71,2.13l4.14,2.39a1.33,1.33,0,0,1,.67,1.15v4.78a1.35,1.35,0,0,1-.67,1.16L8.71,14a1.34,1.34,0,0,1-1.34,0L3.23,11.61a1.35,1.35,0,0,1-.67-1.16V5.67a1.33,1.33,0,0,1,.67-1.15L7.37,2.13A1.34,1.34,0,0,1,8.71,2.13Z"/></g></svg>