<svg width="16" height="16" viewBox="0 0 16 16" fill="none" xmlns="http://www.w3.org/2000/svg">
<path d="M14.4928 10.128L9.77866 14.4491C9.7598 14.4664 9.73152 14.4751 9.71266 14.4664L3.27313 12.8817C3.24485 12.8731 3.22599 12.8557 3.22599 12.8384L1.49119 6.93263C1.48176 6.90665 1.49119 6.88933 1.51004 6.87201L6.22419 2.55091C6.24305 2.53359 6.27133 2.52493 6.29019 2.53359L12.7297 4.11829C12.758 4.12694 12.7769 4.14426 12.7769 4.16158L14.5022 10.0674C14.5211 10.0934 14.5117 10.1107 14.4928 10.128ZM8.17585 5.42587L1.84946 6.97593C1.84003 6.97593 1.83061 6.99324 1.84003 7.0019L6.46933 11.2451C6.47875 11.2537 6.49761 11.2537 6.49761 11.2364L8.1947 5.43453C8.20413 5.43453 8.18528 5.41721 8.17585 5.42587Z" fill="#909090" fill-opacity="0.9"/>
</svg>
