<svg id="Calque_1" data-name="Calque 1" xmlns="http://www.w3.org/2000/svg" viewBox="0 0 16 16"><defs><style>.cls-1{fill:#ba43af;}</style></defs><path class="cls-1" d="M12.85,4.52,8.71,2.13a1.34,1.34,0,0,0-1.34,0L3.23,4.52a1.33,1.33,0,0,0-.67,1.15v4.78a1.35,1.35,0,0,0,.67,1.16L7.37,14a1.34,1.34,0,0,0,1.34,0l4.14-2.39a1.35,1.35,0,0,0,.67-1.16V5.67A1.33,1.33,0,0,0,12.85,4.52ZM11.5,7.33H10.18L9.86,8.72h1.28v1H9.63l-.36,1.58H8l.37-1.58H6.77L6.4,11.29H5.12l.36-1.58h-1v-1H5.71L6,7.33H4.86v-1H6.25l.36-1.58H7.9L7.54,6.35H9.12l.36-1.58h1.29L10.4,6.35h1.1ZM7,8.72H8.57l.32-1.39H7.31Zm.32-1.39L7,8.72H8.57l.32-1.39Zm0,0L7,8.72H8.57l.32-1.39Z"/></svg>