<svg id="Calque_1" data-name="Calque 1" xmlns="http://www.w3.org/2000/svg" xmlns:xlink="http://www.w3.org/1999/xlink" viewBox="0 0 16 16"><defs><style>.cls-1{filter:url(#luminosity-noclip);}.cls-2{mask:url(#mask);}.cls-3{fill:#ba43af;}</style><filter id="luminosity-noclip" x="2.56" y="1.95" width="10.95" height="12.23" filterUnits="userSpaceOnUse" color-interpolation-filters="sRGB"><feFlood flood-color="#fff" result="bg"/><feBlend in="SourceGraphic" in2="bg"/></filter><mask id="mask" x="2.56" y="1.95" width="10.95" height="12.23" maskUnits="userSpaceOnUse"><path class="cls-1" d="M11.14,8.72v1H4.5v-1Zm.36-2.37v1H4.86v-1ZM6.61,4.77H7.9L6.4,11.29H5.12Zm2.87,0h1.29l-1.5,6.52H8Z"/></mask></defs><g class="cls-2"><path class="cls-3" d="M8.71,2.13l4.14,2.39a1.33,1.33,0,0,1,.67,1.15v4.78a1.35,1.35,0,0,1-.67,1.16L8.71,14a1.34,1.34,0,0,1-1.34,0L3.23,11.61a1.35,1.35,0,0,1-.67-1.16V5.67a1.33,1.33,0,0,1,.67-1.15L7.37,2.13A1.34,1.34,0,0,1,8.71,2.13Z"/></g></svg>