<svg width="16" height="16" viewBox="0 0 16 16" fill="none" xmlns="http://www.w3.org/2000/svg">
<path fill-rule="evenodd" clip-rule="evenodd" d="M3 12.5769V3.42308C3 3.14694 3.22386 2.92308 3.5 2.92308H6.38462C7.42523 2.92308 9.10574 3.30701 10.2457 4.54704C10.6336 4.0723 11.2237 3.76923 11.8846 3.76923C13.0529 3.76923 14 4.71632 14 5.88462C14 7.05291 13.0529 8 11.8846 8C11.7397 8 11.5982 7.98543 11.4614 7.95766C11.4615 7.97174 11.4615 7.98585 11.4615 8C11.4615 12.0615 8.07692 13.0769 6.38462 13.0769H3.5C3.22386 13.0769 3 12.8531 3 12.5769ZM5.53846 10.5385V5.46154H6.89231C7.56923 5.46154 8.92308 5.96923 8.92308 8C8.92308 10.0308 7.56923 10.5385 6.89231 10.5385H5.53846Z" fill="#C1293C"/>
</svg>
