<svg width="16" height="16" viewBox="0 0 16 16" fill="none" xmlns="http://www.w3.org/2000/svg">
<path fill-rule="evenodd" clip-rule="evenodd" d="M2 13.5V2.5C2 2.22386 2.22386 2 2.5 2H6C7.22982 2 9.21587 2.45374 10.5631 3.91923C11.0216 3.35817 11.719 3 12.5 3C13.8807 3 15 4.11929 15 5.5C15 6.88071 13.8807 8 12.5 8C12.3287 8 12.1615 7.98277 11.9999 7.94996C12 7.9666 12 7.98328 12 8C12 12.8 8 14 6 14H2.5C2.22386 14 2 13.7761 2 13.5ZM5 11V5H6.6C7.4 5 9 5.6 9 8C9 10.4 7.4 11 6.6 11H5Z" fill="#C1293C"/>
</svg>
