<svg width="16" height="16" viewBox="0 0 16 16" fill="none" xmlns="http://www.w3.org/2000/svg">
<path d="M13.1513 7.01541V11.7354H11.1513L11.0913 11.6654L3.6813 4.23541H10.0713H10.2013H10.2913C10.3836 4.26648 10.4711 4.31023 10.5513 4.36541V4.36541L10.6713 4.46541L13.0813 6.94541L13.1513 7.01541Z" fill="#03589C"/>
<path d="M10.6813 4.56541L10.5613 4.46541C10.4811 4.41023 10.3936 4.36648 10.3013 4.33541H10.2113H10.0813H3.6813L7.2613 2.41541C7.47172 2.30893 7.70562 2.25734 7.94131 2.26541C8.25504 2.28668 8.5502 2.42181 8.77131 2.64541L10.6813 4.56541Z" fill="#41C4FF"/>
<path d="M11.1113 11.7354L7.5713 10.5654L4.3213 11.7354L4.0913 11.5154L4.0213 11.4354C3.90604 11.3241 3.80827 11.196 3.7313 11.0554V11.0554C3.67931 10.877 3.66233 10.6903 3.6813 10.5054V4.22542L11.1113 11.7354Z" fill="#2CB7F6"/>
<path d="M3.8713 11.2254L2.06131 9.43542C1.82525 9.19031 1.68966 8.86561 1.6813 8.52542V8.46542V8.33542V8.25542L1.7613 8.05542L3.6813 4.22542V10.5054C3.67845 10.669 3.70557 10.8316 3.7613 10.9854V10.9854C3.78525 11.0707 3.82236 11.1516 3.8713 11.2254V11.2254Z" fill="#02589B"/>
<path d="M11.1113 11.6954H4.3213L7.5713 10.5654L11.1113 11.6954Z" fill="#2CB7F6"/>
<path d="M11.1113 11.6954V13.7354H6.3613L4.3213 11.6954H11.1113Z" fill="#41C4FF"/>
</svg>
