<svg width="16" height="16" viewBox="0 0 16 16" fill="none" xmlns="http://www.w3.org/2000/svg">
<path d="M10.2782 4.05463C10.024 4.01863 9.76417 4 9.5 4C9.09925 4 8.70852 4.04286 8.33212 4.12425C7.82534 3.73285 7.18986 3.5 6.5 3.5C4.84315 3.5 3.5 4.84315 3.5 6.5C3.5 7.18986 3.73285 7.82534 4.12425 8.33212C4.04286 8.70852 4 9.09925 4 9.5C4 9.76417 4.01863 10.024 4.05463 10.2782C2.81805 9.47623 2 8.08365 2 6.5C2 4.01472 4.01472 2 6.5 2C8.08365 2 9.47623 2.81805 10.2782 4.05463Z" fill="#C84E72"/>
<path d="M9.5 6.5C9.5 8.15685 8.15685 9.5 6.5 9.5C6.15068 9.5 5.81531 9.4403 5.50353 9.33054C5.50119 9.38673 5.5 9.44323 5.5 9.5C5.5 10.0079 5.59466 10.4937 5.76729 10.9406C6.00574 10.9797 6.2505 11 6.5 11C8.98528 11 11 8.98528 11 6.5C11 6.2505 10.9797 6.00574 10.9406 5.76729C10.4937 5.59466 10.0079 5.5 9.5 5.5C9.44323 5.5 9.38673 5.50119 9.33054 5.50353C9.4403 5.81531 9.5 6.15068 9.5 6.5Z" fill="#C84E72"/>
<path d="M7.66788 11.8758C7.29149 11.9571 6.90075 12 6.5 12C6.23583 12 5.97601 11.9814 5.72178 11.9454C6.52377 13.1819 7.91635 14 9.5 14C11.9853 14 14 11.9853 14 9.5C14 7.91635 13.182 6.52377 11.9454 5.72178C11.9814 5.97601 12 6.23583 12 6.5C12 6.90075 11.9571 7.29149 11.8758 7.66788C12.2672 8.17466 12.5 8.81014 12.5 9.5C12.5 11.1569 11.1569 12.5 9.5 12.5C8.81014 12.5 8.17467 12.2671 7.66788 11.8758Z" fill="#6FC278"/>
<path d="M6.66946 10.4965C6.61327 10.4988 6.55677 10.5 6.5 10.5C5.99212 10.5 5.50634 10.4053 5.05935 10.2327C5.02031 9.99426 5 9.7495 5 9.5C5 7.01472 7.01472 5 9.5 5C9.7495 5 9.99426 5.02031 10.2327 5.05935C10.4053 5.50634 10.5 5.99212 10.5 6.5C10.5 6.55677 10.4988 6.61327 10.4965 6.66946C10.1847 6.5597 9.84932 6.5 9.5 6.5C7.84315 6.5 6.5 7.84315 6.5 9.5C6.5 9.84932 6.5597 10.1847 6.66946 10.4965Z" fill="#6FC278"/>
<path d="M10.9832 6.89169C10.9943 6.76261 11 6.63197 11 6.5C11 6.04537 10.9326 5.60649 10.8072 5.1928C10.3935 5.06742 9.95463 5 9.5 5C9.36803 5 9.23739 5.00568 9.10831 5.01681C9.35759 5.45425 9.5 5.96049 9.5 6.5C10.0395 6.5 10.5458 6.64241 10.9832 6.89169Z" fill="#C84E72"/>
<path d="M6.5 9.5C5.96049 9.5 5.45425 9.35759 5.01681 9.10831C5.00568 9.23739 5 9.36803 5 9.5C5 9.95463 5.06742 10.3935 5.1928 10.8072C5.60649 10.9326 6.04537 11 6.5 11C6.63197 11 6.76261 10.9943 6.89169 10.9832C6.64241 10.5458 6.5 10.0395 6.5 9.5Z" fill="#6FC278"/>
</svg>
