<svg id="Calque_1" data-name="Calque 1" xmlns="http://www.w3.org/2000/svg" xmlns:xlink="http://www.w3.org/1999/xlink" viewBox="0 0 16 16"><defs><style>.cls-1{filter:url(#luminosity-noclip);}.cls-2{fill:#2396ec;}.cls-3{mask:url(#mask);}</style><filter id="luminosity-noclip" x="0.94" y="5" width="14.57" height="8.5" filterUnits="userSpaceOnUse" color-interpolation-filters="sRGB"><feFlood flood-color="#fff" result="bg"/><feBlend in="SourceGraphic" in2="bg"/></filter><mask id="mask" x="0.94" y="5" width="14.57" height="8.5" maskUnits="userSpaceOnUse"><circle class="cls-1" cx="4.76" cy="10.25" r="0.75"/></mask></defs><rect class="cls-2" x="7.01" y="4" width="1.5" height="1.5"/><rect class="cls-2" x="5.01" y="4" width="1.5" height="1.5"/><rect class="cls-2" x="5.01" y="6" width="1.5" height="1.5"/><rect class="cls-2" x="7.01" y="6" width="1.5" height="1.5"/><rect class="cls-2" x="9.01" y="6" width="1.5" height="1.5"/><rect class="cls-2" x="3.01" y="6" width="1.5" height="1.5"/><g class="cls-3"><path class="cls-2" d="M1,8H11s1,0,1-.5a2,2,0,0,1,.5-2.5c1,.5,1,2,1,2a2.41,2.41,0,0,1,2,0C15,8.5,13,8.5,13,8.5a8.32,8.32,0,0,1-7.5,5C0,13.49,1,8,1,8Z"/></g></svg>