<svg id="Calque_1" data-name="Calque 1" xmlns="http://www.w3.org/2000/svg" xmlns:xlink="http://www.w3.org/1999/xlink" viewBox="0 0 16 16"><defs><style>.cls-1,.cls-2{fill:#200;}.cls-1{filter:url(#luminosity-noclip);}.cls-2{filter:url(#luminosity-noclip-2);}.cls-3{filter:url(#luminosity-noclip-3);}.cls-4{mask:url(#mask);}.cls-5{fill:#66c65c;}.cls-6{mask:url(#mask-2);}.cls-7{mask:url(#mask-3);}</style><filter id="luminosity-noclip" x="1.5" y="2.5" width="5.5" height="11" filterUnits="userSpaceOnUse" color-interpolation-filters="sRGB"><feFlood flood-color="#fff" result="bg"/><feBlend in="SourceGraphic" in2="bg"/></filter><mask id="mask" x="1.5" y="2.5" width="5.5" height="11" maskUnits="userSpaceOnUse"><path class="cls-1" d="M1.5,11.75a2.75,2.75,0,0,1,5.5,0"/></mask><filter id="luminosity-noclip-2" x="5.5" y="2.5" width="5.5" height="11" filterUnits="userSpaceOnUse" color-interpolation-filters="sRGB"><feFlood flood-color="#fff" result="bg"/><feBlend in="SourceGraphic" in2="bg"/></filter><mask id="mask-2" x="5.5" y="2.5" width="5.5" height="11" maskUnits="userSpaceOnUse"><path class="cls-2" d="M11,5.75a2.75,2.75,0,0,1-5.5,0"/></mask><filter id="luminosity-noclip-3" x="9.5" y="2.5" width="5.5" height="11" filterUnits="userSpaceOnUse" color-interpolation-filters="sRGB"><feFlood flood-color="#fff" result="bg"/><feBlend in="SourceGraphic" in2="bg"/></filter><mask id="mask-3" x="9.5" y="2.5" width="5.5" height="11" maskUnits="userSpaceOnUse"><circle class="cls-3" cx="12.25" cy="8.75" r="2.75"/></mask></defs><g class="cls-4"><rect class="cls-5" x="3.5" y="2.5" width="1.5" height="11" rx="0.75"/></g><g class="cls-6"><rect class="cls-5" x="7.5" y="2.5" width="1.5" height="11" rx="0.75"/></g><g class="cls-7"><rect class="cls-5" x="11.5" y="2.5" width="1.5" height="11" rx="0.75"/></g><circle class="cls-5" cx="4.25" cy="11.75" r="1.75"/><circle class="cls-5" cx="8.25" cy="5.75" r="1.75"/><circle class="cls-5" cx="12.25" cy="8.75" r="1.75"/></svg>