<svg id="Calque_1" data-name="Calque 1" xmlns="http://www.w3.org/2000/svg" viewBox="0 0 16 16"><defs><style>.cls-1{fill:#66c65c;}</style></defs><path class="cls-1" d="M5,9.1V3.25a.75.75,0,0,0-1.5,0V9.1A3.08,3.08,0,0,1,4.25,9,3.08,3.08,0,0,1,5,9.1Z"/><path class="cls-1" d="M7.5,8.4v4.35a.75.75,0,0,0,1.5,0V8.4a2.86,2.86,0,0,1-1.5,0Z"/><path class="cls-1" d="M13,6.1V3.25a.75.75,0,0,0-1.5,0V6.1a2.86,2.86,0,0,1,1.5,0Z"/><path class="cls-1" d="M11.5,11.4v1.35a.75.75,0,0,0,1.5,0V11.4a2.86,2.86,0,0,1-1.5,0Z"/><circle class="cls-1" cx="4.25" cy="11.75" r="1.75"/><path class="cls-1" d="M9,4.17V3.25a.75.75,0,0,0-1.5,0v.92a1.75,1.75,0,1,0,1.5,0Z"/><circle class="cls-1" cx="12.25" cy="8.75" r="1.75"/></svg>