<svg id="Calque_1" data-name="Calque 1" xmlns="http://www.w3.org/2000/svg" xmlns:xlink="http://www.w3.org/1999/xlink" viewBox="0 0 16 16"><defs><style>.cls-1{filter:url(#luminosity-noclip);}.cls-2{mask:url(#mask);}.cls-3{fill:#a90533;}</style><filter id="luminosity-noclip" x="1.45" y="2.45" width="13.09" height="11.09" filterUnits="userSpaceOnUse" color-interpolation-filters="sRGB"><feFlood flood-color="#fff" result="bg"/><feBlend in="SourceGraphic" in2="bg"/></filter><mask id="mask" x="1.45" y="2.45" width="13.09" height="11.09" maskUnits="userSpaceOnUse"><path class="cls-1" d="M8.33,10.53a2.43,2.43,0,0,0,1.94-.87l1.8,1a4.39,4.39,0,0,1-3.78,1.85A4.45,4.45,0,0,1,3.55,8,4.42,4.42,0,0,1,8.12,3.41,4.37,4.37,0,0,1,12.5,8a4.56,4.56,0,0,1-.09.92H5.88A2.29,2.29,0,0,0,8.33,10.53Zm1.94-3.36A2.11,2.11,0,0,0,8.12,5.42,2.16,2.16,0,0,0,5.85,7.17Z"/></mask></defs><g class="cls-2"><path class="cls-3" d="M13.5,2.45a1,1,0,0,1,1.05,1v9a1,1,0,0,1-1.05,1.05H2.5a1,1,0,0,1-1-1.05V3.55a1,1,0,0,1,1.05-1Z"/></g></svg>