<svg width="16" height="16" viewBox="0 0 16 16" fill="none" xmlns="http://www.w3.org/2000/svg">
<path d="M6.52 4.33C7.20374 5.44002 8.18389 6.33705 9.35 6.92C9.93067 7.16314 10.4285 7.5692 10.7834 8.08914C11.1383 8.60908 11.3351 9.22065 11.35 9.85C11.35 10.6921 11.0155 11.4996 10.4201 12.0951C9.82464 12.6905 9.01706 13.025 8.175 13.025C7.33294 13.025 6.52536 12.6905 5.92994 12.0951C5.33451 11.4996 5 10.6921 5 9.85V9.7C4.99439 7.80306 5.52101 5.94258 6.52 4.33ZM6.79 2C3.56 6.62 4 9.85 4 9.85C4.05235 10.9167 4.51295 11.9224 5.28643 12.6589C6.05991 13.3953 7.087 13.8061 8.155 13.8061C9.223 13.8061 10.2501 13.3953 11.0236 12.6589C11.797 11.9224 12.2577 10.9167 12.31 9.85C12.2969 9.03438 12.0521 8.23931 11.6041 7.5576C11.1561 6.87589 10.5235 6.33567 9.78 6C8.98519 5.63754 8.29405 5.0814 7.76992 4.38256C7.24579 3.68371 6.90542 2.86451 6.78 2H6.79Z" fill="#AE5EDB"/>
<path d="M6.23 7.73001C6.06551 8.32573 5.98805 8.94211 6 9.56001V9.70001V9.85001C6.0013 10.1345 6.0588 10.416 6.16919 10.6782C6.27958 10.9404 6.44068 11.1782 6.64324 11.378C6.84581 11.5778 7.08585 11.7356 7.34957 11.8423C7.61329 11.9491 7.89551 12.0026 8.18 12C8.57747 11.9986 8.96669 11.8865 9.30405 11.6763C9.6414 11.4662 9.91355 11.1662 10.09 10.81C8.72772 9.88186 7.43739 8.85227 6.23 7.73001Z" fill="#AE5EDB"/>
</svg>
