<svg width="16" height="16" viewBox="0 0 16 16" fill="none" xmlns="http://www.w3.org/2000/svg">
<path d="M5.99996 14C7.10396 14 7.99996 13.104 7.99996 12V10H5.99996C4.89596 10 3.99996 10.896 3.99996 12C3.99996 13.104 4.89596 14 5.99996 14Z" fill="#0ACF83"/>
<path d="M3.99996 8C3.99996 6.896 4.89596 6 5.99996 6H7.99996V10H5.99996C4.89596 10 3.99996 9.104 3.99996 8Z" fill="#A259FF"/>
<path d="M4 4C4 2.896 4.896 2 6 2H8V6H6C4.896 6 4 5.104 4 4Z" fill="#F24E1E"/>
<path d="M7.99996 2H9.99996C11.104 2 12 2.896 12 4C12 5.104 11.104 6 9.99996 6H7.99996V2Z" fill="#FF7262"/>
<path d="M12 8C12 9.104 11.104 10 9.99996 10C8.89596 10 7.99996 9.104 7.99996 8C7.99996 6.896 8.89596 6 9.99996 6C11.104 6 12 6.896 12 8Z" fill="#1ABCFE"/>
</svg>
