<svg width="16" height="16" viewBox="0 0 16 16" fill="none" xmlns="http://www.w3.org/2000/svg">
<g clip-path="url(#clip0_802_56)">
<path d="M6.36 6L3.1 11.59L2.33 10.28L3.24 8.69H1.42L1 8L1.42 7.31H4L4.76 6H6.36ZM7.09 10.41H13.53L12.76 11.72H10.94L11.85 13.31L11.43 14H10.66L9.4 11.72H7.9L7.09 10.41ZM10.56 7.54L7.3 2H8.84L9.75 3.59L10.66 2H11.43L11.85 2.69L10.52 4.9L11.37 6.21L10.56 7.54Z" fill="#909090" fill-opacity="0.9"/>
<path d="M8.87999 5.59H2.39999L3.16999 4.28H4.98999L4.07999 2.69L4.49999 2H5.26999L6.59999 4.21H8.09999L8.87999 5.59Z" fill="#909090" fill-opacity="0.9"/>
<path d="M9.64001 10L12.9 4.41L13.67 5.72L12.76 7.31H14.58L15 8L14.58 8.69H11.99L11.24 10H9.64001Z" fill="#909090" fill-opacity="0.9"/>
<path d="M5.45999 8.57001L8.69999 13.93H7.15999L6.24999 12.35L5.47999 13.93H4.56999L4.14999 13.24L5.47999 11.04L4.72999 9.87001L5.45999 8.57001Z" fill="#909090" fill-opacity="0.9"/>
</g>
<defs>
<clipPath id="clip0_802_56">
<rect width="14" height="12" fill="white" transform="translate(1 2)"/>
</clipPath>
</defs>
</svg>
