<svg id="Calque_1" data-name="Calque 1" xmlns="http://www.w3.org/2000/svg" viewBox="0 0 16 16"><defs><style>.cls-1{opacity:0.45;}.cls-2{fill:#fff;}</style></defs><g class="cls-1"><path class="cls-2" d="M6.35,4l0,0,.43.84A2,2,0,0,0,8.65,6H14a0,0,0,0,1,.05,0V12A0,0,0,0,1,14,12H2.05A0,0,0,0,1,2,12V4.05a0,0,0,0,1,0,0h4.3m0-1H2.05a1,1,0,0,0-1,1V12a1,1,0,0,0,1,1.05H14A1,1,0,0,0,15,12V6.05A1,1,0,0,0,14,5H8.65a1,1,0,0,1-.94-.58l-.42-.84A1,1,0,0,0,6.35,3Z"/></g><g class="cls-1"><rect class="cls-2" x="2.5" y="9" width="11" height="2.5"/><path class="cls-2" d="M13,9.5V11H3V9.5H13m1-1H2V12H14V8.5Z"/></g></svg>