<svg width="16" height="16" viewBox="0 0 16 16" fill="none" xmlns="http://www.w3.org/2000/svg">
<path opacity="0.8" d="M13.2509 6.0125L13.25 6.03124V6.05V12C13.25 12.0663 13.2237 12.1299 13.1768 12.1768C13.1299 12.2237 13.0663 12.25 13 12.25H3.05H3.03124L3.0125 12.2509C2.97863 12.2526 2.94478 12.2474 2.91299 12.2356C2.8812 12.2238 2.85214 12.2057 2.82759 12.1823C2.80303 12.1589 2.78349 12.1308 2.77015 12.0996C2.75681 12.0684 2.74996 12.0349 2.75 12.0009V12V4.05C2.75 3.9837 2.77634 3.92011 2.82322 3.87323C2.87011 3.82634 2.9337 3.8 3 3.8H6.3H6.31209L6.32418 3.79961C6.37326 3.79803 6.42172 3.81094 6.46351 3.83673C6.50531 3.86251 6.53858 3.90004 6.55918 3.94461L6.56402 3.95509L6.56918 3.96541L6.98918 4.80541L6.99244 4.81194L6.99583 4.8184C7.15859 5.12867 7.41072 5.38293 7.7196 5.5483C8.01533 5.70661 8.35004 5.77646 8.6838 5.75L13 5.75L13.0009 5.75C13.0348 5.74996 13.0684 5.75682 13.0996 5.77016C13.1308 5.78349 13.1589 5.80303 13.1823 5.82759C13.2057 5.85214 13.2238 5.8812 13.2356 5.91299C13.2474 5.94478 13.2526 5.97864 13.2509 6.0125Z" stroke="black" stroke-opacity="0.5" stroke-width="1.5"/>
</svg>
