<svg id="Calque_1" data-name="Calque 1" xmlns="http://www.w3.org/2000/svg" xmlns:xlink="http://www.w3.org/1999/xlink" viewBox="0 0 16 16"><defs><style>.cls-1{mask:url(#mask);}.cls-2{opacity:0.45;}.cls-3{filter:url(#luminosity-noclip);}</style><filter id="luminosity-noclip" x="1" y="-8284" width="14" height="32766" filterUnits="userSpaceOnUse" color-interpolation-filters="sRGB"><feFlood flood-color="#fff" result="bg"/><feBlend in="SourceGraphic" in2="bg"/></filter><mask id="mask" x="1" y="-8284" width="14" height="32766" maskUnits="userSpaceOnUse"><g class="cls-3"/></mask></defs><g class="cls-1"><g class="cls-2"><path d="M2,12.5A.54.54,0,0,1,1.5,12V4.05A.54.54,0,0,1,2,3.5H6.35a.55.55,0,0,1,.49.3l.42.85a1.56,1.56,0,0,0,1.39.85H14a.55.55,0,0,1,.55.55V12a.54.54,0,0,1-.54.55Z"/><path d="M6.35,4l0,0,.43.84A2,2,0,0,0,8.65,6H14a0,0,0,0,1,.05,0V12A0,0,0,0,1,14,12H2.05A0,0,0,0,1,2,12V4.05a0,0,0,0,1,0,0h4.3m0-1H2.05a1,1,0,0,0-1,1V12a1,1,0,0,0,1,1.05H14A1,1,0,0,0,15,12V6.05A1,1,0,0,0,14,5H8.65a1,1,0,0,1-.94-.58l-.42-.84A1,1,0,0,0,6.35,3Z"/></g></g></svg>