<svg id="Calque_1" data-name="Calque 1" xmlns="http://www.w3.org/2000/svg" viewBox="0 0 16 16"><defs><style>.cls-1{fill:#e37c00;}</style></defs><path class="cls-1" d="M5.43,3.53H6.49l2.22,8.9H7l-1.3-6-2.26,6H1.76Zm-1.86,6H7.44L7.32,11H3.45Z"/><path class="cls-1" d="M9.28,12a1.86,1.86,0,0,1-.34-1.42,2,2,0,0,1,.68-1.47,2.53,2.53,0,0,1,1.69-.5h1.18V9.91H11.23a.88.88,0,0,0-.57.17.76.76,0,0,0-.24.54.5.5,0,0,0,.16.44.94.94,0,0,0,.58.15,1.85,1.85,0,0,0,.83-.16.59.59,0,0,0,.31-.49l0,.78a1.09,1.09,0,0,1-.3.65,1.58,1.58,0,0,1-.63.4,2.38,2.38,0,0,1-.81.14A1.64,1.64,0,0,1,9.28,12Zm3.21-3.83a.64.64,0,0,0-.19-.57,1,1,0,0,0-.66-.2,1.46,1.46,0,0,0-1.05.47L9.46,7.25a2.2,2.2,0,0,1,.9-.94A3,3,0,0,1,11.78,6a2.69,2.69,0,0,1,1.27.26A1.6,1.6,0,0,1,13.8,7,2.25,2.25,0,0,1,14,8.18l-.35,4.25H12.15Z"/></svg>