<svg id="Calque_1" data-name="Calque 1" xmlns="http://www.w3.org/2000/svg" viewBox="0 0 16 16"><defs><style>.cls-1{fill:#e37c00;}</style></defs><path class="cls-1" d="M5.43,3.53l-3.67,8.9h1.7L4,11H6.71L7,12.43H8.71L6.49,3.53Zm-.85,6,1.14-3,.66,3Z"/><path class="cls-1" d="M13.8,7a1.6,1.6,0,0,0-.75-.75A2.69,2.69,0,0,0,11.78,6a3,3,0,0,0-1.42.33,2.2,2.2,0,0,0-.9.94l1.13.66a1.46,1.46,0,0,1,1.05-.47,1,1,0,0,1,.66.2.64.64,0,0,1,.19.57l0,.44H11.31a2.53,2.53,0,0,0-1.69.5,2,2,0,0,0-.68,1.47A1.86,1.86,0,0,0,9.28,12a1.64,1.64,0,0,0,1.33.49,2.38,2.38,0,0,0,.81-.14,1.58,1.58,0,0,0,.63-.4,1.14,1.14,0,0,0,.15-.23l0,.67h1.49L14,8.18A2.25,2.25,0,0,0,13.8,7Zm-1.5,3.57a.59.59,0,0,1-.31.49,1.85,1.85,0,0,1-.83.16.94.94,0,0,1-.58-.15.5.5,0,0,1-.16-.44.76.76,0,0,1,.24-.54.88.88,0,0,1,.57-.17h1.12l0,.65Z"/></svg>