<svg width="16" height="16" viewBox="0 0 16 16" fill="none" xmlns="http://www.w3.org/2000/svg">
<path fill-rule="evenodd" clip-rule="evenodd" d="M13 3H3V13H13V3ZM3 2C2.44772 2 2 2.53726 2 3.2V12.8C2 13.4627 2.44772 14 3 14H13C13.5523 14 14 13.4627 14 12.8V3.2C14 2.53726 13.5523 2 13 2H3Z" fill="#58C792"/>
<path fill-rule="evenodd" clip-rule="evenodd" d="M5.5 3H6.5V4.79289L7.5 5.79289V8H6.5V6.20711L5.5 5.20711V3Z" fill="#58C792"/>
<path d="M8 8C8 8.55228 7.55228 9 7 9C6.44772 9 6 8.55228 6 8C6 7.44772 6.44772 7 7 7C7.55228 7 8 7.44772 8 8Z" fill="#58C792"/>
<path d="M6 11C6 11.5523 5.55228 12 5 12C4.44772 12 4 11.5523 4 11C4 10.4477 4.44772 10 5 10C5.55228 10 6 10.4477 6 11Z" fill="#58C792"/>
<path d="M11 11C11 11.5523 10.5523 12 10 12C9.44772 12 9 11.5523 9 11C9 10.4477 9.44772 10 10 10C10.5523 10 11 10.4477 11 11Z" fill="#58C792"/>
<path fill-rule="evenodd" clip-rule="evenodd" d="M10.7929 4.5H13V5.5H11.2071L10.5 6.20711V11H9.5V5.79289L10.7929 4.5ZM5.5 11.5H3V10.5H5.5V11.5Z" fill="#58C792"/>
</svg>
