<svg id="Calque_1" data-name="Calque 1" xmlns="http://www.w3.org/2000/svg" xmlns:xlink="http://www.w3.org/1999/xlink" viewBox="0 0 16 16"><defs><style>.cls-1{mask:url(#mask);}.cls-2{fill:#f4791c;}.cls-3{filter:url(#luminosity-noclip);}</style><filter id="luminosity-noclip" x="3.2" y="1.99" width="9.3" height="12.49" filterUnits="userSpaceOnUse" color-interpolation-filters="sRGB"><feFlood flood-color="#fff" result="bg"/><feBlend in="SourceGraphic" in2="bg"/></filter><mask id="mask" x="3.2" y="1.99" width="9.3" height="12.49" maskUnits="userSpaceOnUse"><g class="cls-3"><path d="M5.08,6.5c-.92.37.33,1.85,1.07,1.71.23,0,.59-.26.57.27C8.19,7.81,6.22,6.8,5.08,6.5Z"/><path d="M8.87,8.48c0-.53.34-.26.56-.27.75.14,2-1.34,1.07-1.71C9.36,6.8,7.4,7.81,8.87,8.48Z"/><path d="M5.76,12a.28.28,0,0,1,.12,0,9.71,9.71,0,0,1,3.76,0,.45.45,0,0,1,.25.12.43.43,0,0,1,0,.37,1.88,1.88,0,0,1-.32.63,2.16,2.16,0,0,1-.74.7A2.23,2.23,0,0,1,7.52,14a2.54,2.54,0,0,1-1.22-.47,1.54,1.54,0,0,1-.61-1.39.35.35,0,0,1,0-.13Z"/><path d="M3.9,10.63a1.13,1.13,0,0,0-.08.19,1.56,1.56,0,0,0,1.33,1.76c.13,0,0-.46.09-.58.24-.61.31-.6-.48-.67A1.23,1.23,0,0,1,4,10.8,1.53,1.53,0,0,1,3.9,10.63Z"/><path d="M11.72,10.8a1.18,1.18,0,0,1-.76.53c-.79.07-.45.06-.22.67,0,.12-.29.57-.17.58a1.56,1.56,0,0,0,1.34-1.76l-.09-.19A1.53,1.53,0,0,1,11.72,10.8Z"/></g></mask></defs><g class="cls-1"><path class="cls-2" d="M11.85,9.89c-.31,0-.27.72-.66.81C10,8.81,13.17,8.43,12.37,7a1.15,1.15,0,0,1-.2-1.59c.58-.9-.58-.91-.77-1.51,1.94-1.67-.56-1.88-1.84-.69-.65.78-.43-.32-.37-.66C7.63,3.23,9,1,7.55,2.6c-.3.43-.38-1.15-1,.62-.51.21-2.09-1.63-3-.38-.17.49,1.5.73.56,1.38-1.51.45.25,1.58-.48,2.47a1.15,1.15,0,0,0-.43.83.92.92,0,0,0,.39.59c.4.34.94.55,1.07,1.11a3.14,3.14,0,0,1,0,.75c0,.16,0,.87-.33.6a.9.9,0,0,1-.18-.35C4.08,10,4,9.69,3.76,10c-1.45,2.64,3.14,5.33,5.43,4.26C10.73,13.66,13.4,11.66,11.85,9.89ZM5.3,13s0,.05,0,.07S5.27,13.05,5.3,13Z"/></g><path class="cls-2" d="M6.4,12.3l0,0a1.34,1.34,0,0,1,.66,0l.1,0s0,.12,0,.18a.87.87,0,0,1-.11.32.42.42,0,0,1-.27.2.43.43,0,0,1-.42-.26.61.61,0,0,1-.06-.4S6.38,12.32,6.4,12.3Z"/><path class="cls-2" d="M8.27,12.31a.25.25,0,0,1,.18-.1,1.75,1.75,0,0,1,.56.06c.05,0,.1,0,.11.08a.11.11,0,0,1,0,.08,1.21,1.21,0,0,1-.09.34.37.37,0,0,1-.26.23.36.36,0,0,1-.37-.13A.54.54,0,0,1,8.27,12.31Z"/></svg>