<svg id="Calque_1" data-name="Calque 1" xmlns="http://www.w3.org/2000/svg" xmlns:xlink="http://www.w3.org/1999/xlink" viewBox="0 0 16 16"><defs><style>.cls-1{stroke:#000;stroke-miterlimit:10;stroke-width:0.5px;}.cls-2{mask:url(#mask);}.cls-3{fill:#e34e48;}.cls-4{filter:url(#luminosity-noclip);}</style><filter id="luminosity-noclip" x="3.5" y="1.06" width="9" height="12.94" filterUnits="userSpaceOnUse" color-interpolation-filters="sRGB"><feFlood flood-color="#fff" result="bg"/><feBlend in="SourceGraphic" in2="bg"/></filter><mask id="mask" x="3.5" y="1.06" width="9" height="12.94" maskUnits="userSpaceOnUse"><g class="cls-4"><polygon points="6.83 5.5 9.46 1.56 8.46 1.06 5.5 5.5 6.83 5.5"/><path class="cls-1" d="M8.48,12.5H8.41a.25.25,0,0,1-.17-.31l.39-1.39a2.66,2.66,0,0,1-1.07.7A1.06,1.06,0,0,1,6.27,11c-.54-.89-.31-2.61,1-3.95.67-.67,1.26-1,1.76-.88a.88.88,0,0,1,.64.45A.25.25,0,0,1,9.59,7a.24.24,0,0,1-.33-.1A.41.41,0,0,0,9,6.68c-.19,0-.6,0-1.32.75a3,3,0,0,0-1,3.32.55.55,0,0,0,.7.26A3.41,3.41,0,0,0,9.21,8.78l0-.1a.24.24,0,0,1,.3-.17.25.25,0,0,1,.18.3s0,.06,0,.14l-1,3.37A.25.25,0,0,1,8.48,12.5Z"/></g></mask></defs><g class="cls-2"><ellipse class="cls-3" cx="8" cy="5" rx="4.5" ry="1"/><ellipse class="cls-3" cx="8" cy="11" rx="3.5" ry="0.78"/><polyline class="cls-3" points="12.5 5 11.5 11 4.5 11 3.5 5"/><ellipse class="cls-3" cx="8" cy="9.16" rx="2.99" ry="0.66"/><ellipse class="cls-3" cx="8" cy="13.48" rx="2.33" ry="0.52"/><polyline class="cls-3" points="10.99 9.16 10.33 13.48 5.67 13.48 5.01 9.16"/><polyline class="cls-3" points="7.5 4.5 9.5 1.5 11.5 1.5 11.5 2.5 10 2.5 8.5 5"/></g></svg>