<svg width="16" height="16" viewBox="0 0 16 16" fill="none" xmlns="http://www.w3.org/2000/svg">
<path fill-rule="evenodd" clip-rule="evenodd" d="M7.49478 5.18326C7.66885 5.28104 7.88051 5.45419 8 5.61414V5.57414C8.11949 5.4142 8.27115 5.28104 8.44522 5.18326C8.61929 5.08547 8.8119 5.02522 9.01066 5.00638C9.20942 4.98754 9.40993 5.01053 9.59927 5.07387C9.78861 5.13721 9.96258 5.23949 10.11 5.37414C10.3468 5.58783 10.5736 5.86488 10.8077 6.15089C11.3843 6.85535 12.0054 7.61414 12.93 7.61414C13.0913 7.58887 13.2425 7.51973 13.3671 7.41429C13.4917 7.30885 13.5849 7.17117 13.6365 7.01632C13.6881 6.86146 13.6962 6.69539 13.6598 6.53627C13.6233 6.37715 13.5438 6.23112 13.43 6.11414C14.43 6.11414 15 7.61414 13.93 8.61414C12.8839 9.5918 11.219 9.68548 9.93 9.11414C9.1636 8.80143 8.49652 8.28643 8 7.62414V7.61414C7.49417 8.27132 6.76542 8.79495 6 9.11414C4.68985 9.69486 3.08243 9.69657 2 8.61414C1.21 7.82414 1.5 6.11414 2.5 6.11414C2.38615 6.23112 2.30667 6.37715 2.27024 6.53627C2.23382 6.69539 2.24185 6.86146 2.29347 7.01632C2.34509 7.17117 2.4383 7.30885 2.56292 7.41429C2.68753 7.51973 2.83873 7.58887 3 7.61414C3.92739 7.61414 4.54406 6.86239 5.11964 6.16072C5.35711 5.87123 5.58758 5.59027 5.83 5.37414C5.97742 5.23949 6.15139 5.13721 6.34073 5.07387C6.53007 5.01053 6.73058 4.98754 6.92934 5.00638C7.1281 5.02522 7.32071 5.08547 7.49478 5.18326Z" fill="#F0772B"/>
<path d="M7.5 7.61414C7.5 7.33799 7.72386 7.11414 8 7.11414V7.11414C8.27614 7.11414 8.5 7.33799 8.5 7.61414V12.5C8.5 12.7761 8.27614 13 8 13V13C7.72386 13 7.5 12.7761 7.5 12.5V7.61414Z" fill="#F0772B"/>
</svg>
