<svg width="16" height="16" viewBox="0 0 16 16" fill="none" xmlns="http://www.w3.org/2000/svg">
<path fill-rule="evenodd" clip-rule="evenodd" d="M8 3.5C6.63396 3.5 6.20095 3.7448 6.0637 4.30279C4.26384 4.93769 3 6.64453 3 10.1036C3 10.4616 3.02055 10.7573 3.0606 11H2.5V12C2.5 12.5523 4.68629 13 8 13C11.3137 13 13.5 12.5523 13.5 12L13.5 11H12.9132C12.97 10.7573 13 10.4616 13 10.1036C13 6.64453 11.7362 4.93769 9.9363 4.30279C9.79905 3.7448 9.36604 3.5 8 3.5ZM6.25 7.33333L8 5L9.75 7.33333L8 9.08333L6.25 7.33333ZM8 10.25L6.25 8.5L8 12L9.75 8.5L8 10.25Z" fill="#EEA230"/>
</svg>
