<svg width="16" height="16" viewBox="0 0 16 16" fill="none" xmlns="http://www.w3.org/2000/svg">
<path fill-rule="evenodd" clip-rule="evenodd" d="M4 3H9.11C9.23874 2.99851 9.36642 3.02348 9.48511 3.07337C9.6038 3.12325 9.71098 3.19699 9.8 3.29C10.49 4 12 5.53 12.71 6.21C12.8947 6.39626 12.9989 6.64766 13 6.91V12C13 12.2652 12.8946 12.5196 12.7071 12.7071C12.5196 12.8946 12.2652 13 12 13H4C3.73478 13 3.48043 12.8946 3.29289 12.7071C3.10536 12.5196 3 12.2652 3 12V4C3 3.73479 3.10536 3.48043 3.29289 3.2929C3.48043 3.10536 3.73478 3 4 3ZM8.18891 4.54348C8.12665 4.36437 7.87335 4.36437 7.81109 4.54348L7.10524 6.57412C7.07777 6.65313 7.00403 6.7067 6.9204 6.70841L4.77103 6.75221C4.58144 6.75607 4.50317 6.99698 4.65427 7.11154L6.36741 8.41035C6.43407 8.46088 6.46223 8.54757 6.43801 8.62764L5.81547 10.6853C5.76056 10.8668 5.96549 11.0157 6.12114 10.9074L7.88576 9.67949C7.95443 9.63171 8.04557 9.63171 8.11424 9.67949L9.87886 10.9074C10.0345 11.0157 10.2394 10.8668 10.1845 10.6853L9.56199 8.62764C9.53777 8.54757 9.56593 8.46088 9.63259 8.41035L11.3457 7.11154C11.4968 6.99698 11.4186 6.75607 11.229 6.75221L9.0796 6.70841C8.99597 6.7067 8.92223 6.65313 8.89476 6.57412L8.18891 4.54348Z" fill="#3ADECA"/>
</svg>
