<svg id="Calque_1" data-name="Calque 1" xmlns="http://www.w3.org/2000/svg" xmlns:xlink="http://www.w3.org/1999/xlink" viewBox="0 0 16 16"><defs><style>.cls-1{mask:url(#mask);}.cls-2{fill:#e18159;}.cls-3{filter:url(#luminosity-noclip);}</style><filter id="luminosity-noclip" x="3.03" y="2" width="9.97" height="12" filterUnits="userSpaceOnUse" color-interpolation-filters="sRGB"><feFlood flood-color="#fff" result="bg"/><feBlend in="SourceGraphic" in2="bg"/></filter><mask id="mask" x="3.03" y="2" width="9.97" height="12" maskUnits="userSpaceOnUse"><g class="cls-3"><polygon points="4 12.88 6.91 9.13 10.18 12.88 4 12.88"/><polygon points="8.36 12.88 10.18 10.83 12 12.88 8.36 12.88"/><circle cx="6.25" cy="5.25" r="1.75"/></g></mask></defs><g class="cls-1"><path class="cls-2" d="M12.71,5.21C12,4.53,10.49,3,9.8,2.29A.94.94,0,0,0,9.11,2H4A1,1,0,0,0,3,3V13a1,1,0,0,0,1,1h8a1,1,0,0,0,1-1V5.91A1,1,0,0,0,12.71,5.21Z"/></g></svg>