<svg id="Calque_1" data-name="Calque 1" xmlns="http://www.w3.org/2000/svg" xmlns:xlink="http://www.w3.org/1999/xlink" viewBox="0 0 16 16"><defs><style>.cls-1{mask:url(#mask);}.cls-2{fill:url(#Dégradé_sans_nom_23);}.cls-3{filter:url(#luminosity-noclip);}</style><filter id="luminosity-noclip" x="1.45" y="2.5" width="13.09" height="11.09" filterUnits="userSpaceOnUse" color-interpolation-filters="sRGB"><feFlood flood-color="#fff" result="bg"/><feBlend in="SourceGraphic" in2="bg"/></filter><mask id="mask" x="1.45" y="2.5" width="13.09" height="11.09" maskUnits="userSpaceOnUse"><g class="cls-3"><polygon points="2.5 12.54 6.5 7.04 11 12.54 2.5 12.54"/><polygon points="8.5 12.54 11 9.54 13.5 12.54 8.5 12.54"/><circle cx="11.25" cy="5.8" r="2.25"/></g></mask><linearGradient id="Dégradé_sans_nom_23" x1="8" y1="2.04" x2="8" y2="11.71" gradientUnits="userSpaceOnUse"><stop offset="0" stop-color="#e69230"/><stop offset="1" stop-color="#dc7181"/></linearGradient></defs><g class="cls-1"><path class="cls-2" d="M13.5,2.5a1,1,0,0,1,1.05,1v9a1,1,0,0,1-1.05,1H2.5a1,1,0,0,1-1-1v-9a1,1,0,0,1,1.05-1Z"/></g></svg>