<svg id="Calque_1" data-name="Calque 1" xmlns="http://www.w3.org/2000/svg" viewBox="0 0 16 16"><defs><style>.cls-1{fill:#d42c2c;}</style></defs><path class="cls-1" d="M11.88,7H2.5V9.5a4.5,4.5,0,0,0,8.53,2h.85a2.24,2.24,0,0,0,0-4.48Zm0,3.49h-.5V8h.5a1.25,1.25,0,0,1,0,2.5Z"/><path class="cls-1" d="M5,6.5v-1A.47.47,0,0,1,4.5,5c0-.28.11-.4.35-.65A1.74,1.74,0,0,0,5.5,3h-1c0,.28-.11.4-.35.65A1.74,1.74,0,0,0,3.5,5,1.46,1.46,0,0,0,5,6.5Z"/><path class="cls-1" d="M10,6.5v-1A.47.47,0,0,1,9.5,5c0-.28.11-.4.35-.65A1.74,1.74,0,0,0,10.5,3h-1c0,.28-.11.4-.35.65A1.74,1.74,0,0,0,8.5,5,1.46,1.46,0,0,0,10,6.5Z"/><path class="cls-1" d="M6,5A1.46,1.46,0,0,0,7.5,6.5v-1A.47.47,0,0,1,7,5c0-.28.11-.4.35-.65A1.74,1.74,0,0,0,8,3,1.46,1.46,0,0,0,6.5,1.5v1A.47.47,0,0,1,7,3c0,.28-.11.4-.35.65A1.74,1.74,0,0,0,6,5Z"/></svg>