<svg id="Calque_1" data-name="Calque 1" xmlns="http://www.w3.org/2000/svg" viewBox="0 0 16 16"><defs><style>.cls-1{fill:#d42c2c;}.cls-2{fill:none;stroke:#d42c2c;stroke-miterlimit:10;}</style></defs><path class="cls-1" d="M11.39,10.5a4.26,4.26,0,0,1-.36,1,4.5,4.5,0,0,1-8.53-2h8.88v1Z"/><path class="cls-1" d="M14,9.25a2.24,2.24,0,0,1-2.12,2.24h-.13v-1h.13a1.25,1.25,0,0,0,0-2.5h-.13V7h.13A2.24,2.24,0,0,1,14,9.25Z"/><polygon class="cls-1" points="11.5 7 11.5 8 11.38 8 11.38 9.5 2.5 9.5 2.5 7 11.5 7"/><rect class="cls-1" x="10.5" y="10.5" width="1.38" height="1"/><rect class="cls-1" x="11" y="7" width="0.88" height="1"/><path class="cls-2" d="M5,6A1,1,0,0,1,4,5C4,4,5,4,5,3"/><path class="cls-2" d="M10,6A1,1,0,0,1,9,5c0-1,1-1,1-2"/><path class="cls-2" d="M7.5,6a1,1,0,0,1-1-1c0-1,1-1,1-2a1,1,0,0,0-1-1"/></svg>