<svg width="16" height="16" viewBox="0 0 16 16" fill="none" xmlns="http://www.w3.org/2000/svg">
<path fill-rule="evenodd" clip-rule="evenodd" d="M2 3.5V4.5C2.76151 4.60879 3.60824 4.67497 4.5 4.69546V6.16299C3.96624 6.12974 3.45964 6.07661 3 6V7C3.38626 7.09657 3.90307 7.17448 4.5 7.23014V10.5H3.5V9H2.5V13H3.5V11.5H4.5V13L5.5 13.008V11.508L7 11.477V12.977L8 13V11.5L9.5 11.477V12.977L10.5 13V11.5H11.5V13H12.5V9H11.5V10.5H10.5V6.9711C11.0969 6.84896 11.6137 6.69313 12 6.5V5.5C11.6592 5.61361 11.1377 5.72721 10.5 5.82909V4.04558C11.6031 3.78187 12.6293 3.43536 13.5 3V2C10 3.5 5 4 2 3.5ZM9.5 10.477V7.17207C8.37015 7.29042 6.62985 7.357 5.5 7.32554V10.508L7 10.477V8.97697L8 9V10.5L9.5 10.477ZM9.5 4.32406C8.34933 4.51496 6.65681 4.65745 5.5 4.69546V6.2151C6.6865 6.21561 8.41368 6.11223 9.5 6V4.32406Z" fill="#DC3E3E"/>
</svg>
