<svg id="Calque_1" data-name="Calque 1" xmlns="http://www.w3.org/2000/svg" xmlns:xlink="http://www.w3.org/1999/xlink" viewBox="0 0 16 16"><defs><style>.cls-1{mask:url(#mask);}.cls-2{fill:#fbb03b;}.cls-3{filter:url(#luminosity-noclip);}</style><filter id="luminosity-noclip" x="1.45" y="2.45" width="13.09" height="11.09" filterUnits="userSpaceOnUse" color-interpolation-filters="sRGB"><feFlood flood-color="#fff" result="bg"/><feBlend in="SourceGraphic" in2="bg"/></filter><mask id="mask" x="1.45" y="2.45" width="13.09" height="11.09" maskUnits="userSpaceOnUse"><g class="cls-3"><path d="M4.78,11.79a1.64,1.64,0,0,1-.66-.59L5,10.54a1,1,0,0,0,.77.38.59.59,0,0,0,.5-.22,1,1,0,0,0,.17-.63v-4H7.62v4a2.32,2.32,0,0,1-.22,1,1.51,1.51,0,0,1-.64.66,2.13,2.13,0,0,1-1,.23A2.12,2.12,0,0,1,4.78,11.79Z"/><path d="M9.94,11.91a3.21,3.21,0,0,1-.76-.24,2.7,2.7,0,0,1-.63-.4l.51-.91a2.62,2.62,0,0,0,.79.43,2.8,2.8,0,0,0,.91.15,1.64,1.64,0,0,0,.84-.18.59.59,0,0,0,.3-.52h0a.51.51,0,0,0-.13-.37.81.81,0,0,0-.35-.2l-.55-.12h-.13a5.48,5.48,0,0,1-1-.23A1.44,1.44,0,0,1,9.1,8.8a1.58,1.58,0,0,1-.27-1h0a1.77,1.77,0,0,1,.25-1,1.62,1.62,0,0,1,.74-.62A3,3,0,0,1,11,6a2.94,2.94,0,0,1,.65.07,3.69,3.69,0,0,1,.64.21,3.51,3.51,0,0,1,.6.33l-.47.94a2.79,2.79,0,0,0-.71-.36A2,2,0,0,0,11,7.06a1.41,1.41,0,0,0-.78.17.52.52,0,0,0-.28.47h0a.56.56,0,0,0,.14.4,1,1,0,0,0,.36.22c.15,0,.35.09.6.15h.16a4.84,4.84,0,0,1,.93.26,1.53,1.53,0,0,1,.63.5,1.58,1.58,0,0,1,.25,1h0a1.77,1.77,0,0,1-.26,1,1.63,1.63,0,0,1-.77.61,3.12,3.12,0,0,1-1.21.21A3.75,3.75,0,0,1,9.94,11.91Z"/></g></mask></defs><g class="cls-1"><path class="cls-2" d="M13.5,2.45a1,1,0,0,1,1.05,1v9a1,1,0,0,1-1.05,1.05H2.5a1,1,0,0,1-1-1.05V3.55a1,1,0,0,1,1.05-1Z"/></g></svg>