<svg id="Calque_1" data-name="Calque 1" xmlns="http://www.w3.org/2000/svg" xmlns:xlink="http://www.w3.org/1999/xlink" viewBox="0 0 16 16"><defs><style>.cls-1{mask:url(#mask);}.cls-2{fill:#fbb03b;}.cls-3{fill:#f15a24;}.cls-4{filter:url(#luminosity-noclip);}</style><filter id="luminosity-noclip" x="1.45" y="0.63" width="14.55" height="12.92" filterUnits="userSpaceOnUse" color-interpolation-filters="sRGB"><feFlood flood-color="#fff" result="bg"/><feBlend in="SourceGraphic" in2="bg"/></filter><mask id="mask" x="1.45" y="0.63" width="14.55" height="12.92" maskUnits="userSpaceOnUse"><g class="cls-4"><path d="M4.78,11.79a1.64,1.64,0,0,1-.66-.59L5,10.54a1,1,0,0,0,.77.38.59.59,0,0,0,.5-.22,1,1,0,0,0,.17-.63v-4H7.62v4a2.32,2.32,0,0,1-.22,1,1.51,1.51,0,0,1-.64.66,2.13,2.13,0,0,1-1,.23A2.12,2.12,0,0,1,4.78,11.79Z"/><path d="M9.94,11.91a3.21,3.21,0,0,1-.76-.24,2.7,2.7,0,0,1-.63-.4l.51-.91a2.62,2.62,0,0,0,.79.43,2.8,2.8,0,0,0,.91.15,1.64,1.64,0,0,0,.84-.18.59.59,0,0,0,.3-.52h0a.51.51,0,0,0-.13-.37.81.81,0,0,0-.35-.2l-.55-.12h-.13a5.48,5.48,0,0,1-1-.23A1.44,1.44,0,0,1,9.1,8.8a1.58,1.58,0,0,1-.27-1h0a1.77,1.77,0,0,1,.25-1,1.62,1.62,0,0,1,.74-.62A3,3,0,0,1,11,6a2.94,2.94,0,0,1,.65.07,3.69,3.69,0,0,1,.64.21,3.51,3.51,0,0,1,.6.33l-.47.94a2.79,2.79,0,0,0-.71-.36A2,2,0,0,0,11,7.06a1.41,1.41,0,0,0-.78.17.52.52,0,0,0-.28.47h0a.56.56,0,0,0,.14.4,1,1,0,0,0,.36.22c.15,0,.35.09.6.15h.16a4.84,4.84,0,0,1,.93.26,1.53,1.53,0,0,1,.63.5,1.58,1.58,0,0,1,.25,1h0a1.77,1.77,0,0,1-.26,1,1.63,1.63,0,0,1-.77.61,3.12,3.12,0,0,1-1.21.21A3.75,3.75,0,0,1,9.94,11.91Z"/><path d="M11.49,10a26.87,26.87,0,0,1-2.3-3.57,5.85,5.85,0,0,1-.6-1.77,1.52,1.52,0,0,1,0-.33,3.65,3.65,0,0,1,1-2.54A3.71,3.71,0,0,1,16,4.35c0,1.72-2.24,4.77-2.93,5.67l-.79,1Z"/></g></mask></defs><g class="cls-1"><path class="cls-2" d="M13.5,2.45a1,1,0,0,1,1.05,1v9a1,1,0,0,1-1.05,1.05H2.5a1,1,0,0,1-1-1.05V3.55a1,1,0,0,1,1.05-1Z"/></g><path class="cls-3" d="M12.28,1.63a2.7,2.7,0,0,0-2,.87,2.65,2.65,0,0,0-.73,1.85.39.39,0,0,0,0,.15A4.43,4.43,0,0,0,10.09,6a25.19,25.19,0,0,0,2.19,3.41S15,5.86,15,4.35A2.72,2.72,0,0,0,12.28,1.63Zm0,4.08a1.36,1.36,0,1,1,1.35-1.36A1.35,1.35,0,0,1,12.28,5.71Z"/></svg>