<svg id="Calque_1" data-name="Calque 1" xmlns="http://www.w3.org/2000/svg" viewBox="0 0 16 16"><defs><style>.cls-1{fill:#cc7f00;}</style></defs><path class="cls-1" d="M6,3A2.94,2.94,0,0,0,3,6v.5a1,1,0,0,1-1,1V9a1,1,0,0,1,1,1v.5a2.94,2.94,0,0,0,3,3V12a1.47,1.47,0,0,1-1.5-1.5V6A1.47,1.47,0,0,1,6,4.5Z"/><path class="cls-1" d="M10,13.5a2.94,2.94,0,0,0,3-3V10a1,1,0,0,1,1-1V7.5a1,1,0,0,1-1-1V6a2.94,2.94,0,0,0-3-3V4.5A1.47,1.47,0,0,1,11.5,6v4.5A1.47,1.47,0,0,1,10,12Z"/><rect class="cls-1" x="6" y="3" width="1" height="1.5"/><rect class="cls-1" x="9" y="3" width="1" height="1.5"/><rect class="cls-1" x="6" y="12" width="1" height="1.5"/><rect class="cls-1" x="9" y="12" width="1" height="1.5"/><rect class="cls-1" x="14" y="7.5" width="0.5" height="1.5"/><rect class="cls-1" x="1.5" y="7.5" width="0.5" height="1.5"/><circle class="cls-1" cx="8" cy="8.25" r="1"/></svg>