<svg width="16" height="16" viewBox="0 0 16 16" fill="none" xmlns="http://www.w3.org/2000/svg">
<path d="M8.08496 8.44922C9.90861 7.31629 10.1953 8.68608 11.335 8.66797C11.496 8.62675 11.6544 8.59888 11.8096 8.58886C12.6912 8.53218 13.6954 9.52294 13.5 10.5C13 13 9.84219 14.3254 8 14.5C6.42607 14.6491 5.5063 12.996 6.33496 11.9902C6.46023 11.8382 6.57852 11.7027 6.69727 11.5742C7.51521 10.389 6.21387 9.61172 8.08496 8.44922Z" fill="#1D7BF5"/>
<path d="M2.25814 8.40847C1.4908 8.85149 2.37286 10.4138 3 11.5C3.83619 12.9483 5.03144 12.5266 5.97339 11.5C6.91534 10.4734 5.09643 9.78039 4.62899 8.97076C4.00185 7.88452 3.02547 7.96546 2.25814 8.40847Z" fill="#1D7BF5"/>
<path d="M4 4.4751C3.23267 4.91812 3.37286 5.91376 4 7C4.83619 8.44832 6.49555 8.97509 6.99555 7.47509C7.43614 6.15332 6.46299 6.28474 5.99555 5.4751C5.36841 4.38886 4.76733 4.03208 4 4.4751Z" fill="#1D7BF5"/>
<path d="M6.5 2.49999C7.19477 1.80522 9.44105 3.3427 10 4C10.8523 5.00223 9.5 6.5 8.34978 6.42064C6.8084 6.3143 7.43768 5.29844 6.70461 4.56537C5.72109 3.58185 5.80523 3.19476 6.5 2.49999Z" fill="#1D7BF5"/>
<path d="M11.898 3.55013C12.6653 3.10711 13.7708 4.4639 14.398 5.55014C15.2342 6.99846 13.8414 8.37667 12.5 8C10.898 7.55014 11.8654 6.35977 11.398 5.55014C10.7708 4.4639 11.1306 3.99315 11.898 3.55013Z" fill="#1D7BF5"/>
</svg>
