<svg id="Calque_1" data-name="Calque 1" xmlns="http://www.w3.org/2000/svg" viewBox="0 0 16 16"><defs><style>.cls-1{fill:#39c;}</style></defs><path class="cls-1" d="M1.51,9V7S3,7,3,6V4.5s0-2,2.5-2V4a1,1,0,0,0-1,1V6A2.22,2.22,0,0,1,3,8a2.22,2.22,0,0,1,1.52,2v1a1,1,0,0,0,1,1v1.5s-2.5,0-2.5-2v-1A1.49,1.49,0,0,0,1.51,9Z"/><path class="cls-1" d="M14.49,7V9S13,9,13,10v1.5s0,2-2.5,2V12a1,1,0,0,0,1-1V10A2.22,2.22,0,0,1,13,8a2.22,2.22,0,0,1-1.52-2V5a1,1,0,0,0-1-1V2.5s2.5,0,2.5,2v1A1.49,1.49,0,0,0,14.49,7Z"/><path class="cls-1" d="M5.5,2.5h3v7s0,.5,1,.5v1.5S7,11.5,7,9.5V4H5.5"/></svg>