<svg id="Calque_1" data-name="Calque 1" xmlns="http://www.w3.org/2000/svg" xmlns:xlink="http://www.w3.org/1999/xlink" viewBox="0 0 16 16"><defs><style>.cls-1{filter:url(#luminosity-noclip);}.cls-2{mask:url(#mask);}.cls-3{fill:#797cff;}</style><filter id="luminosity-noclip" x="2.62" y="1" width="10.77" height="14" filterUnits="userSpaceOnUse" color-interpolation-filters="sRGB"><feFlood flood-color="#fff" result="bg"/><feBlend in="SourceGraphic" in2="bg"/></filter><mask id="mask" x="2.62" y="1" width="10.77" height="14" maskUnits="userSpaceOnUse"><polygon class="cls-1" points="8 9.7 6.88 10.25 6.24 9.18 5 9.04 5.03 7.79 4.07 7.01 4.77 5.98 4.38 4.79 5.54 4.3 5.85 3.1 7.08 3.31 8 2.46 8.92 3.31 10.15 3.1 10.46 4.3 11.62 4.79 11.23 5.98 11.94 7.01 10.97 7.79 11 9.04 9.76 9.18 9.12 10.25 8 9.7"/></mask></defs><g class="cls-2"><polygon class="cls-3" points="8 1 9.26 2.16 10.94 1.86 11.37 3.52 12.95 4.18 12.42 5.8 13.38 7.21 12.06 8.29 12.11 10 10.41 10.19 9.53 11.66 8 10.9 6.47 11.66 5.59 10.19 3.89 10 3.94 8.29 2.62 7.21 3.58 5.8 3.05 4.18 4.63 3.52 5.06 1.86 6.74 2.16 8 1"/><polygon class="cls-3" points="5.31 10.15 5.31 15 8 12.85 10.69 15 10.69 9.08 8 9.62 5.31 10.15"/></g><polygon class="cls-3" points="5.53 6.63 7.43 8.54 10.47 5.49 9.71 4.73 7.43 7.01 6.29 5.87 5.53 6.63"/></svg>