<svg id="Calque_1" data-name="Calque 1" xmlns="http://www.w3.org/2000/svg" xmlns:xlink="http://www.w3.org/1999/xlink" viewBox="0 0 16 16"><defs><style>.cls-1{mask:url(#mask);}.cls-2{fill:#af3828;}.cls-3{filter:url(#luminosity-noclip);}</style><filter id="luminosity-noclip" x="3.01" y="2" width="9.97" height="12" filterUnits="userSpaceOnUse" color-interpolation-filters="sRGB"><feFlood flood-color="#fff" result="bg"/><feBlend in="SourceGraphic" in2="bg"/></filter><mask id="mask" x="3.01" y="2" width="9.97" height="12" maskUnits="userSpaceOnUse"><g class="cls-3"><rect x="7" y="4.5" width="1.5" height="4.75" rx="0.75"/><rect x="7" y="10.5" width="1.5" height="1.5" rx="0.75"/></g></mask></defs><g class="cls-1"><path class="cls-2" d="M12,14H4a1,1,0,0,1-1-1V3A1,1,0,0,1,4,2H9.09a1,1,0,0,1,.7.29C10.47,3,12,4.53,12.7,5.21a1,1,0,0,1,.29.7V13A1,1,0,0,1,12,14Z"/></g></svg>