<svg id="Calque_1" data-name="Calque 1" xmlns="http://www.w3.org/2000/svg" xmlns:xlink="http://www.w3.org/1999/xlink" viewBox="0 0 16 16"><defs><style>.cls-1{mask:url(#mask);}.cls-2{fill:#db3a0f;}.cls-3{filter:url(#luminosity-noclip);}</style><filter id="luminosity-noclip" x="3.01" y="2" width="9.97" height="12" filterUnits="userSpaceOnUse" color-interpolation-filters="sRGB"><feFlood flood-color="#fff" result="bg"/><feBlend in="SourceGraphic" in2="bg"/></filter><mask id="mask" x="3.01" y="2" width="9.97" height="12" maskUnits="userSpaceOnUse"><g class="cls-3"><rect x="7" y="4.5" width="1.5" height="4.75" rx="0.75"/><rect x="7" y="10.5" width="1.5" height="1.5" rx="0.75"/></g></mask></defs><g class="cls-1"><path class="cls-2" d="M4,13.5A.48.48,0,0,1,3.52,13V3A.48.48,0,0,1,4,2.5H9.09a.5.5,0,0,1,.35.14l2.9,2.93a.48.48,0,0,1,.14.34V13a.48.48,0,0,1-.48.49Z"/><path class="cls-2" d="M9.09,3l1.44,1.45L12,5.91V13H4V3H9.09m0-1H4A1,1,0,0,0,3,3V13a1,1,0,0,0,1,1h8a1,1,0,0,0,1-1V5.91a1,1,0,0,0-.29-.7C12,4.53,10.47,3,9.79,2.29A1,1,0,0,0,9.09,2Z"/></g></svg>