<svg width="16" height="16" viewBox="0 0 16 16" fill="none" xmlns="http://www.w3.org/2000/svg">
<path fill-rule="evenodd" clip-rule="evenodd" d="M8 2C6.81331 2 5.65328 2.35189 4.66658 3.01118C3.67989 3.67047 2.91085 4.60754 2.45673 5.7039C2.0026 6.80026 1.88378 8.00666 2.11529 9.17054C2.3468 10.3344 2.91825 11.4035 3.75736 12.2426C4.59648 13.0818 5.66558 13.6532 6.82946 13.8847C7.99335 14.1162 9.19975 13.9974 10.2961 13.5433C11.3925 13.0892 12.3295 12.3201 12.9888 11.3334C13.6481 10.3467 14 9.18669 14 8C14 6.4087 13.3679 4.88258 12.2426 3.75736C11.1174 2.63214 9.5913 2 8 2ZM8 12.5C7.10999 12.5 6.23996 12.2361 5.49994 11.7416C4.75992 11.2471 4.18314 10.5443 3.84255 9.72208C3.50195 8.89981 3.41284 7.99501 3.58647 7.12209C3.7601 6.24918 4.18869 5.44736 4.81802 4.81802C5.44736 4.18868 6.24918 3.7601 7.1221 3.58647C7.99501 3.41283 8.89981 3.50195 9.72208 3.84254C10.5443 4.18314 11.2471 4.75991 11.7416 5.49993C12.2361 6.23995 12.5 7.10998 12.5 8C12.5013 8.59132 12.3858 9.17707 12.1601 9.72363C11.9345 10.2702 11.603 10.7668 11.1849 11.1849C10.7668 11.603 10.2702 11.9345 9.72364 12.1601C9.17708 12.3858 8.59132 12.5013 8 12.5ZM8.06001 9.75C7.59588 9.75 7.15076 9.56562 6.82257 9.23744C6.49438 8.90925 6.31 8.46413 6.31 8C6.31 7.53587 6.49438 7.09075 6.82257 6.76256C7.15076 6.43437 7.59588 6.25 8.06001 6.25C8.28977 6.24739 8.5176 6.29223 8.72924 6.3817C8.94089 6.47118 9.13179 6.60337 9.29 6.77L10.54 5.52C10.0477 5.03766 9.424 4.7114 8.74704 4.58212C8.07008 4.45285 7.37002 4.52631 6.73464 4.7933C6.09926 5.06028 5.55685 5.50891 5.17542 6.08293C4.79399 6.65695 4.59052 7.33081 4.59052 8.02C4.59052 8.70919 4.79399 9.38305 5.17542 9.95706C5.55685 10.5311 6.09926 10.9797 6.73464 11.2467C7.37002 11.5137 8.07008 11.5871 8.74704 11.4579C9.424 11.3286 10.0477 11.0023 10.54 10.52L9.29 9.23C9.13179 9.39663 8.94089 9.52882 8.72924 9.61829C8.5176 9.70777 8.28977 9.75261 8.06001 9.75ZM11.5 8C11.5 8.55228 11.0523 9 10.5 9C9.94771 9 9.5 8.55228 9.5 8C9.5 7.44772 9.94771 7 10.5 7C11.0523 7 11.5 7.44772 11.5 8Z" fill="#6A83FF"/>
</svg>
