<svg width="16" height="16" viewBox="0 0 16 16" fill="none" xmlns="http://www.w3.org/2000/svg">
<path fill-rule="evenodd" clip-rule="evenodd" d="M2 3C1.44772 3 1 3.44772 1 4V12C1 12.5523 1.44772 13 2 13H14C14.5523 13 15 12.5523 15 12V4C15 3.44772 14.5523 3 14 3H2ZM3 11V5H4.48801L5.52468 7.71714L6.58251 5H8V11H6.69535V7.51143L5.82087 9.81714H5.14386L4.30465 7.54571V11H3ZM8.83333 11H10.2222L10.9167 9.5L11.6111 11H13L11.6111 8L13 5L11.6111 5L10.9167 6.5L10.2222 5H8.83333L10.2222 8L8.83333 11Z" fill="#DFB13B"/>
</svg>
