<svg id="Calque_1" data-name="Calque 1" xmlns="http://www.w3.org/2000/svg" xmlns:xlink="http://www.w3.org/1999/xlink" viewBox="0 0 16 16"><defs><style>.cls-1{mask:url(#mask);}.cls-2{fill:#46acc9;}.cls-3{filter:url(#luminosity-noclip);}</style><filter id="luminosity-noclip" x="1" y="3.45" width="14" height="10.05" filterUnits="userSpaceOnUse" color-interpolation-filters="sRGB"><feFlood flood-color="#fff" result="bg"/><feBlend in="SourceGraphic" in2="bg"/></filter><mask id="mask" x="1" y="3.45" width="14" height="10.05" maskUnits="userSpaceOnUse"><g class="cls-3"><rect x="10.5" y="5.5" width="2" height="3.5"/><polygon points="9 8.5 14 8.5 11.5 11.5 9 8.5"/><polygon points="2.5 11.5 2.5 5.5 4 5.5 5.5 8 7 5.5 8.5 5.5 8.5 11.5 7 11.5 7 8.5 5.5 10.5 4 8.5 4 11.5 2.5 11.5"/></g></mask></defs><g class="cls-1"><path class="cls-2" d="M14,3.45A1,1,0,0,1,15,4.5v8A1,1,0,0,1,14,13.5H2.05a1,1,0,0,1-1-1.05V4.55a1,1,0,0,1,1-1Z"/></g></svg>