<svg width="16" height="16" viewBox="0 0 16 16" fill="none" xmlns="http://www.w3.org/2000/svg">
<path d="M14 7V5.54206C14 3.58945 12.4112 2 10.4584 2C9.50483 2 8.63774 2.37939 8 2.99414C7.36239 2.37939 6.49517 2 5.54171 2C3.58879 2 2 3.58945 2 5.54206V10.4578C2 12.4114 3.58879 14 5.54171 14H10.4584C12.4112 14 14 12.4114 14 10.4578V8H7V10H12C12 11 11.6386 12 10.5 12H5.54171C4.78447 12 4 11.2158 4 10.4578V5.54206C4 4.5 4.5 4 5.5 4C6.5 4 7 4.5 7 5.54206V7H9V5.54206C9 4.5 9.44805 4 10.4584 4C11.5 4 12 4.5 12 5.54206V7H14Z" fill="#DA4709"/>
</svg>
