<svg id="Calque_1" data-name="Calque 1" xmlns="http://www.w3.org/2000/svg" xmlns:xlink="http://www.w3.org/1999/xlink" viewBox="0 0 16 16"><defs><style>.cls-1{fill:url(#linear-gradient);}.cls-2{fill:url(#linear-gradient-2);}</style><linearGradient id="linear-gradient" x1="-3790.85" y1="3350.45" x2="-3687.54" y2="3350.45" gradientTransform="matrix(0.08, -0.09, 0.09, 0.08, 22.41, -598.27)" gradientUnits="userSpaceOnUse"><stop offset="0" stop-color="#3ac155"/><stop offset="1" stop-color="#0cb3ff"/></linearGradient><linearGradient id="linear-gradient-2" x1="-374.68" y1="-4508.97" x2="-276.25" y2="-4508.97" gradientTransform="matrix(0.12, 0, 0, -0.12, 46.9, -538.04)" xlink:href="#linear-gradient"/></defs><path class="cls-1" d="M15.32,6.17A8,8,0,0,1,12,6.38,7.09,7.09,0,0,0,11,8.5a11.57,11.57,0,0,0,3.27-1.29A13.28,13.28,0,0,1,10.5,9.5a7.65,7.65,0,0,1-1.88,3.38L8.5,13c1.54-.59,4.23-2.21,6.82-6.83Z"/><path class="cls-2" d="M3.18,5.53C.44,7.74,1.64,10.83,2.5,10c1.4-1.34,3.56-4.14,7.6-5.31C6.43,5.79,3.68,10,3,11c-.5,1,.27,2.2,1.88,2.45a3.45,3.45,0,0,0,3.17-1h0c2.11-2,1.28-5.48,5.36-8.47C6.67,2.47,3.69,5.12,3.18,5.53Z"/><path d="M2.8,10.43h0Z"/></svg>