<svg width="16" height="16" viewBox="0 0 16 16" fill="none" xmlns="http://www.w3.org/2000/svg">
<path d="M14 12.25C14 12.9404 13.4404 13.5 12.75 13.5V13.5C12.0596 13.5 11.5 12.9404 11.5 12.25V12.25C11.5 11.5596 12.0596 11 12.75 11V11C13.4404 11 14 11.5596 14 12.25V12.25Z" fill="#F36B4D"/>
<path d="M2 8.25C2 7.55964 2.55964 7 3.25 7V7C3.94036 7 4.5 7.55964 4.5 8.25V8.25C4.5 8.94036 3.94036 9.5 3.25 9.5V9.5C2.55964 9.5 2 8.94036 2 8.25V8.25Z" fill="#F36B4D"/>
<path d="M14 4.25C14 4.94036 13.4404 5.5 12.75 5.5V5.5C12.0596 5.5 11.5 4.94036 11.5 4.25V4.25C11.5 3.55964 12.0596 3 12.75 3V3C13.4404 3 14 3.55964 14 4.25V4.25Z" fill="#F36B4D"/>
<path d="M10 12.25C10 12.9404 9.44036 13.5 8.75 13.5L3.25 13.5C2.55964 13.5 2 12.9404 2 12.25V12.25C2 11.5596 2.55964 11 3.25 11L8.75 11C9.44036 11 10 11.5596 10 12.25V12.25Z" fill="#F36B4D"/>
<path d="M6 8.25C6 7.55964 6.55964 7 7.25 7L12.75 7C13.4404 7 14 7.55964 14 8.25V8.25C14 8.94035 13.4404 9.5 12.75 9.5L7.25 9.5C6.55964 9.5 6 8.94036 6 8.25V8.25Z" fill="#F36B4D"/>
<path d="M10 4.25C10 4.94036 9.44036 5.5 8.75 5.5L3.25 5.5C2.55964 5.5 2 4.94036 2 4.25V4.25C2 3.55964 2.55964 3 3.25 3L8.75 3C9.44036 3 10 3.55964 10 4.25V4.25Z" fill="#F36B4D"/>
</svg>
