<svg width="16" height="16" viewBox="0 0 16 16" fill="none" xmlns="http://www.w3.org/2000/svg">
<path d="M11.75 2C12.7165 2 13.5 2.7835 13.5 3.75V10C13.5 10.5943 13.5 11.5 12.5 11.5V12.5C13 12.5 13.5 12.5 13.5 13.25C13.5 14 13 14 12.5 14H4.75C4.13439 14 3.53499 13.8455 3.09473 13.4053C2.65447 12.965 2.5 12.3656 2.5 11.75V3.75C2.5 2.7835 3.2835 2 4.25 2H11.75ZM4 11.75C4 12.1344 4.09553 12.285 4.15527 12.3447C4.21501 12.4045 4.36561 12.5 4.75 12.5H11V11.5H4.25C4.16498 11.5 4.08178 11.4912 4 11.4795V11.75ZM4.25 3.5C4.11193 3.5 4 3.61193 4 3.75V9.75C4 9.88807 4.11193 10 4.25 10H11.75C11.8881 10 12 9.88807 12 9.75V3.75C12 3.61193 11.8881 3.5 11.75 3.5H4.25ZM9.41406 4.74219C9.6042 4.59842 9.85629 4.56374 10.0791 4.6582C10.3336 4.7664 10.4998 5.0213 10.5 5.30371V9H9.25V6.62402L8.48242 7.29492C8.35456 7.42601 8 7.5 8 7.5C8 7.5 7.64544 7.42601 7.51758 7.29492L6.75 6.62402V9H5.5V5.30371L5.50879 5.19922C5.54425 4.95995 5.69833 4.75283 5.9209 4.6582C6.1755 4.55026 6.46818 4.6109 6.66309 4.81055L8 6.17969L9.33691 4.81055L9.41406 4.74219Z" fill="#909090" fill-opacity="0.9"/>
</svg>
