<svg width="16" height="16" viewBox="0 0 16 16" fill="none" xmlns="http://www.w3.org/2000/svg">
<path fill-rule="evenodd" clip-rule="evenodd" d="M12.6083 4.15745C11.8238 3.2176 10.7571 2.52143 9.53851 2.19907L9.78064 7.18709L12.6083 4.15745ZM5.08165 2.75631C5.94547 2.27453 6.94068 2 8 2C8.187 2 8.37199 2.00855 8.55462 2.02529L8.73548 6.06452L5.08165 2.75631ZM2.25783 6.25458C2.60981 5.0951 3.30336 4.08423 4.22133 3.33909L7.1871 5.9871L2.25783 6.25458ZM2.67241 10.7625C2.24278 9.9357 2 8.9962 2 8C2 7.74637 2.01574 7.49641 2.04629 7.25106L5.94839 7.07096L2.67241 10.7625ZM6.16979 13.7157C4.96697 13.3309 3.92925 12.5769 3.18988 11.5871L5.90968 8.65807L6.16979 13.7157ZM10.8673 13.2718C10.0154 13.7361 9.03853 14 8 14C7.72632 14 7.45693 13.9817 7.19297 13.9462L6.99355 9.85806L10.8673 13.2718ZM13.7939 9.56475C13.4542 10.8257 12.7139 11.9223 11.7178 12.7097L8.54193 9.89677L13.7939 9.56475ZM13.1574 4.93197C13.6925 5.82969 14 6.87894 14 8C14 8.20927 13.9893 8.41604 13.9684 8.61978L9.66452 8.8129L13.1574 4.93197Z" fill="#4ED1BA"/>
</svg>
