<svg width="16" height="16" viewBox="0 0 16 16" fill="none" xmlns="http://www.w3.org/2000/svg">
<path fill-rule="evenodd" clip-rule="evenodd" d="M12 3.5H4C3.72386 3.5 3.5 3.72386 3.5 4V12C3.5 12.2761 3.72386 12.5 4 12.5H12C12.2761 12.5 12.5 12.2761 12.5 12V4C12.5 3.72386 12.2761 3.5 12 3.5ZM4 2C2.89543 2 2 2.89543 2 4V12C2 13.1046 2.89543 14 4 14H12C13.1046 14 14 13.1046 14 12V4C14 2.89543 13.1046 2 12 2H4Z" fill="#CAA773"/>
<path fill-rule="evenodd" clip-rule="evenodd" d="M7.02753 6.76074C6.81591 7.08405 6.75 7.46297 6.75 7.6V10.5H5.25V7.6C5.25 7.20369 5.38409 6.53261 5.77247 5.93926C6.18631 5.307 6.90494 4.75 8 4.75C9.09506 4.75 9.81369 5.307 10.2275 5.93926C10.6159 6.53261 10.75 7.20369 10.75 7.6V10.5H9.25V7.6C9.25 7.46297 9.18409 7.08405 8.97247 6.76074C8.78631 6.47633 8.50494 6.25 8 6.25C7.49506 6.25 7.21369 6.47633 7.02753 6.76074Z" fill="#CAA773"/>
</svg>
