<svg xmlns="http://www.w3.org/2000/svg" width="16" height="16" fill="none"><path fill="#5F7FDA" fill-rule="evenodd" d="M9.066 2a.8.8 0 0 0-.242.044.7.7 0 0 1 .288.404c.003.022.01.037.013.06a.3.3 0 0 1 .006.055c.012.274-.071.308-.13.47a.67.67 0 0 0 .043.613q.015.034.037.068c-.118-.787.536-.905.657-1.15.01-.216-.167-.359-.307-.458A.7.7 0 0 0 9.066 2m.985.177c-.012.072-.003.053-.006.09-.003.025-.003.057-.006.081l-.022.075-.025.075-.034.071-.025.038-.018.028-.047.062q-.025.03-.055.056v.003q-.028.025-.06.05c-.064.05-.139.087-.207.134q-.033.02-.062.046l-.059.05-.056.06c-.015.018-.034.04-.046.061l-.043.066-.035.071q-.014.036-.024.072l-.022.078-.006.04-.006.037-.003.078q0 .029.003.056 0 .037.009.078l.015.075.025.074.022.044-.713-.277a8 8 0 0 0-.36-.093l-.195-.047a6 6 0 0 0-.564-.084l-.015-.003a5.5 5.5 0 0 0-1.528.056 6 6 0 0 0-.418.087l-.14.037q-.069.03-.133.06l-.102.046-.016.006c-.03.016-.059.028-.087.044a1 1 0 0 0-.118.06l-.061.03a2 2 0 0 0-.183.109c-.022.016-.044.028-.062.044l-.01.006-.058.043-.006.006-.047.038c-.006.003-.012.01-.019.012l-.046.04c-.003.007-.01.01-.012.013-.02.019-.038.034-.056.053q-.003 0-.006.006l-.056.053q-.003.005-.006.006l-.047.05-.022.019-.052.056-.013.015-.07.075a2.3 2.3 0 0 1-.527.417 2.2 2.2 0 0 1-.397.168c-.13.028-.264.08-.379.09q-.038.002-.077.01l-.077.018-.075.028-.074.034c-.022.016-.047.028-.068.044l-.062.053a.4.4 0 0 0-.062.056q-.03.031-.053.062-.026.036-.047.072l-.043.071q-.02.04-.034.081-.015.038-.028.081-.01.038-.015.075c0 .003-.004.006-.004.009-.006.028-.006.065-.009.084-.003.022-.006.04-.006.062a.33.33 0 0 0 .037.156v.003q.015.028.034.056.018.028.04.056l.053.05.06.05c.074.065.092.087.188.136q.023.013.05.025l.01.003a.6.6 0 0 0 .043.165l.024.056q.004.01.01.016l.037.068.046.066q.024.029.053.059.026.026.059.053 0 .002.006.003.028.023.056.043l.068.04.071.035q.029.014.062.022.004.003.013.006l.04.01c-.01.167-.013.326.012.382.028.062.165-.128.3-.345-.018.214-.03.466 0 .541.035.078.22-.165.382-.432 2.197-.51 4.202 1.014 4.413 3.167-.04-.336-.452-.523-.641-.476-.093.23-.251.525-.506.71a2 2 0 0 0-.03-.623 2 2 0 0 1-.385.784.87.87 0 0 1-.744-.336c-.012-.01-.015-.028-.024-.04a.4.4 0 0 1-.025-.066.3.3 0 0 1-.019-.065q-.004-.032-.003-.069v-.046q.006-.033.016-.066l.021-.065c.013-.022.022-.044.037-.065.053-.15.053-.271-.043-.343a.4.4 0 0 0-.059-.03l-.04-.013-.025-.01q-.032-.01-.065-.015a.2.2 0 0 0-.065-.01l-.068-.006-.047.003a.2.2 0 0 0-.068.01.5.5 0 0 0-.13.034l-.062.028q-.027.016-.059.031c-.722.473-.291 1.58.202 1.901-.186.034-.375.075-.428.115l-.006.006q.2.121.418.209c.198.065.41.124.502.15v.002q.386.08.781.056a2.95 2.95 0 0 0 2.702-2.526l.019.08c.01.057.022.116.028.175v.003q.009.043.012.081v.013l.006.08a1 1 0 0 1 .007.103v.05l.003.05-.003.056v.043c0 .022-.003.04-.003.063q.001.017-.004.04l-.003.068q-.004.015-.003.028l-.009.072q0 .015-.003.028c-.003.031-.01.06-.013.09v.007l-.018.087v.009l-.019.084-.003.012-.022.084v.01q-.014.045-.024.087-.004.005-.003.006l-.028.093-.034.09-.034.09-.038.091h-.003c-.012.028-.025.06-.04.087l-.01.022-.006.01a2.94 2.94 0 0 1-.87 1.045q-.037.024-.075.053l-.021.015-.069.047.01.018h.003l.13-.018h.003q.12-.02.242-.044l.068-.015.043-.01.065-.012.056-.016c.31-.074.61-.177.899-.298A5 5 0 0 1 7.615 14a5 5 0 0 0 1.057-.184 4.96 4.96 0 0 0 2.929-2.349 5 5 0 0 1-.834 2.001 4.88 4.88 0 0 0 2.132-3.335c.106.491.137.999.09 1.5 2.238-3.134.186-6.382-.672-7.237q-.007-.009-.007-.016-.004.003-.003.006 0-.003-.003-.006a1 1 0 0 1-.006.112q-.014.107-.031.209a5 5 0 0 1-.053.205 3 3 0 0 1-.074.199 2 2 0 0 1-.205.367q-.06.09-.127.168a2 2 0 0 1-.145.156l-.09.077c-.025.022-.047.04-.071.063a2 2 0 0 1-.174.121c-.059.037-.12.075-.183.106l-.195.087a2 2 0 0 1-.41.112 2.4 2.4 0 0 1-.36.031 2.3 2.3 0 0 1-.628-.096H9.55a2.3 2.3 0 0 0 .412-.072 2.2 2.2 0 0 0 .583-.255 3 3 0 0 0 .173-.125q.084-.065.159-.14c.052-.046.099-.1.145-.152a3 3 0 0 0 .13-.168l.019-.031q.047-.075.09-.15a2.2 2.2 0 0 0 .22-.59c.012-.072.025-.14.03-.209q.012-.108.013-.212a2.4 2.4 0 0 0-.03-.357 2 2 0 0 0-.047-.209c-.022-.065-.044-.134-.068-.199a2 2 0 0 0-.087-.193 3 3 0 0 0-.106-.183q-.06-.089-.123-.172l-.143-.158-.08-.078a6 6 0 0 0-.431-.305l-.062-.031a1.2 1.2 0 0 0-.295-.13Z" clip-rule="evenodd"/></svg>