<svg width="16" height="16" viewBox="0 0 16 16" fill="none" xmlns="http://www.w3.org/2000/svg">
<path d="M7 2H8.5V6H7V2Z" fill="#05BDBA"/>
<path d="M7 10.5H8.5V14.5H7V10.5Z" fill="#05BDBA"/>
<path d="M1.5 9L1.5 7.5L5.5 7.5L5.5 9L1.5 9Z" fill="#05BDBA"/>
<path d="M10 9L10 7.5L14 7.5L14 9L10 9Z" fill="#05BDBA"/>
<path d="M4.02027 5.58093L5.08093 4.52027L6.15901 5.59835V6.65901L5 6.56066L4.02027 5.58093Z" fill="#05BDBA"/>
<path d="M5.06934 11.9913L4.00868 10.9307L5 9.93934L6.15901 9.84099L6.13 10.9307L5.06934 11.9913Z" fill="#05BDBA"/>
<path d="M6.75 8.25C6.75 7.69772 7.19772 7.25 7.75 7.25V7.25C8.30228 7.25 8.75 7.69772 8.75 8.25V8.25C8.75 8.80228 8.30228 9.25 7.75 9.25V9.25C7.19772 9.25 6.75 8.80228 6.75 8.25V8.25Z" fill="#FBB03B"/>
</svg>
