<svg width="16" height="16" viewBox="0 0 16 16" fill="none" xmlns="http://www.w3.org/2000/svg">
<path fill-rule="evenodd" clip-rule="evenodd" d="M8 13.6C9.03997 13.6 10.0137 13.3165 10.8482 12.8226L5.75 6.99609V11C5.75 11.4142 5.41421 11.75 5 11.75C4.58579 11.75 4.25 11.4142 4.25 11V5C4.25 4.68755 4.44371 4.40783 4.73621 4.29793C5.0287 4.18803 5.35868 4.27098 5.56443 4.50612L12.0268 11.8917C13.0007 10.8841 13.6 9.51203 13.6 8C13.6 4.90721 11.0928 2.4 8 2.4C4.90721 2.4 2.4 4.90721 2.4 8C2.4 11.0928 4.90721 13.6 8 13.6ZM8 15C11.866 15 15 11.866 15 8C15 4.13401 11.866 1 8 1C4.13401 1 1 4.13401 1 8C1 11.866 4.13401 15 8 15ZM11.75 5C11.75 4.58579 11.4142 4.25 11 4.25C10.5858 4.25 10.25 4.58579 10.25 5V8C10.25 8.41421 10.5858 8.75 11 8.75C11.4142 8.75 11.75 8.41421 11.75 8V5Z" fill="#909090" fill-opacity="0.9"/>
</svg>
