<svg id="Calque_1" data-name="Calque 1" xmlns="http://www.w3.org/2000/svg" xmlns:xlink="http://www.w3.org/1999/xlink" viewBox="0 0 16 16"><defs><style>.cls-1{filter:url(#luminosity-noclip);}.cls-2{mask:url(#mask);}.cls-3{fill:#009639;}</style><filter id="luminosity-noclip" x="2.5" y="1.94" width="11" height="12.42" filterUnits="userSpaceOnUse" color-interpolation-filters="sRGB"><feFlood flood-color="#fff" result="bg"/><feBlend in="SourceGraphic" in2="bg"/></filter><mask id="mask" x="2.5" y="1.94" width="11" height="12.42" maskUnits="userSpaceOnUse"><polygon class="cls-1" points="5 11 5 5.5 6 5.5 10 9.35 10 5.5 11 5.5 11 11 10 11 6 7.15 6 11 5 11"/></mask></defs><g class="cls-2"><path class="cls-3" d="M13.5,10.8V5.5a.9.9,0,0,0-.45-.79L8.45,2.06a.9.9,0,0,0-.9,0L3,4.71a.9.9,0,0,0-.45.79v5.3a.91.91,0,0,0,.45.79l4.6,2.65a.9.9,0,0,0,.9,0l4.6-2.65A.91.91,0,0,0,13.5,10.8Z"/></g></svg>