<svg width="16" height="16" viewBox="0 0 16 16" fill="none" xmlns="http://www.w3.org/2000/svg">
<path d="M8 3L7.10643 4.23437C6.61741 4.21878 5.65784 4.32833 5.13801 4.5174C4.65927 4.21402 4 3.5 4 3.5L3.65253 4.8609C3.3172 5.0395 2.98035 5.23998 2.6804 5.50531L1.5 4.5C1.96219 5.43219 2.6842 7.55794 3.53156 8.11904C4.87725 5.49371 11.1307 5.69171 12.5042 8.10686C13.3923 7.64429 14.0184 5.78263 14.3674 4.8609C14.092 4.95251 13.5375 5.41636 13.2654 5.51748C13.0817 5.3172 12.6482 5.00964 12.4019 4.8609C12.1685 4.43276 12 3.5 12 3.5C12 3.5 11.4257 4.15468 10.9588 4.48164C10.3283 4.36523 9.56537 4.22391 8.92382 4.25891C8.4873 3.89962 8 3 8 3Z" fill="#D9AC39"/>
<path d="M2.39148 8.01522L3.50206 11.4507C5.43015 13.9943 10.3534 14.1693 12.5 11.5L13.6926 8C13.142 8.81559 12.2461 9.37878 11.6941 9.68387C11.3019 9.89899 10.3971 10.0287 10.3971 10.0287L8.0234 8.79752L5.63407 10.004C5.63407 10.004 4.74144 9.86057 4.33707 9.6717C3.52148 9.23613 2.97255 8.72163 2.39415 8.01712L2.39148 8.01522Z" fill="#D9AC39"/>
</svg>
