<svg width="16" height="16" viewBox="0 0 16 16" fill="none" xmlns="http://www.w3.org/2000/svg">
<path d="M6.36 6L3.1 11.59L2.33 10.28L3.24 8.69H1.42L1 8L1.42 7.31H4L4.76 6H6.36ZM7.09 10.41H13.53L12.76 11.72H10.94L11.85 13.31L11.43 14H10.66L9.4 11.72H7.9L7.09 10.41ZM10.56 7.54L7.3 2H8.84L9.75 3.59L10.66 2H11.43L11.85 2.69L10.52 4.9L11.37 6.21L10.56 7.54Z" fill="#6EBBF2"/>
<path d="M8.88 5.59H2.4L3.17 4.28H4.99L4.08 2.69L4.5 2H5.27L6.6 4.21H8.1L8.88 5.59Z" fill="#5588F1"/>
<path d="M9.64 9.99997L12.9 4.40997L13.67 5.71997L12.76 7.30997H14.58L15 7.99997L14.58 8.68997H11.99L11.24 9.99997H9.64Z" fill="#5588F1"/>
<path d="M5.46 8.57001L8.7 13.93H7.16L6.25 12.35L5.48 13.93H4.57L4.15 13.24L5.48 11.04L4.73 9.87001L5.46 8.57001Z" fill="#5588F1"/>
</svg>
