<svg id="Calque_1" data-name="Calque 1" xmlns="http://www.w3.org/2000/svg" viewBox="0 0 16 16"><defs><style>.cls-1{fill:#447c35;}</style></defs><path class="cls-1" d="M9.62,10.66h1V6.1h1.34v5.05a.77.77,0,0,1-.13.46.88.88,0,0,1-.47.36A1.63,1.63,0,0,1,11,12H9.09a.8.8,0,0,1-.45-.14.87.87,0,0,1-.33-.47,1.49,1.49,0,0,1,0-.42V9.56l1.34-.31v1.41M4,4.26H5.32c.32,1.06.64,2.11,1,3.16,0-1,0-2.1,0-3.16H7.62V12H6.3c-.33-1.12-.65-2.25-1-3.37V12H4V4.26M12.5,2l-9,0A1.54,1.54,0,0,0,2,3.54v9A1.54,1.54,0,0,0,3.5,14h9A1.54,1.54,0,0,0,14,12.5v-9A1.54,1.54,0,0,0,12.5,2"/></svg>
