<svg id="Calque_1" data-name="Calque 1" xmlns="http://www.w3.org/2000/svg" xmlns:xlink="http://www.w3.org/1999/xlink" viewBox="0 0 16 16"><defs><style>.cls-1{mask:url(#mask);}.cls-2{fill:#447c35;}.cls-3{filter:url(#luminosity-noclip);}</style><filter id="luminosity-noclip" x="1.95" y="1.96" width="12.09" height="12.09" filterUnits="userSpaceOnUse" color-interpolation-filters="sRGB"><feFlood flood-color="#fff" result="bg"/><feBlend in="SourceGraphic" in2="bg"/></filter><mask id="mask" x="1.95" y="1.96" width="12.09" height="12.09" maskUnits="userSpaceOnUse"><g class="cls-3"><path d="M4,4.26H5.32c.32,1.06.64,2.11,1,3.16,0-1,0-2.1,0-3.16H7.62V12H6.3c-.33-1.12-.65-2.25-1-3.37V12H4Z"/><path d="M10.59,6.1h1.34v5.05a.77.77,0,0,1-.13.46.88.88,0,0,1-.47.36,1.49,1.49,0,0,1-.42,0H9.1a.81.81,0,0,1-.46-.14.87.87,0,0,1-.33-.47,1.49,1.49,0,0,1,0-.42V9.56l1.34-.31v1.41h1Z"/></g></mask></defs><g class="cls-1"><path class="cls-2" d="M12.5,14h-9A1.55,1.55,0,0,1,2,12.5v-9A1.55,1.55,0,0,1,3.5,2l9,0A1.55,1.55,0,0,1,14.05,3.5v9A1.55,1.55,0,0,1,12.5,14Z"/></g></svg>