<svg width="16" height="16" viewBox="0 0 16 16" fill="none" xmlns="http://www.w3.org/2000/svg">
<path d="M6.89062 1.73941C7.56234 1.2917 8.43766 1.2917 9.10938 1.73941L13.1094 4.4064C13.6657 4.77733 14 5.40181 14 6.07047V9.92984L13.9961 10.0548C13.9572 10.6756 13.6309 11.2462 13.1094 11.5939L9.10938 14.2609L8.98145 14.339C8.3726 14.6821 7.55167 14.5526 6.76367 14.1418C6.24649 13.8488 6.12217 13.7225 5.91992 13.5539C6.4619 13.3196 6.76371 13.0845 7.05469 12.7677C7.46767 13.0845 7.98138 13.2501 8.43555 12.9416L12.2773 10.3459C12.4164 10.2532 12.4999 10.0969 12.5 9.92984V6.07047C12.5 5.90334 12.4164 5.74718 12.2773 5.65445L8.27734 2.98746C8.13046 2.88962 7.94469 2.87794 7.78809 2.95132L7.72266 2.98746L3.72266 5.65445C3.58362 5.74718 3.50002 5.90334 3.5 6.07047V9.92984C3.50006 10.906 4.04852 11.256 4.61621 11.2746C5.04988 11.2266 5.26144 11.0769 5.36816 10.9591C5.51271 10.7994 5.57421 10.5811 5.57422 10.383V5.24625H7.07422V10.383C7.07421 10.8513 6.9356 11.4631 6.48047 11.966C6.20638 12.2687 5.84739 12.4974 5.40625 12.6369C5.07758 12.7478 4.7225 12.8067 4.3623 12.7902C4.34965 12.7903 4.33696 12.7921 4.32422 12.7921V12.7882C3.76285 12.7542 3.19193 12.5358 2.69629 12.0402C2.25327 11.597 2.00393 11.0076 2.00391 10.0548L2 9.92984V6.07047C2.00002 5.44352 2.29382 4.85535 2.78906 4.47867L2.89062 4.4064L6.89062 1.73941ZM9.62598 5.16031L9.90039 5.18082C10.5176 5.25455 10.9811 5.49607 11.2959 5.84683C11.6367 6.22666 11.7372 6.66252 11.7373 6.94839H10.2373C10.2373 6.97158 10.2358 6.91152 10.1797 6.84879C10.1467 6.81205 10.0355 6.70663 9.71875 6.67007L9.57031 6.65933C9.17732 6.64464 9.02814 6.74042 8.9873 6.77554C8.95325 6.80492 8.92294 6.85149 8.92285 6.94839C8.92288 7.03246 8.95296 7.11981 9.01367 7.18179C9.06433 7.23327 9.2113 7.34484 9.59766 7.34488C10.0828 7.3449 10.5942 7.45528 11.0068 7.74136C11.4464 8.04625 11.7373 8.53063 11.7373 9.13687C11.737 10.1529 10.8521 11.0294 9.59766 11.0294C8.50216 11.0294 7.42293 10.3883 7.42285 9.30972H8.92285C8.92271 9.26302 8.90002 9.29971 8.99805 9.3732C9.09206 9.4435 9.28388 9.52941 9.59766 9.52945C10.1361 9.52939 10.2369 9.21655 10.2373 9.13687C10.2373 9.0824 10.2261 9.0547 10.2188 9.04117C10.2106 9.02619 10.1931 9.00212 10.1523 8.97379C10.0616 8.91086 9.87681 8.8449 9.59766 8.84488C8.89827 8.84483 8.33182 8.6291 7.94141 8.23062C7.56181 7.84286 7.42288 7.35613 7.42285 6.94839C7.42295 6.49372 7.58757 6.00163 8.00684 5.6398C8.41986 5.28344 8.98388 5.13631 9.62598 5.16031Z" fill="#3F9F61"/>
</svg>
