<svg width="16" height="16" viewBox="0 0 16 16" fill="none" xmlns="http://www.w3.org/2000/svg">
<path d="M13.7519 5.3553C13.9055 5.4449 14 5.60935 14 5.78719V13.2785C14 13.6276 13.6513 13.8692 13.3244 13.7467L10.3244 12.6217C10.1293 12.5485 10 12.3619 10 12.1535V8.30902C10 8.11963 9.893 7.9465 9.72361 7.8618L8.22361 7.1118C8.08284 7.04142 7.91716 7.04142 7.77639 7.1118L6.27639 7.8618C6.107 7.9465 6 8.11963 6 8.30902V12.1536C6 12.362 5.8708 12.5485 5.67575 12.6217L2.68022 13.7464C2.35343 13.8691 2.00467 13.6277 2.00447 13.2786L2.00017 5.78738C2.00006 5.60944 2.09453 5.44486 2.24823 5.3552L7.74806 2.14696C7.90375 2.05615 8.09625 2.05615 8.25194 2.14696L13.7519 5.3553Z" fill="#3F9F61"/>
</svg>
