<svg width="16" height="16" viewBox="0 0 16 16" fill="none" xmlns="http://www.w3.org/2000/svg">
<path d="M8 5.75C8 7.35 7.5 7.75 7 7.75C6.5 7.75 6 7.75 6 6.75C6 4.75 5 4.75 4.5 4.75C3 4.75 3.5 6.75 2.5 6.75V10.5L4.5 10.25L5 13.75H6.41545C6.41545 13.4167 6.5 11.55 6.5 10.75V10.25C6.5 10.25 9.5 9.75 10.0845 6.75C10.0845 6.75 11.1691 6.89942 11.5845 6.39942C12 5.89942 12 4.75 11.5845 4.75H9.83455C9.5 3.75 8 3.75 8 4.75V5.75Z" fill="#DF9947"/>
<path fill-rule="evenodd" clip-rule="evenodd" d="M13 3.2H3L3 12.8H13V3.2ZM3 2C2.44772 2 2 2.53726 2 3.2V12.8C2 13.4627 2.44772 14 3 14H13C13.5523 14 14 13.4627 14 12.8V3.2C14 2.53726 13.5523 2 13 2H3Z" fill="#DF9947"/>
</svg>
