<svg width="16" height="16" viewBox="0 0 16 16" fill="none" xmlns="http://www.w3.org/2000/svg">
<path d="M10 4C10 3.95232 9.99547 3.90524 9.99219 3.8584C9.98898 3.82205 9.98592 3.78587 9.98145 3.75C9.85825 4.73639 9.01977 5.5 8 5.5V6C9.10457 6 10 5.10457 10 4Z" fill="#AC4C19"/>
<path d="M9 5.72949C8.70554 5.90012 8.36481 6 8 6V5.5H9C9 5.57921 8.99992 5.65528 9 5.72949Z" fill="#AC4C19"/>
<path d="M9.00684 9.57031C9.00257 10.0212 9.00743 11.5 10.5 11.5C11.2238 11.5 12.272 11.0896 12.8359 9.53027L12.0332 9.50098C12.5 8.99992 13.1505 7.89905 13.5 7L13.707 7.21191C14.2266 7.76563 14.9375 8.75 14.5 10.5L13.9229 9.90527C13.3681 13.1535 9.83955 14 8 14V5.5H9C9 6.5 9.00684 7.00046 9.00684 9.57031Z" fill="#AC4C19"/>
<path d="M7.99985 5V14C6.1883 14 2.73604 13.1796 2.10141 10.0527L1.49985 10.5C0.999898 8.50013 1.99983 7.50002 2.49985 7C2.84935 7.89897 3.76641 8.99986 4.23325 9.50098L3.16684 9.54102C3.73169 11.0916 4.77764 11.4999 5.49985 11.5C6.99242 11.5 6.99728 10.0212 6.99301 9.57031C6.99301 7.00046 6.99985 6 6.99985 5H7.99985Z" fill="#FF945A"/>
<path d="M5 7L8 6.5L11 7V8L8 8.5L5 8V7Z" fill="#FF945A"/>
<path d="M8 2C9.10457 2 10 2.89543 10 4C10 5.10457 9.10457 6 8 6C6.89543 6 6 5.10457 6 4C6 2.89543 6.89543 2 8 2ZM8 3C7.44772 3 7 3.44772 7 4C7 4.55228 7.44772 5 8 5C8.55228 5 9 4.55228 9 4C9 3.44772 8.55228 3 8 3Z" fill="#FF945A"/>
<path d="M9.00293 6.83008L8 7.5V6.5H9.00293C9.00312 6.60778 9.00275 6.71783 9.00293 6.83008Z" fill="#AC4C19"/>
<path d="M8 7.5V8.5L11 8V7.5H8Z" fill="#AC4C19"/>
<path d="M8 7.5L6.8 8.3L5 8V7.5H8Z" fill="#AC4C19"/>
<path d="M13.5 7C14 11.5 11 12.5 9 12.5C9.71998 12.5 10.1138 12.0192 10.3154 11.4912C10.3743 11.4965 10.4357 11.5 10.5 11.5C11.2238 11.5 12.272 11.0896 12.8359 9.53027L12.0332 9.50098C12.5 8.99992 13.1505 7.89905 13.5 7Z" fill="#FF945A"/>
</svg>
