<svg id="Calque_1" data-name="Calque 1" xmlns="http://www.w3.org/2000/svg" xmlns:xlink="http://www.w3.org/1999/xlink" viewBox="0 0 16 16"><defs><style>.cls-1{filter:url(#luminosity-noclip);}.cls-2{mask:url(#mask);}.cls-3{fill:#dd2a40;}</style><filter id="luminosity-noclip" x="1.95" y="1.96" width="12.09" height="12.09" filterUnits="userSpaceOnUse" color-interpolation-filters="sRGB"><feFlood flood-color="#fff" result="bg"/><feBlend in="SourceGraphic" in2="bg"/></filter><mask id="mask" x="1.95" y="1.96" width="12.09" height="12.09" maskUnits="userSpaceOnUse"><path class="cls-1" d="M5.06,12.51a1.77,1.77,0,0,1-1.16-.42,1.44,1.44,0,0,1-.3-1.61h0A4.79,4.79,0,0,1,6,8.23a4.69,4.69,0,0,1-2-2.2,2,2,0,0,1,.15-2.12,1.17,1.17,0,0,1,1.33-.33c1.25.41,2,1.83,2.08,3.83a8.88,8.88,0,0,1,3.92-1.23A1.52,1.52,0,0,1,13,7.52a1.28,1.28,0,0,1-.83,1.39A8.52,8.52,0,0,1,8.55,9l-.66-.16-.32-.08c-.19,1.65-.86,3.31-2,3.64A1.28,1.28,0,0,1,5.06,12.51ZM6.52,9.1a4.19,4.19,0,0,0-2,1.69h0c-.09.27-.08.46,0,.56a.79.79,0,0,0,.63.14C5.8,11.32,6.3,10.34,6.52,9.1ZM8.65,8l.15,0a8,8,0,0,0,3-.08A.31.31,0,0,0,12,7.63a.5.5,0,0,0-.49-.45A7.24,7.24,0,0,0,8.65,8ZM5.11,4.5A.18.18,0,0,0,5,4.56a1,1,0,0,0,0,1A3.77,3.77,0,0,0,6.63,7.42c-.06-1.24-.44-2.58-1.39-2.89Z"/></mask></defs><g class="cls-2"><path class="cls-3" d="M12.5,14h-9A1.55,1.55,0,0,1,2,12.5v-9A1.55,1.55,0,0,1,3.5,2l9,0A1.55,1.55,0,0,1,14.05,3.5v9A1.55,1.55,0,0,1,12.5,14Z"/></g></svg>