<svg id="Calque_1" data-name="Calque 1" xmlns="http://www.w3.org/2000/svg" xmlns:xlink="http://www.w3.org/1999/xlink" viewBox="0 0 16 16"><defs><style>.cls-1{mask:url(#mask);}.cls-2{fill:#748ce2;}.cls-3{filter:url(#luminosity-noclip);}</style><filter id="luminosity-noclip" x="1.5" y="3" width="13.5" height="10.22" filterUnits="userSpaceOnUse" color-interpolation-filters="sRGB"><feFlood flood-color="#fff" result="bg"/><feBlend in="SourceGraphic" in2="bg"/></filter><mask id="mask" x="1.5" y="3" width="13.5" height="10.22" maskUnits="userSpaceOnUse"><g class="cls-3"><circle cx="4.5" cy="6.5" r="0.5"/><path d="M8,7h-.5s2.9-3.86-1.27-4h.27C11,3,8,7,8,7Z"/></g></mask></defs><g class="cls-1"><path class="cls-2" d="M1.5,12V7S1.5,4,5,4h6.5A2.45,2.45,0,0,1,14,6.5,4.52,4.52,0,0,1,13.5,9v4a5.28,5.28,0,0,1-3,0V11h-3v2a5.28,5.28,0,0,1-3,0V9A1.47,1.47,0,0,0,3,10.5V12S2,12.5,1.5,12Z"/><path class="cls-2" d="M1.52,7s0-4,4.5-4,1.5,4,1.5,4Z"/><path class="cls-2" d="M11.5,4S15,4,15,7h-.5s0-2.5-3-2.5"/></g></svg>