<svg id="Calque_1" data-name="Calque 1" xmlns="http://www.w3.org/2000/svg" xmlns:xlink="http://www.w3.org/1999/xlink" viewBox="0 0 16 16"><defs><style>.cls-1{fill:#200;}.cls-2{mask:url(#mask);}.cls-3{fill:#0092c6;}.cls-4{filter:url(#luminosity-noclip);}</style><filter id="luminosity-noclip" x="1.5" y="3" width="13" height="10" filterUnits="userSpaceOnUse" color-interpolation-filters="sRGB"><feFlood flood-color="#fff" result="bg"/><feBlend in="SourceGraphic" in2="bg"/></filter><mask id="mask" x="1.5" y="3" width="13" height="10" maskUnits="userSpaceOnUse"><g class="cls-4"><path class="cls-1" d="M4.4,11.5A.46.46,0,0,1,4,11.29a.52.52,0,0,1,.11-.7L8.4,7.5,5.57,5.41a.53.53,0,0,1-.11-.7.49.49,0,0,1,.68-.12l3.38,2.5a.52.52,0,0,1,0,.82l-4.84,3.5A.47.47,0,0,1,4.4,11.5Z"/><path class="cls-1" d="M10.32,11.49H7.91a.5.5,0,0,1,0-1h2.41a.5.5,0,0,1,0,1Z"/></g></mask></defs><g class="cls-2"><path class="cls-3" d="M11.28,13h-9a.82.82,0,0,1-.77-1.06L4,3.59A.8.8,0,0,1,4.72,3h9a.82.82,0,0,1,.77,1.06L12,12.41A.8.8,0,0,1,11.28,13Z"/></g></svg>