<svg id="Calque_1" data-name="Calque 1" xmlns="http://www.w3.org/2000/svg" viewBox="0 0 16 16"><defs><style>.cls-1{fill:#0092c6;}</style></defs><path class="cls-1" d="M7.91,11.49a.5.5,0,0,1,0-1h2.41a.5.5,0,0,1,.49.49v0a.49.49,0,0,1-.49.48H7.91m-4-.51a.48.48,0,0,1,.21-.39L8.4,7.5,5.57,5.41a.53.53,0,0,1-.11-.7.46.46,0,0,1,.39-.21.52.52,0,0,1,.29.09l3.38,2.5a.52.52,0,0,1,0,.82l-4.84,3.5a.47.47,0,0,1-.28.09A.46.46,0,0,1,4,11.29.48.48,0,0,1,3.92,11v0M13.7,3h-9A.8.8,0,0,0,4,3.59L1.53,11.94A.82.82,0,0,0,2.3,13h9a.8.8,0,0,0,.76-.59l2.43-8.35A.82.82,0,0,0,13.7,3"/></svg>