<svg width="16" height="16" xmlns="http://www.w3.org/2000/svg"><path d="M6.96 15.6L.43 9.07a1.471 1.471 0 010-2.08L6.96.46a1.471 1.471 0 012.08 0l6.53 6.53c.574.574.574 1.5 0 2.08L9.04 15.6c-.574.574-1.5.574-2.08 0" fill="#fab040"/><path d="M8 1.16a1.28 1.28 0 00-.908.375l-5.56 5.56a1.278 1.278 0 00-.001 1.81l5.56 5.56c.494.502 1.31.501 1.81.001l5.56-5.56c.502-.494.5-1.31.001-1.81l-5.56-5.56a1.263 1.263 0 00-.904-.376zm0 .413c.22 0 .44.085.607.255l5.56 5.56a.856.856 0 01.002 1.22l-5.57 5.57a.856.856 0 01-1.22.002l-.001-.001-5.56-5.56a.856.856 0 01-.001-1.22l5.57-5.57A.864.864 0 018 1.573z" color="#000" fill="#040521" style="-inkscape-stroke:none"/><path d="M8.43 7.84c.148 0 .29-.01.427-.033a.999.999 0 00.362-.127.702.702 0 00.251-.267.938.938 0 00.094-.452.938.938 0 00-.094-.452.696.696 0 00-.251-.267.999.999 0 00-.362-.127 2.711 2.711 0 00-.427-.033h-1v1.76zm.353-2.76c.367 0 .679.053.937.16a1.629 1.629 0 01.982 1.023 2.217 2.217 0 010 1.393 1.629 1.629 0 01-.353.604 1.746 1.746 0 01-.629.423c-.258.107-.57.16-.937.16h-1.36v2.1h-1.3v-5.87z"/></svg>