<?xml version="1.0" encoding="UTF-8" standalone="no"?>
<!-- Created with Inkscape (http://www.inkscape.org/) -->

<svg
   xmlns:dc="http://purl.org/dc/elements/1.1/"
   xmlns:cc="http://creativecommons.org/ns#"
   xmlns:rdf="http://www.w3.org/1999/02/22-rdf-syntax-ns#"
   xmlns:svg="http://www.w3.org/2000/svg"
   xmlns="http://www.w3.org/2000/svg"
   xmlns:sodipodi="http://sodipodi.sourceforge.net/DTD/sodipodi-0.dtd"
   xmlns:inkscape="http://www.inkscape.org/namespaces/inkscape"
   width="214mm"
   height="256mm"
   viewBox="0 0 214 256"
   version="1.1"
   id="svg8"
   sodipodi:docname="prisma.svg"
   inkscape:version="0.92.5 (2060ec1f9f, 2020-04-08)">
  <defs
     id="defs2" />
  <sodipodi:namedview
     id="base"
     pagecolor="#ffffff"
     bordercolor="#666666"
     borderopacity="1.0"
     inkscape:pageopacity="0.0"
     inkscape:pageshadow="2"
     inkscape:zoom="0.49497475"
     inkscape:cx="-5.2380837"
     inkscape:cy="437.20037"
     inkscape:document-units="mm"
     inkscape:current-layer="layer1"
     showgrid="false"
     inkscape:window-width="1920"
     inkscape:window-height="948"
     inkscape:window-x="0"
     inkscape:window-y="27"
     inkscape:window-maximized="1" />
  <metadata
     id="metadata5">
    <rdf:RDF>
      <cc:Work
         rdf:about="">
        <dc:format>image/svg+xml</dc:format>
        <dc:type
           rdf:resource="http://purl.org/dc/dcmitype/StillImage" />
        <dc:title></dc:title>
      </cc:Work>
    </rdf:RDF>
  </metadata>
  <g
     inkscape:label="Camada 1"
     inkscape:groupmode="layer"
     id="layer1"
     transform="translate(0,-41)">
    <g
       id="g3878" />
    <g
       transform="matrix(5.3716635,0,0,5.359999,14.787964,64.927895)"
       id="g3772"
       style="fill:#0c344b;fill-opacity:1">
      <path
         style="clip-rule:evenodd;fill:#51cf66;fill-opacity:1;fill-rule:evenodd;stroke-width:0.83015615"
         inkscape:connector-curvature="0"
         d="M 30.131857,28.318377 18.711399,4.0653664 A 1.8329847,1.8329847 0 0 0 17.150705,3.0218601 1.8122308,1.8122308 0 0 0 15.482092,3.8868828 L 3.095332,23.949266 a 1.8761528,1.8761528 0 0 0 0.020754,2.013958 l 6.0559889,9.378274 a 1.9475463,1.9475463 0 0 0 2.1874611,0.804422 l 17.574405,-5.198438 a 1.9259622,1.9259622 0 0 0 1.209538,-1.044337 1.8844544,1.8844544 0 0 0 -0.01079,-1.585598 z m -2.556881,1.040186 -14.912925,4.409789 c -0.454925,0.135316 -0.891588,-0.259008 -0.79695,-0.718085 L 17.193043,7.5387392 c 0.09962,-0.477339 0.758763,-0.552884 0.967132,-0.11124 L 28.02326,28.372338 a 0.71227396,0.71227396 0 0 1 -0.449114,0.986225 z"
         id="path3761" />
    </g>
  </g>
</svg>
