<svg width="16" height="16" viewBox="0 0 16 16" fill="none" xmlns="http://www.w3.org/2000/svg">
<path d="M5 3.28571V4H7.8V5H4.2C3.9 5 2 5.07143 2 8.5C2 10.5571 3.2 11 3.5 11H4V9.28571C4 7.91429 5.4 7.57143 6 7.57143H9.15C10.5 7.57143 10.5 6.71429 10.5 6.28571V3.28571C10.5 3 9.96 2 7.8 2C5.64 2 5 3 5 3.28571Z" fill="#418AC9"/>
<path d="M10.5 12.7143L10.5 12L7.9 12L7.9 11L11.1 11C11.3667 11 13.5 11 13.5 7.57143C13.5 5.51429 12.1667 5 11.9 5L11.5 5L11.5 6.71429C11.5 8.08571 10.0333 8.42857 9.5 8.42857L6.2 8.42857C5 8.42857 5 9.28571 5 9.71429L5 12.7143C5 13 5.98 14 7.9 14C9.82 14 10.5 13 10.5 12.7143Z" fill="#FFD242"/>
</svg>
