<svg width="16" height="16" viewBox="0 0 16 16" fill="none" xmlns="http://www.w3.org/2000/svg">
<path d="M12.6019 11.5964C13.3941 10.5877 13.8666 9.316 13.8666 7.93391C13.8666 4.65671 11.2102 2 7.93329 2C7.22048 2 6.53706 2.12583 5.90391 2.3563C8.3127 3.61999 11.499 7.7429 12.6019 11.5964Z" fill="#5E7DD0"/>
<path d="M7.08352 5.78513C6.15796 4.78792 5.12144 3.99595 4.02364 3.4707C2.78333 4.55832 2 6.15452 2 7.93389C2 9.43005 2.55387 10.7967 3.46748 11.8405C4.27287 9.42048 5.78697 7.088 7.08352 5.78513Z" fill="#D53D41"/>
<path d="M8.1768 7.13068C6.8923 8.51516 5.6123 10.9388 5.14906 13.1748C5.97939 13.6169 6.92699 13.8678 7.93332 13.8678C8.96791 13.8678 9.94048 13.6028 10.7873 13.1372C10.2992 10.8816 9.37779 8.81587 8.1768 7.13068Z" fill="#D53D41"/>
</svg>
