<svg width="16" height="16" viewBox="0 0 16 16" fill="none" xmlns="http://www.w3.org/2000/svg">
<path fill-rule="evenodd" clip-rule="evenodd" d="M6.89492 6.21009C5.78494 6.65012 5 7.73339 5 9C5 10.248 5.76211 11.3181 6.84633 11.7702C6.54471 12.4924 5.83163 13 5 13C3.89543 13 3 12.1046 3 11C3 10.6028 3.11577 10.2327 3.3154 9.92153C1.98842 9.6118 1 8.42133 1 7C1 5.34315 2.34315 4 4 4C5.38347 4 6.54821 4.93647 6.89492 6.21009ZM9.15366 11.7702C10.2379 11.3181 11 10.248 11 9C11 7.73339 10.2151 6.65012 9.10508 6.21009C9.45179 4.93647 10.6165 4 12 4C13.6569 4 15 5.34315 15 7C15 8.42133 14.0116 9.6118 12.6846 9.92153C12.8842 10.2327 13 10.6028 13 11C13 12.1046 12.1046 13 11 13C10.1684 13 9.45529 12.4924 9.15366 11.7702Z" fill="#909090" fill-opacity="0.9"/>
<circle cx="8" cy="9" r="2" fill="#F4BC2C"/>
</svg>
