<svg xmlns="http://www.w3.org/2000/svg" width="16" height="16" fill="none"><path fill="#EF5F32" fill-rule="evenodd" d="M3.714 4.111V3h8.572v1.111C13.5 4.111 14 4.667 14 6.333v3.334c0 1.666-.5 2.222-1.714 2.222V13H3.714v-1.111C2.5 11.889 2 11.333 2 10.222V5.778c0-1.111.5-1.667 1.714-1.667Zm0 5c0 .307.05.556.286.556.237 0 .5-.25.5-.556l.071-.555h.503l.426.555.994-.555h.293c.177.647.653 1.11 1.213 1.11s1.036-.463 1.213-1.11h.146l1.141.555.28-.555h.649v.555c0 .307.334.556.571.556.237 0 .286-.25.286-.556V6.89c0-.307-.05-.556-.286-.556-.237 0-.571.25-.571.556v.555h-.502L10.5 6.89l-1.288.555C9.036 6.797 8.56 6.334 8 6.334c-.56 0-1.036.463-1.213 1.11h-.146L5.5 6.89l-.574.555h-.355L4.5 6.89c0-.307-.263-.556-.5-.556s-.286.25-.286.556V9.11Z" clip-rule="evenodd"/></svg>
