<svg id="Calque_1" data-name="Calque 1" xmlns="http://www.w3.org/2000/svg" viewBox="0 0 16 16"><defs><style>.cls-1{fill:#61dafb;}</style></defs><path class="cls-1" d="M15,8c0-.93-1.16-1.8-2.94-2.35.41-1.81.23-3.26-.58-3.72a1.22,1.22,0,0,0-.64-.16v.64a.67.67,0,0,1,.33.07c.39.22.55,1.07.42,2.16,0,.27-.08.55-.14.84a13.63,13.63,0,0,0-1.81-.31A14.78,14.78,0,0,0,8.45,3.72a4.23,4.23,0,0,1,2.4-1.34V1.75h0A4.78,4.78,0,0,0,8,3.28,4.71,4.71,0,0,0,5.14,1.76v.63a4.29,4.29,0,0,1,2.4,1.33A13.42,13.42,0,0,0,6.36,5.15a13.63,13.63,0,0,0-1.81.31,6.32,6.32,0,0,1-.15-.83c-.14-1.09,0-1.93.42-2.16a.61.61,0,0,1,.32-.07V1.76h0a1.24,1.24,0,0,0-.64.16c-.8.46-1,1.9-.57,3.71C2.16,6.18,1,7.06,1,8s1.16,1.81,2.94,2.35c-.41,1.82-.23,3.26.58,3.72a1.22,1.22,0,0,0,.64.16A4.74,4.74,0,0,0,8,12.69a4.8,4.8,0,0,0,2.85,1.51,1.28,1.28,0,0,0,.65-.16c.8-.46,1-1.9.57-3.71C13.84,9.79,15,8.91,15,8Zm-3.72-1.9a10.72,10.72,0,0,1-.38,1.13c-.12-.23-.24-.46-.37-.69l-.42-.67C10.52,5.91,10.91,6,11.28,6.08Zm-1.3,3c-.23.38-.45.75-.69,1.09q-.64.06-1.29.06c-.43,0-.86,0-1.28-.06Q6.36,9.7,6,9.13T5.43,8c.18-.38.38-.76.59-1.14s.45-.75.69-1.09c.43,0,.86,0,1.29,0s.86,0,1.28,0q.36.51.69,1.08T10.57,8C10.39,8.36,10.19,8.74,10,9.12Zm.92-.37c.15.38.28.76.39,1.13-.37.09-.76.17-1.17.23.14-.22.28-.44.41-.68S10.78,9,10.9,8.75ZM8,11.79a10.39,10.39,0,0,1-.8-.91l.79,0,.79,0C8.53,11.21,8.27,11.52,8,11.79ZM5.88,10.11c-.4-.06-.79-.13-1.17-.22.11-.37.24-.75.39-1.13.11.23.24.46.37.68ZM8,4.17a10.5,10.5,0,0,1,.79.92c-.25,0-.51,0-.78,0s-.53,0-.79,0A10.45,10.45,0,0,1,8,4.17ZM5.88,5.85c-.14.22-.28.45-.41.68s-.26.46-.37.68a10.94,10.94,0,0,1-.4-1.13C5.08,6,5.47,5.91,5.88,5.85ZM3.3,9.43C2.29,9,1.63,8.43,1.63,8S2.29,7,3.3,6.54a7.25,7.25,0,0,1,.79-.29A12.82,12.82,0,0,0,4.73,8,13.51,13.51,0,0,0,4.1,9.72C3.81,9.63,3.55,9.53,3.3,9.43ZM4.83,13.5c-.39-.22-.55-1.07-.42-2.16,0-.26.08-.55.14-.84a13.6,13.6,0,0,0,1.81.32,15.92,15.92,0,0,0,1.19,1.42,4.17,4.17,0,0,1-2.4,1.34A.66.66,0,0,1,4.83,13.5Zm6.77-2.17c.14,1.09,0,1.94-.42,2.16a.61.61,0,0,1-.32.08,4.23,4.23,0,0,1-2.4-1.33,13.42,13.42,0,0,0,1.18-1.43,13.63,13.63,0,0,0,1.81-.31A6.63,6.63,0,0,1,11.6,11.33Zm1.1-1.9a8.11,8.11,0,0,1-.79.28A14.2,14.2,0,0,0,11.27,8a14.7,14.7,0,0,0,.63-1.73,8.32,8.32,0,0,1,.8.29c1,.43,1.67,1,1.67,1.44S13.71,9,12.7,9.43Z"/><circle class="cls-1" cx="8" cy="7.98" r="1.3"/></svg>