<svg id="Calque_1" data-name="Calque 1" xmlns="http://www.w3.org/2000/svg" viewBox="0 0 16 16"><defs><style>.cls-1{fill:#46acc9;}</style></defs><path class="cls-1" d="M6.58,8.08a.44.44,0,0,1,0-.66,2.16,2.16,0,0,1,1.34-.58c.44,0,.68.2.58.66l-.66,2.57c-.13.61,0,.87.27.87s.49-.14.67-.57c.23,0,.36.12.36.32h0c0,.84-1,1.41-1.66,1.41a1.09,1.09,0,0,1-1.16-1.43l.62-2.44c0-.19,0-.3-.12-.3s-.13.05-.24.15M8.23,3.82h0A.75.75,0,0,1,9,4.66a1,1,0,0,1-.94.84.71.71,0,0,1-.74-.84.92.92,0,0,1,.91-.84M8,2a6,6,0,1,0,6,6A6,6,0,0,0,8,2"/></svg>