<svg id="Calque_1" data-name="Calque 1" xmlns="http://www.w3.org/2000/svg" xmlns:xlink="http://www.w3.org/1999/xlink" viewBox="0 0 16 16"><defs><style>.cls-1{filter:url(#luminosity-noclip);}.cls-2{mask:url(#mask);}.cls-3{fill:#46acc9;}</style><filter id="luminosity-noclip" x="2" y="2" width="12" height="12" filterUnits="userSpaceOnUse" color-interpolation-filters="sRGB"><feFlood flood-color="#fff" result="bg"/><feBlend in="SourceGraphic" in2="bg"/></filter><mask id="mask" x="2" y="2" width="12" height="12" maskUnits="userSpaceOnUse"><path class="cls-1" d="M6.94,8.23c0-.19,0-.3-.12-.3s-.13.05-.24.15a.44.44,0,0,1,0-.66,2.16,2.16,0,0,1,1.34-.58c.44,0,.68.2.58.66l-.66,2.57c-.13.61,0,.87.27.87s.49-.14.67-.57c.23,0,.36.12.36.32,0,.84-1,1.41-1.66,1.41a1.09,1.09,0,0,1-1.16-1.43ZM8.23,3.82A.75.75,0,0,1,9,4.66a1,1,0,0,1-.94.84.71.71,0,0,1-.74-.84A.92.92,0,0,1,8.23,3.82Z"/></mask></defs><g class="cls-2"><circle class="cls-3" cx="8" cy="8" r="6"/></g></svg>