<svg id="Calque_1" data-name="Calque 1" xmlns="http://www.w3.org/2000/svg" xmlns:xlink="http://www.w3.org/1999/xlink" viewBox="0 0 16 16"><defs><style>.cls-1{mask:url(#mask);}.cls-2{fill:#8949ce;}.cls-3{filter:url(#luminosity-noclip);}</style><filter id="luminosity-noclip" x="2.45" y="4.95" width="11.09" height="8.59" filterUnits="userSpaceOnUse" color-interpolation-filters="sRGB"><feFlood flood-color="#fff" result="bg"/><feBlend in="SourceGraphic" in2="bg"/></filter><mask id="mask" x="2.45" y="4.95" width="11.09" height="8.59" maskUnits="userSpaceOnUse"><g class="cls-3"><circle cx="5.5" cy="8" r="1.5"/><circle cx="10.5" cy="8" r="1.5"/><rect x="6" y="10.5" width="4" height="1.5" rx="0.75"/></g></mask></defs><g class="cls-1"><path class="cls-2" d="M3.5,13.55a1,1,0,0,1-1-1.05V6a1,1,0,0,1,1-1h9a1,1,0,0,1,1.05,1v6.45A1,1,0,0,1,12.5,13.5Z"/></g><polyline class="cls-2" points="7 5 6 2 7 2.5 8.5 5"/><circle class="cls-2" cx="6.5" cy="2" r="1"/><path class="cls-2" d="M3.5,9S6,8.5,6,10C4,10.5,3.5,9,3.5,9Z"/><path class="cls-2" d="M12.5,9S10,8.5,10,10"/></svg>