<svg width="16" height="16" viewBox="0 0 16 16" fill="none" xmlns="http://www.w3.org/2000/svg">
<path d="M8.95338 2.08147C9.02252 2.09314 9.08508 2.13831 9.12733 2.20706C9.16957 2.2758 9.18804 2.36248 9.17868 2.44807C9.17484 2.48126 9.16708 2.51356 9.15564 2.54395L9.0835 2.73195L8.52532 4.17737C8.50257 4.23562 8.46638 4.28422 8.42132 4.31702C8.37626 4.34981 8.32436 4.36533 8.27218 4.36161C8.18172 4.35493 8.09101 4.35158 8.00005 4.35158C7.90908 4.35158 7.81846 4.35461 7.72817 4.36067C7.67598 4.36443 7.62406 4.34893 7.579 4.31613C7.53393 4.28333 7.49775 4.23471 7.47503 4.17643L6.91634 2.73039L6.84445 2.54238C6.8296 2.50377 6.82104 2.46191 6.81926 2.4192C6.81748 2.37649 6.82252 2.33376 6.83408 2.29346C6.84565 2.25316 6.86352 2.21607 6.88667 2.18432C6.90981 2.15257 6.93779 2.12678 6.969 2.10841C6.99351 2.09412 7.01962 2.08451 7.04646 2.0799C7.67919 1.97337 8.32065 1.97337 8.95338 2.0799V2.08147Z" fill="#F4BC2C"/>
<path d="M3.7 9.6696H2.3C2.13431 9.6696 2 9.80392 2 9.9696V13.6696C2 13.8353 2.13431 13.9696 2.3 13.9696H3.7C3.86569 13.9696 4 13.8353 4 13.6696V9.9696C4 9.80392 3.86569 9.6696 3.7 9.6696Z" fill="#909090" fill-opacity="0.9"/>
<path d="M13.7 9.6696H12.3C12.1343 9.6696 12 9.80392 12 9.9696V13.6696C12 13.8353 12.1343 13.9696 12.3 13.9696H13.7C13.8657 13.9696 14 13.8353 14 13.6696V9.9696C14 9.80392 13.8657 9.6696 13.7 9.6696Z" fill="#909090" fill-opacity="0.9"/>
<path d="M11 9.1696V13.6696C11 13.8353 10.8657 13.9696 10.7 13.9696H9.3C9.13431 13.9696 9 13.8353 9 13.6696V8.6696C9 8.1696 8.50025 7.6696 8.00013 7.6696C7.5 7.6696 7 8.1696 7 8.6696V13.6696C7 13.8353 6.86569 13.9696 6.7 13.9696H5.3C5.13431 13.9696 5 13.8353 5 13.6696V9.1696C5 6.6696 6 5.6696 8.00013 5.6696C10 5.6696 11 6.6696 11 9.1696Z" fill="#F4BC2C"/>
<path d="M3.7 8.6696H2.3C2.13431 8.6696 1.99935 8.53464 2.0059 8.36909C2.13621 5.07216 4.39574 3.32885 5.74225 3C5.88117 2.96607 6.01613 3.05343 6.06148 3.18905C6.40674 4.22156 6.12885 3.36163 6.4529 4.3297C6.50549 4.48681 6.4203 4.65707 6.26855 4.72358C4.99253 5.28285 4.10065 6.63895 4.00798 8.36943C3.99912 8.53488 3.86569 8.6696 3.7 8.6696Z" fill="#909090" fill-opacity="0.9"/>
<path d="M12.2995 8.6696H13.6995C13.8652 8.6696 14.0002 8.53464 13.9936 8.36909C13.8633 5.07216 11.6038 3.32885 10.2573 3C10.1184 2.96607 9.9834 3.05343 9.93805 3.18905C9.59279 4.22156 9.87068 3.36163 9.54663 4.3297C9.49404 4.48681 9.57923 4.65707 9.73098 4.72358C11.007 5.28285 11.8989 6.63895 11.9916 8.36943C12.0004 8.53488 12.1338 8.6696 12.2995 8.6696Z" fill="#909090" fill-opacity="0.9"/>
</svg>
