<svg width="16" height="16" viewBox="0 0 16 16" fill="none" xmlns="http://www.w3.org/2000/svg">
<path opacity="0.6" fill-rule="evenodd" clip-rule="evenodd" d="M8.65 5H14C14.1356 4.99983 14.2699 5.02726 14.3946 5.08061C14.5193 5.13396 14.6318 5.21213 14.7254 5.31035C14.8189 5.40857 14.8915 5.52479 14.9387 5.65195C14.9859 5.7791 15.0068 5.91453 15 6.05V12C15.0068 12.1355 14.9859 12.2709 14.9387 12.3981C14.8915 12.5252 14.8189 12.6414 14.7254 12.7397C14.6318 12.8379 14.5193 12.916 14.3946 12.9694C14.2699 13.0227 14.1356 13.0502 14 13.05H2.05C1.91436 13.0502 1.78011 13.0227 1.6554 12.9694C1.5307 12.916 1.41815 12.8379 1.32461 12.7397C1.23107 12.6414 1.15848 12.5252 1.11127 12.3981C1.06406 12.2709 1.04322 12.1355 1.05 12V4C1.05 3.73478 1.15536 3.48043 1.34289 3.29289C1.53043 3.10536 1.78478 3 2.05 3H6.35C6.54633 2.99367 6.74017 3.0453 6.90734 3.14845C7.07451 3.25159 7.2076 3.40169 7.29 3.58L7.71 4.42C7.7924 4.59831 7.92549 4.74841 8.09266 4.85156C8.25983 4.9547 8.45367 5.00633 8.65 5ZM6.94999 9H14L14.05 6H14H8.65C8.25724 6.02593 7.86555 5.93539 7.52401 5.73972C7.18248 5.54405 6.90627 5.25194 6.73 4.9L6.3 4.05H2V9H2.05001C2.01722 9.16155 2 9.32877 2 9.5C2 10.8807 3.11929 12 4.5 12C5.88071 12 7 10.8807 7 9.5C7 9.32877 6.98278 9.16155 6.94999 9Z" fill="#FF9F69"/>
<circle opacity="0.6" cx="4.5" cy="9.5" r="1.5" fill="#FF9F69"/>
</svg>
