<svg width="16" height="16" viewBox="0 0 16 16" fill="none" xmlns="http://www.w3.org/2000/svg">
<path opacity="0.6" fill-rule="evenodd" clip-rule="evenodd" d="M15 12V6.05C15.0068 5.91454 14.9859 5.7791 14.9387 5.65195C14.8915 5.52479 14.8189 5.40857 14.7254 5.31035C14.6318 5.21213 14.5193 5.13396 14.3946 5.08061C14.2699 5.02726 14.1356 4.99983 14 5H8.65C8.45089 5.02091 8.25009 4.98158 8.07358 4.88709C7.89708 4.79259 7.753 4.6473 7.66 4.47L7.24 3.63C7.1576 3.45169 7.02451 3.3016 6.85734 3.19845C6.69017 3.0953 6.49633 3.04367 6.3 3.05H2C1.73478 3.05 1.48043 3.15536 1.29289 3.3429C1.10536 3.53043 1 3.78479 1 4.05V12C0.999831 12.1356 1.02726 12.2699 1.08061 12.3946C1.13396 12.5193 1.21212 12.6318 1.31034 12.7254C1.40857 12.8189 1.52479 12.8915 1.65194 12.9387C1.7791 12.9859 1.91453 13.0068 2.05 13H14C14.2652 13 14.5196 12.8946 14.7071 12.7071C14.8946 12.5196 15 12.2652 15 12ZM4.5 12C5.88071 12 7 10.8807 7 9.5C7 8.11929 5.88071 7 4.5 7C3.11929 7 2 8.11929 2 9.5C2 10.8807 3.11929 12 4.5 12Z" fill="#FF9F69"/>
<circle opacity="0.6" cx="4.5" cy="9.5" r="1.5" fill="#FF9F69"/>
</svg>
