<svg width="16" height="16" viewBox="0 0 16 16" fill="none" xmlns="http://www.w3.org/2000/svg">
<path opacity="0.8" fill-rule="evenodd" clip-rule="evenodd" d="M8.65 5H13C13.1356 4.99983 13.2699 5.02726 13.3946 5.08061C13.5193 5.13396 13.6318 5.21213 13.7254 5.31035C13.8189 5.40857 13.8915 5.52479 13.9387 5.65195C13.9859 5.7791 14.0068 5.91453 14 6.05V12C14.0068 12.1355 13.9859 12.2709 13.9387 12.3981C13.8915 12.5252 13.8189 12.6414 13.7254 12.7397C13.6318 12.8379 13.5193 12.916 13.3946 12.9694C13.2699 13.0227 13.1356 13.0502 13 13.05H3.05C2.91436 13.0502 2.78011 13.0227 2.6554 12.9694C2.5307 12.916 2.41815 12.8379 2.32461 12.7397C2.23107 12.6414 2.15848 12.5252 2.11127 12.3981C2.06406 12.2709 2.04322 12.1355 2.05 12V4C2.05 3.73478 2.15536 3.48043 2.34289 3.29289C2.53043 3.10536 2.78478 3 3.05 3H6.35C6.54633 2.99367 6.74017 3.0453 6.90734 3.14845C7.07451 3.25159 7.2076 3.40169 7.29 3.58L7.71 4.42C7.7924 4.59831 7.92549 4.74841 8.09266 4.85156C8.25983 4.9547 8.45367 5.00633 8.65 5ZM5.5 12H13L13.05 6H13H8.65C8.25724 6.02593 7.86555 5.93539 7.52401 5.73972C7.18248 5.54405 6.90627 5.25194 6.73 4.9L6.3 4.05H3V9.5C3 10.8807 4.11929 12 5.5 12Z" fill="#D67045"/>
<circle opacity="0.8" cx="5.5" cy="9.5" r="1.5" fill="#D67045"/>
</svg>
