<svg width="16" height="16" viewBox="0 0 16 16" fill="none" xmlns="http://www.w3.org/2000/svg">
<path opacity="0.6" fill-rule="evenodd" clip-rule="evenodd" d="M14 12V6.05C14.0068 5.91454 13.9859 5.7791 13.9387 5.65195C13.8915 5.52479 13.8189 5.40857 13.7254 5.31035C13.6318 5.21213 13.5193 5.13396 13.3946 5.08061C13.2699 5.02726 13.1356 4.99983 13 5H8.65C8.45089 5.02091 8.25009 4.98158 8.07358 4.88709C7.89708 4.79259 7.753 4.6473 7.66 4.47L7.24 3.63C7.1576 3.45169 7.02451 3.3016 6.85734 3.19845C6.69017 3.0953 6.49633 3.04367 6.3 3.05H3C2.73478 3.05 2.48043 3.15536 2.29289 3.3429C2.10536 3.53043 2 3.78479 2 4.05V12C1.99983 12.1356 2.02726 12.2699 2.08061 12.3946C2.13396 12.5193 2.21212 12.6318 2.31034 12.7254C2.40857 12.8189 2.52479 12.8915 2.65194 12.9387C2.7791 12.9859 2.91453 13.0068 3.05 13H13C13.2652 13 13.5196 12.8946 13.7071 12.7071C13.8946 12.5196 14 12.2652 14 12ZM5.5 12C6.88071 12 8 10.8807 8 9.5C8 8.11929 6.88071 7 5.5 7C4.11929 7 3 8.11929 3 9.5C3 10.8807 4.11929 12 5.5 12Z" fill="#FF9F69"/>
<circle opacity="0.6" cx="5.5" cy="9.5" r="1.5" fill="#FF9F69"/>
</svg>
