<svg width="16" height="16" viewBox="0 0 16 16" fill="none" xmlns="http://www.w3.org/2000/svg">
<g clip-path="url(#clip0_910_64)">
<path d="M4 5.9384V2.89528C4.30395 2.7885 4.62289 2.75674 4.93842 2.71269C6.32658 2.51916 7.71895 2.35392 9.09737 2.09446C9.80237 1.96099 10.5055 1.81684 11.1792 1.56057C11.4945 1.43832 11.8045 1.30431 12 1V3.98973C11.9584 4.09986 11.8865 4.19557 11.7929 4.26548C11.7139 4.32581 11.6316 4.3816 11.5508 4.43926C11.5211 4.44586 11.492 4.45479 11.4637 4.46595C11.1313 4.63119 10.7771 4.7329 10.4216 4.82846C9.47605 5.07912 8.51316 5.23875 7.54684 5.37756C6.58053 5.51637 5.61447 5.64476 4.64921 5.78544C4.43 5.81747 4.20395 5.83402 4 5.9384Z" fill="#DB322F"/>
<path d="M12 9.0616V12.078C11.9084 12.298 11.7239 12.4162 11.5263 12.5166C11.1776 12.6939 10.8066 12.8102 10.4303 12.9071C8.91263 13.3019 7.36026 13.4904 5.81263 13.708C5.20737 13.7929 4.59526 13.8462 4 14.0016V10.9836C4.13158 10.9184 4.275 10.8971 4.41711 10.8768C5.3036 10.7497 6.19035 10.6243 7.07737 10.5004C7.15632 10.4593 7.24132 10.482 7.32289 10.4694C8.00132 10.3648 8.68026 10.2636 9.35289 10.1259C10.0305 9.98735 10.7076 9.84374 11.3487 9.56985C11.6089 9.45881 11.8576 9.32854 12 9.0616Z" fill="#DB322F"/>
<path d="M4 9.9692V6.92608C4.47368 6.80222 4.96026 6.75283 5.44342 6.68583C6.00114 6.60788 6.55877 6.53047 7.11632 6.45359C7.16395 6.44879 7.21237 6.44665 7.25974 6.43891C7.79974 6.35242 8.34079 6.27234 8.87895 6.17571C9.63737 6.03957 10.3945 5.89035 11.1208 5.62101C11.4568 5.49661 11.7987 5.36875 12 5.0316V8.07392C11.8837 8.24732 11.7224 8.38477 11.5339 8.47113C11.2058 8.64597 10.8532 8.75275 10.4979 8.84912C9.59632 9.09337 8.67763 9.24632 7.75605 9.3886C6.81395 9.53409 5.86842 9.64887 4.925 9.78661C4.61447 9.83226 4.29816 9.85521 4 9.9692Z" fill="#DB322F"/>
<path d="M12 5.0308C11.7987 5.36795 11.4568 5.49581 11.1208 5.62021C10.3945 5.88955 9.63737 6.03877 8.87895 6.17491C8.34079 6.27154 7.8 6.35162 7.25974 6.43811C7.21237 6.44585 7.16395 6.44799 7.11632 6.45279C7.07369 6.44318 7.03185 6.4301 6.98895 6.42423C6.37842 6.34148 5.76737 6.26407 5.15764 6.17598C4.76948 6.12019 4.37685 6.08575 3.99974 5.96509V5.9384C4.20369 5.83403 4.42974 5.81748 4.64895 5.78544C5.61448 5.64477 6.58132 5.5169 7.54685 5.37783C8.51237 5.23875 9.47606 5.07992 10.4211 4.82926C10.7766 4.73503 11.1316 4.63199 11.4632 4.46676C11.4915 4.45559 11.5206 4.44667 11.5503 4.44006C11.7434 4.53696 11.9158 4.65709 12 4.87064V5.0308Z" fill="#7F0D1D"/>
<path d="M4 9.9692C4.29816 9.85522 4.61447 9.83226 4.925 9.78661C5.86842 9.64887 6.81395 9.53409 7.75605 9.3886C8.67711 9.24633 9.59632 9.09337 10.4979 8.84912C10.8532 8.75275 11.2058 8.64598 11.5339 8.47113C11.7313 8.56776 11.905 8.69082 12 8.90144V9.0616C11.8576 9.32854 11.6089 9.45881 11.3487 9.56879C10.7076 9.84267 10.0305 9.98628 9.35289 10.1248C8.68026 10.2626 8.00132 10.3637 7.32289 10.4684C7.24132 10.4809 7.15526 10.4582 7.07737 10.4993C7.06605 10.4652 7.03526 10.4745 7.01158 10.4726C6.25 10.3659 5.48789 10.2644 4.72658 10.1545C4.48158 10.1187 4.23132 10.0997 4 9.99589V9.9692Z" fill="#7F0D1D"/>
</g>
<defs>
<clipPath id="clip0_910_64">
<rect width="8" height="13" fill="white" transform="translate(4 1)"/>
</clipPath>
</defs>
</svg>
