<svg width="16" height="16" viewBox="0 0 16 16" fill="none" xmlns="http://www.w3.org/2000/svg">
<path fill-rule="evenodd" clip-rule="evenodd" d="M9.68 8.79V8.86L9.62 8.83L9.68 8.79Z" fill="#256F44"/>
<path fill-rule="evenodd" clip-rule="evenodd" d="M8 12.87V14.83L2 11.38L2.03 4.48V4.47L3.72 5.45L3.76 5.47V10.42L8 12.87Z" fill="#2977E0"/>
<path fill-rule="evenodd" clip-rule="evenodd" d="M13.97 4.47V11.4L8.02 14.84L8 14.83V12.87L10.17 11.62L12.24 10.37V5.47L12.28 5.45L13.97 4.47Z" fill="#2977E0"/>
<path fill-rule="evenodd" clip-rule="evenodd" d="M5.89 9.1V11.06L5.02 10.56L4.22 10.1V8.14L5.89 9.1Z" fill="#2977E0"/>
<path fill-rule="evenodd" clip-rule="evenodd" d="M10.18 9.15V11.11L9.74 10.86V9.43L9.27 9.15L9.17 9.09L9.62 8.83L9.68 8.86L10.18 9.15Z" fill="#2977E0"/>
<path fill-rule="evenodd" clip-rule="evenodd" d="M8.08 10.39V12.35L7.21 11.85L6.41 11.39V9.43L7.55 10.09L8.08 10.39Z" fill="#2977E0"/>
<path fill-rule="evenodd" clip-rule="evenodd" d="M8.01 5.3V5.87L7.55 6.13V5.51L6.34 4.8V4.34L8.01 5.3Z" fill="#2977E0"/>
<path fill-rule="evenodd" clip-rule="evenodd" d="M5.89 6.48V8.44L5.02 7.94L4.78 7.8L4.22 7.48V5.51L5.89 6.48Z" fill="#2977E0"/>
<path fill-rule="evenodd" clip-rule="evenodd" d="M10.18 6.53V8.49L9.74 8.24V6.8L9.28 6.53L8.51 6.08V5.57L9.68 6.24L10.18 6.53Z" fill="#2977E0"/>
<path fill-rule="evenodd" clip-rule="evenodd" d="M8.08 7.77V9.73L8.01 9.69L7.55 9.43L7.21 9.23L6.97 9.09L6.44 8.78L6.41 8.76V6.8L6.5 6.85H6.51L7.55 7.46L8.08 7.77Z" fill="#2977E0"/>
<path fill-rule="evenodd" clip-rule="evenodd" d="M14 4.46L13.97 4.47V4.48L12.28 5.45L8 3.01L3.72 5.45L2.03 4.48V4.47L2 4.46L8.02 1L14 4.46Z" fill="#46B9FD"/>
<path fill-rule="evenodd" clip-rule="evenodd" d="M6.44 8.78L6.34 8.84L5.89 9.1L4.22 8.14L4.78 7.8L5.02 7.94L5.89 8.44L6.34 8.18L6.41 8.14V8.76L6.44 8.78Z" fill="#46B9FD"/>
<path fill-rule="evenodd" clip-rule="evenodd" d="M11.85 8.19L10.18 9.15L9.68 8.86L9.62 8.83L9.68 8.79L9.74 8.76V8.24L10.18 8.49L11.28 7.86L11.85 8.19Z" fill="#46B9FD"/>
<path fill-rule="evenodd" clip-rule="evenodd" d="M9.74 9.43L8.51 10.14L8.08 10.39L7.55 10.09L6.41 9.43V9.41L6.8 9.19L6.97 9.09L7.21 9.23L7.55 9.43L8.01 9.69L8.08 9.73L8.51 9.48L9.17 9.09L9.27 9.15L9.74 9.43Z" fill="#46B9FD"/>
<path fill-rule="evenodd" clip-rule="evenodd" d="M9.71 4.32L8.01 5.3L6.34 4.34V4.32L8.01 3.36L8.03 3.35L8.87 3.84L9.71 4.32Z" fill="#46B9FD"/>
<path fill-rule="evenodd" clip-rule="evenodd" d="M7.55 5.51L6.34 6.22L5.89 6.48L4.22 5.51L5.06 5.02L5.89 4.54L6.34 4.8L7.55 5.51Z" fill="#46B9FD"/>
<path fill-rule="evenodd" clip-rule="evenodd" d="M11.85 5.57L10.18 6.53L9.68 6.24L8.51 5.57V5.55L9.36 5.07L9.7 4.87L10.18 4.59L11.85 5.57Z" fill="#46B9FD"/>
<path fill-rule="evenodd" clip-rule="evenodd" d="M9.74 6.8L9.6 6.88L8.51 7.52L8.08 7.77L7.55 7.46L6.51 6.85H6.5L6.41 6.8V6.79L6.8 6.56L7.25 6.3L7.55 6.13L8.01 5.87L8.08 5.83L8.51 6.08L9.28 6.53L9.74 6.8Z" fill="#46B9FD"/>
</svg>
