<svg id="Calque_1" data-name="Calque 1" xmlns="http://www.w3.org/2000/svg" xmlns:xlink="http://www.w3.org/1999/xlink" viewBox="0 0 16 16"><defs><style>.cls-1{filter:url(#luminosity-noclip);}.cls-2{mask:url(#mask);}.cls-3{fill:#c43d55;}</style><filter id="luminosity-noclip" x="1.45" y="2.45" width="13.09" height="11.09" filterUnits="userSpaceOnUse" color-interpolation-filters="sRGB"><feFlood flood-color="#fff" result="bg"/><feBlend in="SourceGraphic" in2="bg"/></filter><mask id="mask" x="1.45" y="2.45" width="13.09" height="11.09" maskUnits="userSpaceOnUse"><rect class="cls-1" x="2.5" y="5.5" width="11" height="7"/></mask></defs><g class="cls-2"><path class="cls-3" d="M13.5,2.45a1,1,0,0,1,1.05,1v9a1,1,0,0,1-1.05,1.05H2.5a1,1,0,0,1-1-1.05V3.55a1,1,0,0,1,1.05-1Z"/></g><polygon class="cls-3" points="6.5 6 6.5 7.5 9 9 6.5 10.5 6.5 12 10.5 9.5 10.5 8.5 6.5 6"/></svg>