<svg width="16" height="16" viewBox="0 0 16 16" fill="none" xmlns="http://www.w3.org/2000/svg">
<path fill-rule="evenodd" clip-rule="evenodd" d="M12.473 2V8.61957L8.9046 6.41304H7.32088V4.20652H8.79913V4.17391L12.473 2ZM3.64696 8.61957V2L7.32087 4.17391V6.44565L3.64696 8.61957ZM9.27739 9.6087C9.27739 10.281 8.73235 10.8261 8.06 10.8261C7.38766 10.8261 6.84261 10.281 6.84261 9.6087C6.84261 8.93635 7.38766 8.39131 8.06 8.39131C8.73235 8.39131 9.27739 8.93635 9.27739 9.6087ZM8.06 14.5C8.73235 14.5 9.27739 13.955 9.27739 13.2826C9.27739 12.6103 8.73235 12.0652 8.06 12.0652C7.38766 12.0652 6.84261 12.6103 6.84261 13.2826C6.84261 13.955 7.38766 14.5 8.06 14.5Z" fill="#9C9C9C"/>
</svg>
