<svg width="16" height="16" viewBox="0 0 16 16" fill="none" xmlns="http://www.w3.org/2000/svg">
<path fill-rule="evenodd" clip-rule="evenodd" d="M12.473 2V8.61957L8.9046 6.41304H7.32087L7.32087 6.44565L3.64696 8.61957V2L7.32087 4.17391V4.20652H8.79913V4.17391L12.473 2ZM9.27739 9.6087C9.27739 10.281 8.73234 10.8261 8.05999 10.8261C7.38765 10.8261 6.8426 10.281 6.8426 9.6087C6.8426 8.93635 7.38765 8.39131 8.05999 8.39131C8.73234 8.39131 9.27739 8.93635 9.27739 9.6087ZM8.05999 14.5C8.73234 14.5 9.27739 13.955 9.27739 13.2826C9.27739 12.6103 8.73234 12.0652 8.05999 12.0652C7.38765 12.0652 6.8426 12.6103 6.8426 13.2826C6.8426 13.955 7.38765 14.5 8.05999 14.5Z" fill="#88C626"/>
</svg>
