<svg width="16" height="16" viewBox="0 0 16 16" fill="none" xmlns="http://www.w3.org/2000/svg">
<path d="M8 12.5C10.4853 12.5 12.5 10.4853 12.5 8C12.5 5.51472 10.4853 3.5 8 3.5C6.28961 3.5 4.8021 4.45423 4.04078 5.85935L7.39596 8.46894L9.93055 5.51191L11.0694 6.4881L7.60403 10.5311L3.54336 7.37277L3.54318 7.37407L2.23596 6.32829C2.95984 3.82802 5.26644 2 8 2C11.3137 2 14 4.68629 14 8C14 11.3137 11.3137 14 8 14C4.70654 14 2.03286 11.3464 2.0003 8.0607L3.73939 9.45197C4.34337 11.2248 6.02277 12.5 8 12.5Z" fill="#2CB081"/>
</svg>
