<svg width="16" height="16" viewBox="0 0 16 16" fill="none" xmlns="http://www.w3.org/2000/svg">
<path d="M12.5 11.9687C13.4335 10.911 14 9.52167 14 8C14 6.47833 13.4335 5.08896 12.5 4.03127V11.9687Z" fill="#3B60C7"/>
<path d="M11 13.1973V2.80269C10.6838 2.61977 10.3493 2.46488 10 2.34141V13.6586C10.3493 13.5351 10.6838 13.3802 11 13.1973Z" fill="#6281A4"/>
<path d="M8.5 13.9795V2.02054C8.33513 2.00694 8.16838 2 8 2C7.83162 2 7.66487 2.00694 7.5 2.02054V13.9795C7.66487 13.9931 7.83162 14 8 14C8.16838 14 8.33513 13.9931 8.5 13.9795Z" fill="#8AA181"/>
<path d="M6 13.6586V2.34141C5.65069 2.46488 5.31622 2.61977 5 2.80269V13.1973C5.31622 13.3802 5.65069 13.5351 6 13.6586Z" fill="#B1C25E"/>
<path d="M3.5 11.9687C2.56645 10.911 2 9.52167 2 8C2 6.47833 2.56645 5.08896 3.5 4.03127V11.9687Z" fill="#D8E23B"/>
</svg>
