<svg width="16" height="16" viewBox="0 0 16 16" fill="none" xmlns="http://www.w3.org/2000/svg">
<path fill-rule="evenodd" clip-rule="evenodd" d="M5.18069 2.58051C5.68915 2.30918 6.23134 2.12926 6.77956 2C6.99895 2.39016 7.19879 2.81315 7.37305 3.22627C7.57998 3.18968 7.78756 3.17618 7.99593 3.1734H8.00394C8.21192 3.17618 8.41976 3.18968 8.62656 3.22627C8.80094 2.81315 9.00118 2.39058 9.22018 2.00042C9.76867 2.12954 10.3109 2.30945 10.8193 2.58078C10.8076 3.05693 10.7786 3.51291 10.72 3.97625C10.7817 4.01827 10.8444 4.05843 10.9072 4.09859C11.0448 4.18666 11.1825 4.27476 11.3091 4.38255C11.339 4.40685 11.3689 4.43098 11.3988 4.4551C11.557 4.58277 11.7148 4.71012 11.8574 4.86051C12.2007 4.61906 12.5571 4.3992 12.9247 4.20208C13.3231 4.65666 13.6958 5.14742 14 5.69648C13.7709 6.08914 13.5321 6.45732 13.274 6.80671H13.2668L13.266 9.90752V9.94221C13.2631 9.94221 13.2602 9.94256 13.2573 9.94291C13.2544 9.94326 13.2515 9.9436 13.2487 9.9436L11.3011 10.1429C11.2518 10.148 11.2057 10.1714 11.1711 10.2091C11.1364 10.2468 11.1155 10.2963 11.1121 10.3488L11.052 11.2609L9.35232 11.3894L9.23527 10.5476C9.22005 10.4385 9.13174 10.3577 9.02769 10.3577H6.97218C6.92187 10.3577 6.87325 10.3769 6.83517 10.4118C6.79709 10.4466 6.77209 10.4949 6.76473 10.5476L6.64755 11.3894L4.94804 11.2609L4.88794 10.3488C4.88448 10.2963 4.86358 10.2468 4.82897 10.2091C4.79435 10.1714 4.74825 10.1479 4.69886 10.1429L2.75056 9.9436C2.74479 9.94221 2.73902 9.94221 2.73312 9.94221H2.73311V6.80629H2.72589C2.46792 6.45704 2.22884 6.08887 2 5.6962C2.30429 5.14714 2.67668 4.65639 3.07506 4.2018C3.4427 4.39884 3.79908 4.61865 4.14237 4.86009C4.28444 4.71049 4.44178 4.58352 4.59922 4.45647C4.6298 4.4318 4.66038 4.40712 4.69085 4.38227C4.81818 4.27378 4.95651 4.18533 5.09497 4.0968C5.157 4.05715 5.21905 4.01747 5.28015 3.97597C5.22136 3.51277 5.19236 3.05652 5.18069 2.58051ZM2.73244 11.0401C2.73168 11.0066 2.73048 10.9534 2.72996 10.8215L4.48209 11L4.54245 11.917C4.54598 11.9704 4.56756 12.0207 4.60324 12.0586C4.63891 12.0965 4.68628 12.1194 4.73665 12.1233L6.81197 12.2803C6.86477 12.2843 6.91706 12.267 6.95834 12.2318C6.99962 12.1967 7.02683 12.1463 7.03451 12.0907L7.15352 11.235H8.84687L8.96588 12.0907C8.97321 12.1435 8.99818 12.1917 9.03624 12.2266C9.07429 12.2615 9.1229 12.2807 9.17321 12.2808H9.1883L11.2636 12.1239C11.314 12.12 11.3614 12.0971 11.3972 12.0592C11.4329 12.0213 11.4545 11.971 11.4581 11.9175L11.5184 11.0006L13.2697 10.8215C13.2691 10.9535 13.2678 11.0063 13.267 11.0398C13.2665 11.057 13.2662 11.0691 13.2662 11.0841C13.2662 13.0462 10.9198 13.9891 8.00367 14H7.99646C5.0803 13.9891 2.73311 13.0462 2.73311 11.0841C2.73311 11.0693 2.73283 11.0573 2.73244 11.0401ZM7.14286 7.57143C7.14286 8.28151 6.56722 8.85714 5.85714 8.85714C5.14706 8.85714 4.57143 8.28151 4.57143 7.57143C4.57143 6.86135 5.14706 6.28571 5.85714 6.28571C6.56722 6.28571 7.14286 6.86135 7.14286 7.57143ZM11.4286 7.57144C11.4286 8.28152 10.8529 8.85715 10.1429 8.85715C9.43278 8.85715 8.85715 8.28152 8.85715 7.57144C8.85715 6.86136 9.43278 6.28572 10.1429 6.28572C10.8529 6.28572 11.4286 6.86136 11.4286 7.57144Z" fill="#E49C30"/>
</svg>
