<svg id="Calque_1" data-name="Calque 1" xmlns="http://www.w3.org/2000/svg" xmlns:xlink="http://www.w3.org/1999/xlink" viewBox="0 0 16 16"><defs><style>.cls-1{mask:url(#mask);}.cls-2{fill:#0077c6;}.cls-3{filter:url(#luminosity-noclip);}</style><filter id="luminosity-noclip" x="1.45" y="2.45" width="13.09" height="11.09" filterUnits="userSpaceOnUse" color-interpolation-filters="sRGB"><feFlood flood-color="#fff" result="bg"/><feBlend in="SourceGraphic" in2="bg"/></filter><mask id="mask" x="1.45" y="2.45" width="13.09" height="11.09" maskUnits="userSpaceOnUse"><g class="cls-3"><path d="M4.19,6.06H8.46V7.12H4.19Zm1.59.48h1.1v5.35H5.78Z"/><path d="M10,11.87a3.89,3.89,0,0,1-.75-.25,3.33,3.33,0,0,1-.63-.39l.51-.91a2.47,2.47,0,0,0,.78.43,2.85,2.85,0,0,0,.91.15,1.6,1.6,0,0,0,.83-.18.57.57,0,0,0,.3-.52h0a.54.54,0,0,0-.13-.37.81.81,0,0,0-.35-.2l-.54-.12h-.05l-.09,0a4.78,4.78,0,0,1-1-.23,1.44,1.44,0,0,1-.65-.48,1.58,1.58,0,0,1-.27-1h0a1.77,1.77,0,0,1,.25-1,1.66,1.66,0,0,1,.74-.61A2.9,2.9,0,0,1,11,6a2.85,2.85,0,0,1,.64.07,3.69,3.69,0,0,1,.64.21,3.08,3.08,0,0,1,.59.33l-.46.93a3.39,3.39,0,0,0-.71-.36,2,2,0,0,0-.7-.13,1.5,1.5,0,0,0-.78.17.5.5,0,0,0-.28.46h0a.54.54,0,0,0,.15.4.73.73,0,0,0,.35.21,4.3,4.3,0,0,0,.6.15h.16a4.93,4.93,0,0,1,.92.26,1.42,1.42,0,0,1,.62.5,1.54,1.54,0,0,1,.25.94h0a1.74,1.74,0,0,1-.26,1,1.59,1.59,0,0,1-.76.6,3.07,3.07,0,0,1-1.2.21A4.47,4.47,0,0,1,10,11.87Z"/></g></mask></defs><g class="cls-1"><path class="cls-2" d="M13.5,2.45a1,1,0,0,1,1.05,1v9a1,1,0,0,1-1.05,1.05H2.5a1,1,0,0,1-1-1.05V3.55a1,1,0,0,1,1.05-1Z"/></g></svg>