<svg width="16" height="16" viewBox="0 0 16 16" fill="none" xmlns="http://www.w3.org/2000/svg">
<path fill-rule="evenodd" clip-rule="evenodd" d="M8 9.75C8.9665 9.75 9.75 8.9665 9.75 8C9.75 7.0335 8.9665 6.25 8 6.25C7.0335 6.25 6.25 7.0335 6.25 8C6.25 8.9665 7.0335 9.75 8 9.75ZM8 11.75C10.0711 11.75 11.75 10.0711 11.75 8C11.75 5.92893 10.0711 4.25 8 4.25C5.92893 4.25 4.25 5.92893 4.25 8C4.25 10.0711 5.92893 11.75 8 11.75Z" fill="#909090" fill-opacity="0.9"/>
<path d="M8.75 14.2055C11.8482 13.8349 14.25 11.198 14.25 8C14.25 4.80204 11.8482 2.16506 8.75 1.79454V3.30888C11.017 3.66847 12.75 5.63185 12.75 8C12.75 10.3682 11.017 12.3315 8.75 12.6911V14.2055Z" fill="#40A8E2"/>
<path d="M7.25 12.6911C6.41839 12.5592 5.65864 12.2115 5.02993 11.7071L3.92947 12.7429C4.84453 13.5289 5.98965 14.0547 7.25 14.2055V12.6911Z" fill="#F1608B"/>
<path d="M2.9163 11.6365C2.18216 10.6121 1.75 9.35651 1.75 8H3.25C3.25 8.95814 3.53369 9.85002 4.02165 10.5962L2.9163 11.6365Z" fill="#F1608B"/>
</svg>
