<svg id="Calque_1" data-name="Calque 1" xmlns="http://www.w3.org/2000/svg" xmlns:xlink="http://www.w3.org/1999/xlink" viewBox="0 0 16 16"><defs><style>.cls-1{mask:url(#mask);}.cls-2{fill:#0077c6;}.cls-3{filter:url(#luminosity-noclip);}</style><filter id="luminosity-noclip" x="1.45" y="-8242" width="13.09" height="32766" filterUnits="userSpaceOnUse" color-interpolation-filters="sRGB"><feFlood flood-color="#fff" result="bg"/><feBlend in="SourceGraphic" in2="bg"/></filter><mask id="mask" x="1.45" y="-8242" width="13.09" height="32766" maskUnits="userSpaceOnUse"><g class="cls-3"/></mask></defs><g class="cls-1"><path class="cls-2" d="M13.5,3.45a.05.05,0,0,1,.05,0v9a0,0,0,0,1-.05.05H2.5a0,0,0,0,1,0-.05V3.55a0,0,0,0,1,0,0l11,0m0-1-11,0a1,1,0,0,0-1,1v9A1,1,0,0,0,2.5,13.55h11a1,1,0,0,0,1.05-1.05v-9a1,1,0,0,0-1.05-1Z"/></g><path class="cls-2" d="M3.69,5.61H8V6.67H3.69Zm1.59.47h1.1v5.36H5.28Z"/><path class="cls-2" d="M9.46,11.42a3.89,3.89,0,0,1-.75-.25,3.33,3.33,0,0,1-.63-.39l.51-.91a2.47,2.47,0,0,0,.78.43,2.85,2.85,0,0,0,.91.15,1.6,1.6,0,0,0,.83-.18.59.59,0,0,0,.3-.52h0a.54.54,0,0,0-.13-.37.81.81,0,0,0-.35-.2,3.73,3.73,0,0,0-.54-.12h-.14a5.56,5.56,0,0,1-1-.23,1.44,1.44,0,0,1-.65-.48,1.6,1.6,0,0,1-.27-1h0a1.77,1.77,0,0,1,.25-1,1.6,1.6,0,0,1,.74-.61,2.9,2.9,0,0,1,1.16-.21,2.85,2.85,0,0,1,.64.07,3.69,3.69,0,0,1,.64.21,3.08,3.08,0,0,1,.59.33l-.46.93a2.64,2.64,0,0,0-.71-.36,2,2,0,0,0-.7-.13,1.51,1.51,0,0,0-.78.16.53.53,0,0,0-.28.47h0a.51.51,0,0,0,.15.39.84.84,0,0,0,.35.22,4.55,4.55,0,0,0,.6.14h.16a4.93,4.93,0,0,1,.92.26,1.42,1.42,0,0,1,.62.5,1.51,1.51,0,0,1,.25.93h0a1.77,1.77,0,0,1-.26,1,1.65,1.65,0,0,1-.76.6,3.07,3.07,0,0,1-1.2.21A4.47,4.47,0,0,1,9.46,11.42Z"/></svg>