<svg id="Calque_1" data-name="Calque 1" xmlns="http://www.w3.org/2000/svg" viewBox="0 0 16 16"><defs><style>.cls-1{fill:#0077c6;}</style></defs><path class="cls-1" d="M13.5,2.45l-11,0a1,1,0,0,0-1,1v9a1,1,0,0,0,1,1.05h11a1,1,0,0,0,1-1.05v-9A1,1,0,0,0,13.5,2.45Zm0,10.05,0,.05H2.5l0-.05V3.55l0,0,11,0,0,0Z"/><polygon class="cls-1" points="3.69 6.67 5.28 6.67 5.28 11.44 6.38 11.44 6.38 6.67 7.96 6.67 7.96 5.61 3.69 5.61 3.69 6.67"/><path class="cls-1" d="M11.63,8.29A4.93,4.93,0,0,0,10.71,8h-.16a4.55,4.55,0,0,1-.6-.14.84.84,0,0,1-.35-.22.51.51,0,0,1-.15-.39h0a.53.53,0,0,1,.28-.47,1.51,1.51,0,0,1,.78-.16,2,2,0,0,1,.7.13,2.64,2.64,0,0,1,.71.36l.46-.93a3.08,3.08,0,0,0-.59-.33,3.69,3.69,0,0,0-.64-.21,2.85,2.85,0,0,0-.64-.07,2.9,2.9,0,0,0-1.16.21,1.6,1.6,0,0,0-.74.61,1.77,1.77,0,0,0-.25,1h0a1.6,1.6,0,0,0,.27,1,1.44,1.44,0,0,0,.65.48,5.56,5.56,0,0,0,1,.23h.14a3.73,3.73,0,0,1,.54.12.81.81,0,0,1,.35.2.54.54,0,0,1,.13.37h0a.59.59,0,0,1-.3.52,1.6,1.6,0,0,1-.83.18,2.85,2.85,0,0,1-.91-.15,2.47,2.47,0,0,1-.78-.43l-.51.91a3.33,3.33,0,0,0,.63.39,3.89,3.89,0,0,0,.75.25,4.47,4.47,0,0,0,.82.08,3.07,3.07,0,0,0,1.2-.21,1.65,1.65,0,0,0,.76-.6,1.77,1.77,0,0,0,.26-1h0a1.51,1.51,0,0,0-.25-.93A1.42,1.42,0,0,0,11.63,8.29Z"/></svg>