<svg id="Calque_1" data-name="Calque 1" xmlns="http://www.w3.org/2000/svg" xmlns:xlink="http://www.w3.org/1999/xlink" viewBox="0 0 16 16"><defs><style>.cls-1{mask:url(#mask);}.cls-2{fill:#0077c6;}.cls-3{filter:url(#luminosity-noclip);}</style><filter id="luminosity-noclip" x="1.45" y="2.45" width="13.09" height="11.09" filterUnits="userSpaceOnUse" color-interpolation-filters="sRGB"><feFlood flood-color="#fff" result="bg"/><feBlend in="SourceGraphic" in2="bg"/></filter><mask id="mask" x="1.45" y="2.45" width="13.09" height="11.09" maskUnits="userSpaceOnUse"><g class="cls-3"><path d="M4,6.06H8.28V7.12H4Zm1.59.48h1.1v5.35H5.59Z"/><path d="M9.77,11.87A3.89,3.89,0,0,1,9,11.62a3,3,0,0,1-.62-.39l.51-.91a2.32,2.32,0,0,0,.77.43,2.85,2.85,0,0,0,.91.15,1.57,1.57,0,0,0,.83-.18.57.57,0,0,0,.3-.52h0a.49.49,0,0,0-.13-.37.75.75,0,0,0-.35-.2l-.54-.12h0l-.08,0a4.62,4.62,0,0,1-1-.23,1.41,1.41,0,0,1-.66-.48,1.58,1.58,0,0,1-.27-1h0a1.78,1.78,0,0,1,.26-1,1.58,1.58,0,0,1,.73-.61A2.9,2.9,0,0,1,10.82,6a2.85,2.85,0,0,1,.64.07,3.69,3.69,0,0,1,.64.21,3.51,3.51,0,0,1,.6.33l-.47.93a3.32,3.32,0,0,0-.7-.36,2.06,2.06,0,0,0-.71-.13,1.53,1.53,0,0,0-.78.17.52.52,0,0,0-.28.46h0a.54.54,0,0,0,.15.4.73.73,0,0,0,.35.21,5.19,5.19,0,0,0,.6.15H11a4.72,4.72,0,0,1,.92.26,1.37,1.37,0,0,1,.62.5,1.54,1.54,0,0,1,.25.94h0a1.66,1.66,0,0,1-.26,1,1.59,1.59,0,0,1-.76.6,3.07,3.07,0,0,1-1.2.21A4.47,4.47,0,0,1,9.77,11.87Z"/></g></mask></defs><g class="cls-1"><path class="cls-2" d="M13.5,2.45a1,1,0,0,1,1.05,1v9a1,1,0,0,1-1.05,1.05H2.5a1,1,0,0,1-1-1.05V3.55a1,1,0,0,1,1.05-1Z"/></g></svg>