<svg width="16" height="16" viewBox="0 0 16 16" fill="none" xmlns="http://www.w3.org/2000/svg">
<path d="M13.7686 4.48817L9.78753 12.8857C9.75443 12.9555 9.68408 13 9.60681 13H7.61482C6.87222 13 6.38868 12.2192 6.7196 11.5544L10.0732 4.81733C10.1938 4.57487 10.429 4.40993 10.6981 4.37905L13.4633 4.06161C13.6972 4.03477 13.8694 4.27545 13.7686 4.48817Z" fill="#416EA8"/>
<path d="M5.55117 4.38048L2.51747 4.05544C2.28766 4.03082 2.1175 4.26438 2.21137 4.47558L5.78885 12.5249C5.91725 12.8138 6.20375 13 6.5199 13H9.68596C9.83228 13 9.92908 12.848 9.8672 12.7154L6.19089 4.83762C6.07241 4.58374 5.82975 4.41033 5.55117 4.38048Z" fill="#609EF1"/>
</svg>
