<svg width="16" height="16" viewBox="0 0 16 16" fill="none" xmlns="http://www.w3.org/2000/svg">
<path d="M5.55117 4.38048L2.51747 4.05544C2.28766 4.03082 2.1175 4.26438 2.21137 4.47558L5.78885 12.5249C5.91725 12.8138 6.20375 13 6.5199 13H9.68596C9.83228 13 9.92908 12.848 9.8672 12.7154L6.19089 4.83762C6.07241 4.58374 5.82975 4.41033 5.55117 4.38048Z" fill="#4494FF"/>
<path fill-rule="evenodd" clip-rule="evenodd" d="M6.62673 12.1602C6.65834 12.3515 6.74545 12.5297 6.87411 12.6723C6.84095 12.6269 6.81227 12.5776 6.78885 12.5249L6.62673 12.1602ZM10.3717 11.6535L13.7686 4.48817C13.8694 4.27545 13.6972 4.03477 13.4633 4.06161L10.6981 4.37905C10.429 4.40994 10.1938 4.57487 10.0731 4.81733L8.58064 7.81567L10.3717 11.6535Z" fill="#1E66C4"/>
</svg>
