<svg width="16" height="16" viewBox="0 0 16 16" fill="none" xmlns="http://www.w3.org/2000/svg">
<path d="M13.4262 4.16917L8.04095 13.942C7.92976 14.1438 7.6441 14.145 7.53125 13.9442L2.03916 4.17011C1.91621 3.9513 2.10058 3.68626 2.34491 3.73058L7.73598 4.70851C7.77037 4.71475 7.80558 4.71469 7.83997 4.70833L13.1183 3.73198C13.3618 3.68694 13.547 3.94993 13.4262 4.16917Z" fill="#A074FF"/>
<path d="M10.304 2.00287L6.31873 2.79537C6.25323 2.80839 6.20473 2.86473 6.20078 2.93234L5.95563 7.13422C5.94986 7.23319 6.03942 7.31001 6.1346 7.28773L7.24416 7.02786C7.34798 7.00356 7.44178 7.09635 7.42045 7.2023L7.0908 8.84051C7.06861 8.95077 7.17061 9.04505 7.27671 9.01234L7.96203 8.80104C8.06827 8.7683 8.17036 8.86285 8.14788 8.97319L7.62401 11.5464C7.59123 11.7074 7.80219 11.7952 7.89017 11.6572L7.94894 11.565L11.1963 4.98795C11.2507 4.87782 11.1569 4.75225 11.0378 4.77559L9.89574 4.99929C9.78834 5.02029 9.69705 4.91886 9.72735 4.81229L10.4727 2.18978C10.5031 2.08303 10.4114 1.98151 10.304 2.00287Z" fill="#FFCC17"/>
</svg>
