<svg width="16" height="16" viewBox="0 0 16 16" fill="none" xmlns="http://www.w3.org/2000/svg">
<path fill-rule="evenodd" clip-rule="evenodd" d="M12.3066 3.25629C10.936 5.8493 8.83267 9.83466 8.5 10.5C8 11.5 7 11 7 10.5V8C6.72386 8 6.5 7.77614 6.5 7.5V7C6.5 6.72386 6.27614 6.5 6 6.5C5.44772 6.5 5 6.05228 5 5.5V3.49039L2.36103 3.0052C2.10528 2.95818 1.91229 3.23937 2.04099 3.4715L7.78977 13.841C7.90789 14.054 8.20691 14.0527 8.32329 13.8387L13.9603 3.47051C14.0867 3.23791 13.8929 2.9589 13.638 3.00669L12.3066 3.25629Z" fill="#A074FF"/>
<path d="M10.1362 1.00265L6.34561 1.73602C6.28331 1.74807 6.23718 1.80021 6.23343 1.86277L6.00025 5.75113C5.99476 5.84272 6.07995 5.9138 6.17048 5.89319L7.22583 5.65271C7.32458 5.63022 7.4138 5.71609 7.39351 5.81413L7.07996 7.33011C7.05886 7.43214 7.15588 7.51938 7.25679 7.48911L7.90863 7.29358C8.00968 7.26328 8.10678 7.35078 8.0854 7.45289L7.58713 9.83411C7.55595 9.98309 7.7566 10.0643 7.84028 9.93664L7.89618 9.85132L10.9849 3.765C11.0367 3.66309 10.9475 3.54689 10.8342 3.56849L9.74787 3.7755C9.64572 3.79493 9.55889 3.70107 9.58771 3.60245L10.2967 1.17562C10.3256 1.07683 10.2384 0.982887 10.1362 1.00265Z" fill="#F3AF00"/>
</svg>
