<svg width="16" height="16" viewBox="0 0 16 16" fill="none" xmlns="http://www.w3.org/2000/svg">
<g clip-path="url(#clip0_826_47)">
<path d="M11.0058 5.63903L8.13691 10.1855C8.10638 10.2337 8.0624 10.2698 8.01158 10.2882C7.96064 10.3067 7.90561 10.3067 7.85466 10.2882C7.8039 10.2696 7.7602 10.2331 7.73038 10.1843C7.70021 10.1362 7.68506 10.0787 7.6872 10.0204L7.802 7.50934L5.94839 7.07986C5.9096 7.07006 5.8735 7.05027 5.84308 7.02213C5.81233 6.99395 5.78845 6.95786 5.77357 6.91707C5.75891 6.87599 5.75349 6.83163 5.75777 6.78777C5.76206 6.74335 5.77656 6.70085 5.79989 6.66423L8.66667 2.11546C8.69715 2.06744 8.74118 2.03174 8.792 2.01386C8.84359 1.99485 8.89943 1.99485 8.95103 2.01386C9.00164 2.0328 9.04526 2.06927 9.0753 2.11776C9.10568 2.16571 9.12051 2.22343 9.11743 2.28171L9.00053 4.79277L10.8541 5.2234C10.8931 5.23272 10.9293 5.25256 10.9595 5.28113C10.9905 5.309 11.0144 5.34519 11.029 5.38619C11.0445 5.42742 11.0503 5.4723 11.0458 5.51665C11.0404 5.5604 11.026 5.60223 11.0037 5.63903H11.0058Z" fill="#FCC72B"/>
<path d="M8.00316 14C7.92689 14.0001 7.85136 13.9836 7.78094 13.9515C7.71032 13.9201 7.6462 13.8733 7.59242 13.8141L4.87941 10.8424C4.79839 10.7533 4.74328 10.6399 4.72107 10.5165C4.69885 10.393 4.71052 10.2652 4.75459 10.149C4.79867 10.0328 4.87318 9.93362 4.96869 9.86388C5.06421 9.79414 5.17644 9.757 5.29121 9.75718C5.36725 9.75668 5.44263 9.77276 5.51296 9.80447C5.58329 9.83618 5.64717 9.8829 5.70089 9.9419L8.00316 12.4634L13.0142 6.97019C13.1246 6.85867 13.27 6.79827 13.4201 6.80162C13.5701 6.80496 13.7132 6.8718 13.8193 6.98814C13.9255 7.10448 13.9864 7.26131 13.9895 7.42581C13.9925 7.59031 13.9374 7.74973 13.8357 7.87071L8.41179 13.8141C8.30254 13.933 8.15495 13.9997 8.00105 14H8.00316Z" fill="#729B1B"/>
<path d="M8.00316 14C8.07943 14.0001 8.15496 13.9836 8.22538 13.9515C8.296 13.9201 8.36011 13.8733 8.4139 13.8141L11.1206 10.8424C11.2016 10.7533 11.2567 10.6399 11.2789 10.5164C11.3011 10.393 11.2895 10.2651 11.2454 10.149C11.2013 10.0328 11.1268 9.93361 11.0313 9.86387C10.9358 9.79412 10.8236 9.75699 10.7088 9.75717C10.6327 9.75667 10.5574 9.77275 10.487 9.80446C10.4167 9.83617 10.3528 9.88288 10.2991 9.94189L8.00316 12.4633L2.98789 6.97017C2.90606 6.88243 2.80242 6.82311 2.68996 6.79967C2.5775 6.77623 2.46123 6.7897 2.35573 6.83841C2.25023 6.88711 2.1602 6.96887 2.09691 7.07343C2.03363 7.178 1.99992 7.30072 2 7.42621C1.99939 7.50939 2.01377 7.59189 2.04233 7.66896C2.07088 7.74603 2.11305 7.81616 2.1664 7.87531L7.5882 13.8187C7.69746 13.9376 7.84505 14.0043 7.99895 14.0046L8.00316 14Z" fill="#729B1B" fill-opacity="0.5"/>
</g>
<defs>
<clipPath id="clip0_826_47">
<rect width="12" height="12" fill="white" transform="translate(2 2)"/>
</clipPath>
</defs>
</svg>
