<svg width="16" height="16" viewBox="0 0 16 16" fill="none" xmlns="http://www.w3.org/2000/svg">
<path fill-rule="evenodd" clip-rule="evenodd" d="M8 14C11.3137 14 14 11.3137 14 8C14 4.68629 11.3137 2 8 2C4.68629 2 2 4.68629 2 8C2 11.3137 4.68629 14 8 14ZM8 13C10.7614 13 13 10.7614 13 8C13 5.23858 10.7614 3 8 3C5.23858 3 3 5.23858 3 8C3 10.7614 5.23858 13 8 13Z" fill="#3DAFA4"/>
<path d="M11.1778 10.4296C10.4468 11.3843 9.29529 12 8 12C5.79086 12 4 10.2091 4 7.99999C4 7.53194 4.08039 7.08267 4.22812 6.66522L11.1778 10.4296Z" fill="#8DD638"/>
<path d="M4.28215 9.47856C4.87016 10.9558 6.31314 12 8 12C10.2091 12 12 10.2091 12 8C12 6.87795 11.538 5.86381 10.7939 5.13742L4.28215 9.47856Z" fill="#109168"/>
<path d="M11.1778 10.4296C11.6936 9.75611 12 8.91384 12 8C12 6.87795 11.538 5.86381 10.7939 5.13742L6.58621 7.94252L11.1778 10.4296Z" fill="#4ABFAA"/>
</svg>
