<svg id="Calque_1" data-name="Calque 1" xmlns="http://www.w3.org/2000/svg" xmlns:xlink="http://www.w3.org/1999/xlink" viewBox="0 0 16 16"><defs><style>.cls-1{mask:url(#mask);}.cls-2{fill:#29abe2;}.cls-3{filter:url(#luminosity-noclip);}</style><filter id="luminosity-noclip" x="2.45" y="2.45" width="11.09" height="11.09" filterUnits="userSpaceOnUse" color-interpolation-filters="sRGB"><feFlood flood-color="#fff" result="bg"/><feBlend in="SourceGraphic" in2="bg"/></filter><mask id="mask" x="2.45" y="2.45" width="11.09" height="11.09" maskUnits="userSpaceOnUse"><g class="cls-3"><polygon points="4 7.2 4 8.8 7.2 11.6 7.2 10 4.8 8 7.2 6 7.2 4.4 4 7.2"/><polygon points="8.8 4.4 8.8 6 11.2 8 8.8 10 8.8 11.6 12 8.8 12 7.2 8.8 4.4"/></g></mask></defs><g class="cls-1"><path class="cls-2" d="M12.5,2.45a1,1,0,0,1,1.05,1v9a1,1,0,0,1-1.05,1.05h-9a1,1,0,0,1-1-1.05V3.55a1,1,0,0,1,1-1Z"/></g></svg>