<svg id="Calque_1" data-name="Calque 1" xmlns="http://www.w3.org/2000/svg" viewBox="0 0 16 16"><defs><style>.cls-1{fill:#3193bc;}</style></defs><path class="cls-1" d="M7.67,3.15A4.06,4.06,0,0,1,8.5,2a2.72,2.72,0,0,1,.32,1.15L9.5,3s1,2-.68,4.75A3.21,3.21,0,0,1,10,11.2c1.72-.57,2.3-1.15,2.87-1.15a.57.57,0,0,1,.57.58s.08.37-.92.87l-2,1a6.25,6.25,0,0,1-3,1c-1.17,0-2,.08-2-.5A1.5,1.5,0,0,1,6,12H5.5s-.85,1.5-2,1.5,0-1,0-1c-1,0-.65-1.93.5-2.5A2.32,2.32,0,0,1,5.5,6.5c-.57-.58-1-1.81-.5-2a1.88,1.88,0,0,0,1-1A2.07,2.07,0,0,1,7.67,3.15Z"/></svg>