<svg width="16" height="16" viewBox="0 0 16 16" fill="none" xmlns="http://www.w3.org/2000/svg">
<path d="M7.66999 3.15C7.87705 2.72094 8.158 2.33167 8.49999 2C8.69589 2.3533 8.80875 2.74658 8.82999 3.15L9.49999 3C9.49999 3 10.5 5 8.82999 7.75C9.35165 8.13875 9.74287 8.67684 9.95181 9.29295C10.1608 9.90906 10.1776 10.5741 9.99999 11.2C11.72 10.62 12.3 10.05 12.87 10.05C12.9452 10.0486 13.0199 10.0625 13.0897 10.0906C13.1595 10.1188 13.2229 10.1607 13.2761 10.2139C13.3293 10.2671 13.3712 10.3305 13.3994 10.4003C13.4275 10.47 13.4413 10.5448 13.44 10.62C13.44 10.62 13.52 11 12.52 11.5L10.52 12.5C9.62225 13.085 8.58918 13.4293 7.51999 13.5C6.34999 13.5 5.51999 13.58 5.51999 13C5.54634 12.6176 5.71809 12.2598 5.99999 12H5.49999C5.49999 12 4.64999 13.5 3.49999 13.5C2.34999 13.5 3.49999 12.5 3.49999 12.5C2.49999 12.5 2.84999 10.57 3.99999 10C3.80206 9.68267 3.68379 9.32218 3.65524 8.94927C3.6267 8.57636 3.68873 8.20208 3.83606 7.85831C3.98339 7.51455 4.21164 7.2115 4.50136 6.97499C4.79109 6.73848 5.1337 6.57552 5.49999 6.5C4.91999 5.92 4.49999 4.69 4.99999 4.5C5.45077 4.30952 5.80952 3.95078 5.99999 3.5C6.23749 3.32633 6.50929 3.20528 6.79725 3.14493C7.08522 3.08457 7.38275 3.0863 7.66999 3.15Z" fill="#909090" fill-opacity="0.9"/>
</svg>
